<svg xmlns="http://www.w3.org/2000/svg" xmlns:xlink="http://www.w3.org/1999/xlink" width="500" zoomAndPan="magnify" viewBox="0 0 375 374.999991" height="500" preserveAspectRatio="xMidYMid meet" version="1.0"><defs><filter x="0%" y="0%" width="100%" height="100%" id="fb06b0f50b"><feColorMatrix values="0 0 0 0 1 0 0 0 0 1 0 0 0 0 1 0 0 0 1 0" color-interpolation-filters="sRGB"/></filter><clipPath id="a9cababf06"><path d="M 95 348 L 96.675781 348 L 96.675781 349.949219 L 95 349.949219 Z M 95 348 " clip-rule="nonzero"/></clipPath><clipPath id="73c148235f"><path d="M 96.523438 348.824219 C 95.851562 349.800781 95.324219 349.648438 95.175781 349.425781 C 95.023438 349.199219 95.101562 348.601562 95.324219 348.449219 C 95.550781 348.300781 96.300781 348.523438 96.300781 348.523438 " clip-rule="nonzero"/></clipPath><mask id="e405420a08"><g filter="url(#fb06b0f50b)"><rect x="-37.5" width="450" fill="#000000" y="-37.499999" height="449.999989" fill-opacity="0.1765"/></g></mask><clipPath id="edaa8ecabc"><path d="M 2 7 L 369 7 L 369 345 L 2 345 Z M 2 7 " clip-rule="nonzero"/></clipPath><clipPath id="6bb658830f"><path d="M 349.289062 125.191406 C 316.964844 62.367188 251.84375 16.316406 182.449219 9.082031 C 125.824219 0.398438 88.566406 27.078125 58.136719 63.816406 C 27.710938 100.550781 11.53125 147.382812 5 194.621094 C 1.546875 219.558594 0.84375 246.015625 11.417969 268.875 C 24.816406 297.855469 54.09375 316.300781 83.890625 327.765625 C 164.042969 358.601562 262.453125 346.652344 324.832031 287.578125 C 344.351562 269.097656 360.347656 245.941406 366.0625 219.667969 C 373 187.792969 364.207031 154.210938 349.289062 125.191406 " clip-rule="nonzero"/></clipPath><clipPath id="54165d8f45"><rect x="0" width="373" y="0" height="359"/></clipPath><clipPath id="f3bcb2c26d"><path d="M 64 67.152344 L 294 67.152344 L 294 227 L 64 227 Z M 64 67.152344 " clip-rule="nonzero"/></clipPath><clipPath id="c67ca7d160"><path d="M 163 297 L 178 297 L 178 307.902344 L 163 307.902344 Z M 163 297 " clip-rule="nonzero"/></clipPath><clipPath id="62f0ea85b8"><path d="M 112 292 L 126 292 L 126 307.902344 L 112 307.902344 Z M 112 292 " clip-rule="nonzero"/></clipPath><clipPath id="bd976864b9"><path d="M 184 289 L 201 289 L 201 307.902344 L 184 307.902344 Z M 184 289 " clip-rule="nonzero"/></clipPath><clipPath id="d4e5ffe85f"><path d="M 99 306 L 201 306 L 201 307.902344 L 99 307.902344 Z M 99 306 " clip-rule="nonzero"/></clipPath></defs><g clip-path="url(#a9cababf06)"><g clip-path="url(#73c148235f)"><path fill="#e1f4fe" d="M 92.175781 345.449219 L 99.675781 345.449219 L 99.675781 352.949219 L 92.175781 352.949219 Z M 92.175781 345.449219 " fill-opacity="1" fill-rule="nonzero"/></g></g><g mask="url(#e405420a08)"><g transform="matrix(1, 0, 0, 1, 2, 8)"><g clip-path="url(#54165d8f45)"><g clip-path="url(#edaa8ecabc)"><g clip-path="url(#6bb658830f)"><path fill="#4fc3f7" d="M 0.84375 0.398438 L 373.035156 0.398438 L 373.035156 358.492188 L 0.84375 358.492188 Z M 0.84375 0.398438 " fill-opacity="1" fill-rule="nonzero"/></g></g></g></g></g><path fill="#e6e6e6" d="M 350.527344 279.816406 L 255.769531 279.816406 C 254.914062 279.8125 254.070312 279.730469 253.234375 279.5625 C 252.394531 279.394531 251.582031 279.148438 250.792969 278.820312 C 250.007812 278.492188 249.257812 278.09375 248.546875 277.617188 C 247.839844 277.144531 247.183594 276.605469 246.578125 276 C 245.972656 275.398438 245.4375 274.742188 244.960938 274.03125 C 244.488281 273.320312 244.085938 272.570312 243.757812 271.785156 C 243.433594 270.996094 243.183594 270.183594 243.015625 269.34375 C 242.851562 268.507812 242.765625 267.660156 242.765625 266.808594 L 242.765625 117.300781 C 242.765625 116.445312 242.851562 115.601562 243.015625 114.761719 C 243.183594 113.925781 243.433594 113.113281 243.757812 112.324219 C 244.085938 111.535156 244.488281 110.785156 244.960938 110.078125 C 245.4375 109.367188 245.972656 108.710938 246.578125 108.105469 C 247.183594 107.503906 247.839844 106.964844 248.546875 106.488281 C 249.257812 106.015625 250.007812 105.613281 250.792969 105.285156 C 251.582031 104.960938 252.394531 104.710938 253.234375 104.542969 C 254.070312 104.378906 254.914062 104.292969 255.769531 104.292969 L 350.527344 104.292969 C 351.382812 104.292969 352.226562 104.378906 353.0625 104.542969 C 353.902344 104.710938 354.714844 104.960938 355.503906 105.285156 C 356.289062 105.613281 357.039062 106.015625 357.75 106.488281 C 358.457031 106.964844 359.117188 107.503906 359.71875 108.105469 C 360.324219 108.710938 360.863281 109.367188 361.335938 110.078125 C 361.808594 110.785156 362.210938 111.535156 362.539062 112.324219 C 362.863281 113.113281 363.113281 113.925781 363.28125 114.761719 C 363.445312 115.601562 363.53125 116.445312 363.53125 117.300781 L 363.53125 266.808594 C 363.53125 267.660156 363.445312 268.507812 363.28125 269.34375 C 363.113281 270.183594 362.863281 270.996094 362.539062 271.785156 C 362.210938 272.570312 361.808594 273.320312 361.335938 274.03125 C 360.863281 274.742188 360.324219 275.398438 359.71875 276 C 359.117188 276.605469 358.457031 277.144531 357.75 277.617188 C 357.039062 278.09375 356.289062 278.492188 355.503906 278.820312 C 354.714844 279.148438 353.902344 279.394531 353.0625 279.5625 C 352.226562 279.730469 351.382812 279.8125 350.527344 279.816406 Z M 350.527344 279.816406 " fill-opacity="1" fill-rule="nonzero"/><path fill="#ffffff" d="M 352.101562 112.054688 L 255.589844 112.054688 C 255.324219 112.054688 255.058594 112.082031 254.796875 112.132812 C 254.535156 112.183594 254.28125 112.261719 254.03125 112.363281 C 253.785156 112.46875 253.550781 112.59375 253.328125 112.742188 C 253.109375 112.890625 252.902344 113.058594 252.714844 113.246094 C 252.523438 113.4375 252.355469 113.640625 252.207031 113.863281 C 252.058594 114.085938 251.933594 114.320312 251.832031 114.566406 C 251.726562 114.816406 251.652344 115.070312 251.597656 115.332031 C 251.546875 115.59375 251.519531 115.859375 251.519531 116.125 L 251.519531 267.582031 C 251.519531 267.851562 251.546875 268.117188 251.597656 268.378906 C 251.652344 268.640625 251.726562 268.894531 251.832031 269.140625 C 251.933594 269.386719 252.058594 269.621094 252.207031 269.84375 C 252.355469 270.066406 252.523438 270.273438 252.714844 270.460938 C 252.902344 270.648438 253.109375 270.820312 253.328125 270.96875 C 253.550781 271.117188 253.785156 271.242188 254.035156 271.34375 C 254.28125 271.445312 254.535156 271.523438 254.796875 271.574219 C 255.058594 271.628906 255.324219 271.65625 255.589844 271.65625 L 352.101562 271.65625 C 352.367188 271.65625 352.632812 271.628906 352.894531 271.578125 C 353.15625 271.523438 353.410156 271.445312 353.65625 271.34375 C 353.902344 271.242188 354.136719 271.117188 354.359375 270.96875 C 354.582031 270.820312 354.789062 270.648438 354.976562 270.460938 C 355.164062 270.273438 355.335938 270.066406 355.484375 269.84375 C 355.632812 269.621094 355.757812 269.386719 355.859375 269.140625 C 355.960938 268.894531 356.039062 268.640625 356.089844 268.378906 C 356.144531 268.117188 356.171875 267.851562 356.171875 267.582031 L 356.171875 116.125 C 356.171875 115.859375 356.144531 115.59375 356.089844 115.332031 C 356.039062 115.070312 355.960938 114.816406 355.859375 114.566406 C 355.757812 114.320312 355.632812 114.085938 355.484375 113.863281 C 355.335938 113.640625 355.164062 113.4375 354.976562 113.246094 C 354.789062 113.058594 354.582031 112.890625 354.359375 112.742188 C 354.136719 112.59375 353.902344 112.46875 353.65625 112.363281 C 353.410156 112.261719 353.15625 112.183594 352.894531 112.132812 C 352.632812 112.082031 352.367188 112.054688 352.101562 112.054688 Z M 352.101562 112.054688 " fill-opacity="1" fill-rule="nonzero"/><path fill="#e6e6e6" d="M 258.085938 104.292969 C 258.085938 104.160156 258.109375 104.035156 258.160156 103.910156 C 258.210938 103.789062 258.285156 103.683594 258.375 103.589844 C 258.46875 103.496094 258.578125 103.425781 258.699219 103.375 C 258.820312 103.324219 258.949219 103.296875 259.078125 103.296875 L 265.84375 103.296875 C 265.976562 103.296875 266.101562 103.324219 266.226562 103.375 C 266.347656 103.421875 266.453125 103.496094 266.546875 103.589844 C 266.640625 103.683594 266.710938 103.789062 266.761719 103.910156 C 266.8125 104.035156 266.839844 104.160156 266.839844 104.292969 C 266.839844 104.425781 266.8125 104.550781 266.761719 104.671875 C 266.710938 104.796875 266.640625 104.902344 266.546875 104.996094 C 266.453125 105.089844 266.347656 105.160156 266.226562 105.210938 C 266.101562 105.261719 265.976562 105.289062 265.84375 105.289062 L 259.078125 105.289062 C 258.949219 105.289062 258.820312 105.261719 258.699219 105.210938 C 258.578125 105.160156 258.46875 105.089844 258.375 104.996094 C 258.285156 104.902344 258.210938 104.792969 258.160156 104.671875 C 258.109375 104.550781 258.085938 104.425781 258.085938 104.292969 Z M 258.085938 104.292969 " fill-opacity="1" fill-rule="nonzero"/><path fill="#e6e6e6" d="M 269.226562 104.292969 C 269.226562 104.160156 269.253906 104.035156 269.300781 103.910156 C 269.351562 103.789062 269.425781 103.683594 269.519531 103.589844 C 269.613281 103.496094 269.71875 103.425781 269.839844 103.375 C 269.960938 103.324219 270.089844 103.296875 270.222656 103.296875 L 276.984375 103.296875 C 277.117188 103.296875 277.246094 103.324219 277.367188 103.375 C 277.488281 103.421875 277.597656 103.496094 277.6875 103.589844 C 277.78125 103.683594 277.855469 103.789062 277.90625 103.910156 C 277.957031 104.035156 277.980469 104.160156 277.980469 104.292969 C 277.980469 104.425781 277.957031 104.550781 277.90625 104.671875 C 277.855469 104.796875 277.78125 104.902344 277.6875 104.996094 C 277.597656 105.089844 277.488281 105.160156 277.367188 105.210938 C 277.246094 105.261719 277.117188 105.289062 276.984375 105.289062 L 270.222656 105.289062 C 270.089844 105.289062 269.960938 105.261719 269.839844 105.210938 C 269.71875 105.160156 269.613281 105.089844 269.519531 104.996094 C 269.425781 104.902344 269.351562 104.792969 269.300781 104.671875 C 269.253906 104.550781 269.226562 104.425781 269.226562 104.292969 Z M 269.226562 104.292969 " fill-opacity="1" fill-rule="nonzero"/><path fill="#e6e6e6" d="M 336.074219 104.292969 C 336.074219 104.160156 336.101562 104.035156 336.152344 103.910156 C 336.203125 103.789062 336.273438 103.683594 336.367188 103.589844 C 336.460938 103.496094 336.566406 103.425781 336.691406 103.375 C 336.8125 103.324219 336.9375 103.296875 337.070312 103.296875 L 343.835938 103.296875 C 343.96875 103.296875 344.09375 103.324219 344.214844 103.375 C 344.335938 103.421875 344.445312 103.496094 344.539062 103.589844 C 344.632812 103.683594 344.703125 103.789062 344.753906 103.910156 C 344.804688 104.035156 344.828125 104.160156 344.828125 104.292969 C 344.828125 104.425781 344.804688 104.550781 344.753906 104.671875 C 344.703125 104.796875 344.632812 104.902344 344.539062 104.996094 C 344.445312 105.089844 344.335938 105.160156 344.214844 105.210938 C 344.09375 105.261719 343.96875 105.289062 343.835938 105.289062 L 337.070312 105.289062 C 336.9375 105.289062 336.8125 105.261719 336.691406 105.210938 C 336.566406 105.160156 336.460938 105.089844 336.367188 104.996094 C 336.273438 104.902344 336.203125 104.792969 336.152344 104.671875 C 336.101562 104.550781 336.074219 104.425781 336.074219 104.292969 Z M 336.074219 104.292969 " fill-opacity="1" fill-rule="nonzero"/><path fill="#f2f2f2" d="M 317.21875 268.535156 C 317.21875 269.582031 317.199219 270.625 317.152344 271.65625 L 255.589844 271.65625 C 255.324219 271.65625 255.058594 271.628906 254.796875 271.574219 C 254.535156 271.523438 254.28125 271.445312 254.035156 271.34375 C 253.785156 271.242188 253.550781 271.117188 253.328125 270.96875 C 253.109375 270.820312 252.902344 270.648438 252.714844 270.460938 C 252.523438 270.273438 252.355469 270.066406 252.207031 269.84375 C 252.058594 269.621094 251.933594 269.386719 251.832031 269.140625 C 251.726562 268.894531 251.652344 268.640625 251.597656 268.378906 C 251.546875 268.117188 251.519531 267.851562 251.519531 267.582031 L 251.519531 191.347656 C 253.789062 191.714844 256.039062 192.183594 258.265625 192.746094 C 260.492188 193.3125 262.691406 193.972656 264.863281 194.734375 C 267.03125 195.492188 269.164062 196.347656 271.257812 197.292969 C 273.351562 198.242188 275.402344 199.277344 277.40625 200.40625 C 279.40625 201.535156 281.355469 202.75 283.253906 204.046875 C 285.148438 205.347656 286.984375 206.730469 288.757812 208.191406 C 290.53125 209.652344 292.238281 211.191406 293.875 212.804688 C 295.515625 214.417969 297.078125 216.097656 298.570312 217.847656 C 300.058594 219.601562 301.46875 221.414062 302.800781 223.289062 C 304.128906 225.164062 305.375 227.09375 306.535156 229.078125 C 307.695312 231.0625 308.765625 233.09375 309.746094 235.175781 C 310.726562 237.253906 311.613281 239.371094 312.410156 241.53125 C 313.203125 243.6875 313.898438 245.875 314.5 248.09375 C 315.101562 250.316406 315.605469 252.554688 316.007812 254.820312 C 316.410156 257.082031 316.710938 259.359375 316.914062 261.652344 C 317.117188 263.941406 317.21875 266.234375 317.21875 268.535156 Z M 317.21875 268.535156 " fill-opacity="1" fill-rule="nonzero"/><path fill="#4fc3f7" d="M 292.167969 150.976562 L 315.128906 150.976562 C 315.378906 150.976562 315.621094 151.023438 315.851562 151.121094 C 316.082031 151.214844 316.289062 151.351562 316.464844 151.53125 C 316.644531 151.707031 316.78125 151.910156 316.875 152.144531 C 316.972656 152.375 317.019531 152.617188 317.019531 152.867188 L 317.019531 155.230469 C 317.019531 155.480469 316.972656 155.722656 316.875 155.953125 C 316.78125 156.183594 316.644531 156.390625 316.464844 156.566406 C 316.289062 156.746094 316.082031 156.882812 315.851562 156.976562 C 315.621094 157.074219 315.378906 157.121094 315.128906 157.121094 L 292.167969 157.121094 C 291.917969 157.121094 291.675781 157.074219 291.445312 156.976562 C 291.214844 156.882812 291.007812 156.746094 290.832031 156.566406 C 290.652344 156.390625 290.515625 156.183594 290.421875 155.953125 C 290.324219 155.722656 290.277344 155.480469 290.277344 155.230469 L 290.277344 152.867188 C 290.277344 152.617188 290.324219 152.375 290.421875 152.144531 C 290.515625 151.910156 290.652344 151.707031 290.832031 151.53125 C 291.007812 151.351562 291.214844 151.214844 291.445312 151.121094 C 291.675781 151.023438 291.917969 150.976562 292.167969 150.976562 Z M 292.167969 150.976562 " fill-opacity="1" fill-rule="nonzero"/><path fill="#e6e6e6" d="M 277.578125 163.265625 L 329.71875 163.265625 C 329.972656 163.265625 330.210938 163.316406 330.445312 163.410156 C 330.675781 163.507812 330.878906 163.644531 331.058594 163.820312 C 331.234375 164 331.371094 164.203125 331.46875 164.433594 C 331.5625 164.667969 331.613281 164.90625 331.613281 165.160156 L 331.613281 167.519531 C 331.613281 167.769531 331.5625 168.011719 331.46875 168.242188 C 331.371094 168.476562 331.234375 168.679688 331.058594 168.859375 C 330.878906 169.035156 330.675781 169.171875 330.445312 169.269531 C 330.210938 169.363281 329.972656 169.414062 329.71875 169.414062 L 277.578125 169.414062 C 277.328125 169.414062 277.085938 169.363281 276.851562 169.269531 C 276.621094 169.171875 276.417969 169.035156 276.238281 168.859375 C 276.0625 168.679688 275.925781 168.476562 275.828125 168.242188 C 275.734375 168.011719 275.683594 167.769531 275.683594 167.519531 L 275.683594 165.160156 C 275.683594 164.90625 275.734375 164.667969 275.828125 164.433594 C 275.925781 164.203125 276.0625 164 276.238281 163.820312 C 276.417969 163.644531 276.621094 163.507812 276.851562 163.410156 C 277.085938 163.316406 277.328125 163.265625 277.578125 163.265625 Z M 277.578125 163.265625 " fill-opacity="1" fill-rule="nonzero"/><path fill="#e6e6e6" d="M 277.578125 175.558594 L 329.71875 175.558594 C 329.972656 175.558594 330.210938 175.605469 330.445312 175.703125 C 330.675781 175.796875 330.878906 175.933594 331.058594 176.113281 C 331.234375 176.289062 331.371094 176.496094 331.46875 176.726562 C 331.5625 176.957031 331.613281 177.199219 331.613281 177.449219 L 331.613281 179.8125 C 331.613281 180.0625 331.5625 180.304688 331.46875 180.535156 C 331.371094 180.765625 331.234375 180.972656 331.058594 181.148438 C 330.878906 181.328125 330.675781 181.464844 330.445312 181.558594 C 330.210938 181.65625 329.972656 181.703125 329.71875 181.703125 L 277.578125 181.703125 C 277.328125 181.703125 277.085938 181.65625 276.851562 181.558594 C 276.621094 181.464844 276.417969 181.328125 276.238281 181.148438 C 276.0625 180.972656 275.925781 180.765625 275.828125 180.535156 C 275.734375 180.304688 275.683594 180.0625 275.683594 179.8125 L 275.683594 177.449219 C 275.683594 177.199219 275.734375 176.957031 275.828125 176.726562 C 275.925781 176.496094 276.0625 176.289062 276.238281 176.113281 C 276.417969 175.933594 276.621094 175.796875 276.851562 175.703125 C 277.085938 175.605469 277.328125 175.558594 277.578125 175.558594 Z M 277.578125 175.558594 " fill-opacity="1" fill-rule="nonzero"/><path fill="#cccccc" d="M 320.792969 261.304688 C 320.484375 261.320312 320.203125 261.242188 319.945312 261.078125 C 319.683594 260.914062 319.496094 260.691406 319.378906 260.410156 C 319.257812 260.125 319.234375 259.835938 319.296875 259.535156 C 319.363281 259.234375 319.507812 258.980469 319.734375 258.773438 L 319.832031 258.375 C 319.820312 258.34375 319.808594 258.3125 319.792969 258.28125 C 319.644531 257.925781 319.445312 257.597656 319.199219 257.300781 C 318.949219 257.003906 318.664062 256.75 318.34375 256.535156 C 318.019531 256.324219 317.675781 256.164062 317.304688 256.050781 C 316.933594 255.941406 316.554688 255.886719 316.167969 255.886719 C 315.785156 255.890625 315.40625 255.949219 315.035156 256.058594 C 314.667969 256.171875 314.320312 256.335938 314 256.554688 C 313.679688 256.769531 313.398438 257.023438 313.152344 257.324219 C 312.90625 257.621094 312.710938 257.949219 312.5625 258.308594 C 311.382812 261.15625 309.875 264.011719 309.503906 267.023438 C 309.339844 268.363281 309.40625 269.695312 309.707031 271.011719 C 306.898438 264.878906 305.488281 258.441406 305.480469 251.699219 C 305.480469 250.023438 305.570312 248.355469 305.757812 246.691406 C 305.910156 245.328125 306.125 243.972656 306.398438 242.628906 C 307.140625 238.984375 308.300781 235.476562 309.878906 232.109375 C 311.453125 228.738281 313.402344 225.601562 315.722656 222.695312 C 318.023438 221.4375 319.757812 219.636719 320.929688 217.292969 C 321.34375 216.464844 321.632812 215.59375 321.796875 214.683594 C 321.542969 214.714844 321.285156 214.734375 321.03125 214.753906 C 320.953125 214.757812 320.871094 214.761719 320.792969 214.765625 L 320.761719 214.765625 C 320.476562 214.78125 320.210938 214.714844 319.964844 214.570312 C 319.722656 214.425781 319.535156 214.226562 319.40625 213.972656 C 319.277344 213.71875 319.230469 213.449219 319.257812 213.167969 C 319.289062 212.882812 319.394531 212.632812 319.574219 212.410156 C 319.683594 212.277344 319.792969 212.140625 319.902344 212.007812 C 320.070312 211.796875 320.238281 211.59375 320.40625 211.386719 C 320.425781 211.367188 320.441406 211.347656 320.460938 211.324219 C 320.652344 211.089844 320.839844 210.855469 321.03125 210.617188 C 320.679688 210.070312 320.222656 209.628906 319.660156 209.292969 C 317.746094 208.171875 315.105469 208.949219 313.722656 210.679688 C 312.332031 212.414062 312.070312 214.84375 312.554688 217.007812 C 313.03125 218.863281 313.804688 220.585938 314.871094 222.179688 C 314.769531 222.3125 314.660156 222.441406 314.554688 222.574219 C 312.652344 225.019531 311.007812 227.628906 309.617188 230.402344 C 309.957031 227.261719 309.566406 224.214844 308.441406 221.261719 C 307.316406 218.546875 305.210938 216.261719 303.351562 213.917969 C 301.125 211.097656 296.550781 212.328125 296.160156 215.898438 C 296.15625 215.933594 296.152344 215.96875 296.148438 216.003906 C 296.425781 216.160156 296.695312 216.324219 296.957031 216.5 C 297.296875 216.726562 297.542969 217.027344 297.695312 217.40625 C 297.847656 217.785156 297.878906 218.175781 297.792969 218.574219 C 297.703125 218.972656 297.511719 219.3125 297.210938 219.589844 C 296.914062 219.871094 296.5625 220.039062 296.160156 220.101562 L 296.121094 220.109375 C 296.21875 221.105469 296.390625 222.085938 296.640625 223.054688 C 296.996094 224.40625 297.488281 225.703125 298.117188 226.953125 C 298.742188 228.203125 299.492188 229.375 300.359375 230.46875 C 301.230469 231.5625 302.203125 232.554688 303.277344 233.449219 C 304.351562 234.339844 305.503906 235.117188 306.738281 235.769531 C 306.898438 235.851562 307.058594 235.9375 307.21875 236.015625 C 305.820312 239.984375 304.953125 244.0625 304.621094 248.257812 C 304.429688 250.726562 304.441406 253.191406 304.652344 255.65625 L 304.640625 255.570312 C 304.375 254.203125 303.886719 252.917969 303.175781 251.714844 C 302.46875 250.515625 301.578125 249.46875 300.507812 248.578125 C 297.324219 245.964844 292.832031 245 289.398438 242.898438 C 289.027344 242.660156 288.621094 242.539062 288.175781 242.539062 C 287.734375 242.539062 287.328125 242.65625 286.953125 242.894531 C 286.582031 243.132812 286.300781 243.449219 286.113281 243.851562 C 285.925781 244.253906 285.859375 244.671875 285.917969 245.109375 C 285.925781 245.140625 285.929688 245.171875 285.933594 245.203125 C 286.445312 245.410156 286.941406 245.652344 287.425781 245.921875 C 287.699219 246.078125 287.96875 246.242188 288.234375 246.417969 C 288.574219 246.644531 288.820312 246.945312 288.972656 247.324219 C 289.125 247.703125 289.15625 248.09375 289.066406 248.492188 C 288.980469 248.890625 288.785156 249.230469 288.488281 249.507812 C 288.191406 249.789062 287.839844 249.957031 287.4375 250.019531 L 287.394531 250.027344 C 287.367188 250.03125 287.339844 250.035156 287.3125 250.039062 C 288.191406 252.144531 289.402344 254.035156 290.9375 255.71875 C 291.882812 256.730469 292.917969 257.636719 294.042969 258.4375 C 295.171875 259.238281 296.367188 259.914062 297.632812 260.46875 C 298.898438 261.027344 300.207031 261.449219 301.558594 261.734375 C 302.914062 262.023438 304.28125 262.171875 305.660156 262.179688 L 305.667969 262.179688 C 306.417969 265.453125 307.5 268.609375 308.910156 271.65625 L 320.5 271.65625 C 320.542969 271.527344 320.578125 271.394531 320.617188 271.265625 C 319.539062 271.332031 318.472656 271.269531 317.410156 271.074219 C 318.269531 270.019531 319.128906 268.953125 319.988281 267.898438 C 320.007812 267.878906 320.027344 267.859375 320.042969 267.835938 C 320.480469 267.296875 320.921875 266.761719 321.355469 266.21875 C 321.378906 264.558594 321.191406 262.917969 320.792969 261.304688 Z M 307.519531 235.1875 L 307.523438 235.179688 L 307.519531 235.195312 Z M 304.953125 258.335938 L 304.851562 258.113281 C 304.855469 257.953125 304.855469 257.789062 304.851562 257.621094 C 304.851562 257.578125 304.84375 257.53125 304.84375 257.484375 C 304.882812 257.773438 304.914062 258.058594 304.957031 258.347656 Z M 304.953125 258.335938 " fill-opacity="1" fill-rule="nonzero"/><path fill="#cacaca" d="M 347.277344 125.425781 L 260.414062 125.425781 C 260.21875 125.421875 260.050781 125.347656 259.914062 125.210938 C 259.777344 125.070312 259.710938 124.902344 259.710938 124.707031 C 259.710938 124.511719 259.777344 124.34375 259.914062 124.203125 C 260.050781 124.0625 260.21875 123.992188 260.414062 123.988281 L 347.277344 123.988281 C 347.472656 123.992188 347.636719 124.0625 347.773438 124.203125 C 347.910156 124.34375 347.980469 124.511719 347.980469 124.707031 C 347.980469 124.902344 347.910156 125.070312 347.773438 125.210938 C 347.636719 125.347656 347.472656 125.421875 347.277344 125.425781 Z M 347.277344 125.425781 " fill-opacity="1" fill-rule="nonzero"/><path fill="#3f3d56" d="M 267.160156 119.746094 C 267.160156 120.035156 267.109375 120.308594 267 120.574219 C 266.894531 120.839844 266.742188 121.074219 266.542969 121.273438 C 266.34375 121.476562 266.117188 121.632812 265.855469 121.742188 C 265.597656 121.851562 265.328125 121.90625 265.046875 121.90625 C 264.769531 121.90625 264.5 121.851562 264.238281 121.742188 C 263.980469 121.632812 263.753906 121.476562 263.554688 121.273438 C 263.355469 121.074219 263.203125 120.839844 263.097656 120.574219 C 262.988281 120.308594 262.9375 120.035156 262.9375 119.746094 C 262.9375 119.460938 262.988281 119.1875 263.097656 118.921875 C 263.203125 118.65625 263.355469 118.421875 263.554688 118.21875 C 263.753906 118.015625 263.980469 117.863281 264.238281 117.75 C 264.5 117.640625 264.769531 117.585938 265.046875 117.585938 C 265.328125 117.585938 265.597656 117.640625 265.855469 117.75 C 266.117188 117.863281 266.34375 118.015625 266.542969 118.21875 C 266.742188 118.421875 266.894531 118.65625 267 118.921875 C 267.109375 119.1875 267.160156 119.460938 267.160156 119.746094 Z M 267.160156 119.746094 " fill-opacity="1" fill-rule="nonzero"/><path fill="#3f3d56" d="M 274.460938 119.746094 C 274.460938 120.035156 274.40625 120.308594 274.300781 120.574219 C 274.191406 120.839844 274.039062 121.074219 273.839844 121.273438 C 273.644531 121.476562 273.414062 121.632812 273.15625 121.742188 C 272.898438 121.851562 272.628906 121.90625 272.347656 121.90625 C 272.066406 121.90625 271.796875 121.851562 271.539062 121.742188 C 271.28125 121.632812 271.050781 121.476562 270.851562 121.273438 C 270.65625 121.074219 270.503906 120.839844 270.394531 120.574219 C 270.289062 120.308594 270.234375 120.035156 270.234375 119.746094 C 270.234375 119.460938 270.289062 119.1875 270.394531 118.921875 C 270.503906 118.65625 270.65625 118.421875 270.851562 118.21875 C 271.050781 118.015625 271.28125 117.863281 271.539062 117.75 C 271.796875 117.640625 272.066406 117.585938 272.347656 117.585938 C 272.628906 117.585938 272.898438 117.640625 273.15625 117.75 C 273.414062 117.863281 273.644531 118.015625 273.839844 118.21875 C 274.039062 118.421875 274.191406 118.65625 274.300781 118.921875 C 274.40625 119.1875 274.460938 119.460938 274.460938 119.746094 Z M 274.460938 119.746094 " fill-opacity="1" fill-rule="nonzero"/><path fill="#3f3d56" d="M 281.757812 119.746094 C 281.757812 120.035156 281.707031 120.308594 281.597656 120.574219 C 281.492188 120.839844 281.339844 121.074219 281.140625 121.273438 C 280.941406 121.476562 280.714844 121.632812 280.453125 121.742188 C 280.195312 121.851562 279.925781 121.90625 279.644531 121.90625 C 279.367188 121.90625 279.097656 121.851562 278.835938 121.742188 C 278.578125 121.632812 278.351562 121.476562 278.152344 121.273438 C 277.953125 121.074219 277.800781 120.839844 277.695312 120.574219 C 277.585938 120.308594 277.535156 120.035156 277.535156 119.746094 C 277.535156 119.460938 277.585938 119.1875 277.695312 118.921875 C 277.800781 118.65625 277.953125 118.421875 278.152344 118.21875 C 278.351562 118.015625 278.578125 117.863281 278.835938 117.75 C 279.097656 117.640625 279.367188 117.585938 279.644531 117.585938 C 279.925781 117.585938 280.195312 117.640625 280.453125 117.75 C 280.714844 117.863281 280.941406 118.015625 281.140625 118.21875 C 281.339844 118.421875 281.492188 118.65625 281.597656 118.921875 C 281.707031 119.1875 281.757812 119.460938 281.757812 119.746094 Z M 281.757812 119.746094 " fill-opacity="1" fill-rule="nonzero"/><path fill="#3f3d56" d="M 343.878906 118.421875 L 339.152344 118.421875 C 339.054688 118.421875 338.972656 118.460938 338.902344 118.527344 C 338.835938 118.597656 338.800781 118.683594 338.800781 118.78125 C 338.800781 118.878906 338.835938 118.960938 338.902344 119.03125 C 338.972656 119.101562 339.054688 119.136719 339.152344 119.136719 L 343.878906 119.136719 C 343.976562 119.136719 344.0625 119.101562 344.128906 119.03125 C 344.199219 118.960938 344.230469 118.878906 344.230469 118.78125 C 344.230469 118.683594 344.199219 118.597656 344.128906 118.527344 C 344.0625 118.460938 343.976562 118.421875 343.878906 118.421875 Z M 343.878906 118.421875 " fill-opacity="1" fill-rule="nonzero"/><path fill="#3f3d56" d="M 343.878906 119.765625 L 339.152344 119.765625 C 339.054688 119.769531 338.972656 119.804688 338.902344 119.875 C 338.835938 119.941406 338.800781 120.027344 338.800781 120.125 C 338.800781 120.222656 338.835938 120.304688 338.902344 120.375 C 338.972656 120.445312 339.054688 120.480469 339.152344 120.480469 L 343.878906 120.480469 C 343.976562 120.480469 344.0625 120.445312 344.128906 120.375 C 344.199219 120.304688 344.230469 120.222656 344.230469 120.125 C 344.230469 120.027344 344.199219 119.941406 344.128906 119.875 C 344.0625 119.804688 343.976562 119.769531 343.878906 119.765625 Z M 343.878906 119.765625 " fill-opacity="1" fill-rule="nonzero"/><path fill="#3f3d56" d="M 343.878906 121.109375 L 339.152344 121.109375 C 339.054688 121.109375 338.972656 121.144531 338.902344 121.214844 C 338.835938 121.285156 338.800781 121.367188 338.800781 121.464844 C 338.800781 121.5625 338.835938 121.648438 338.902344 121.71875 C 338.972656 121.785156 339.054688 121.824219 339.152344 121.824219 L 343.878906 121.824219 C 343.976562 121.824219 344.0625 121.785156 344.128906 121.71875 C 344.199219 121.648438 344.230469 121.5625 344.230469 121.464844 C 344.230469 121.367188 344.199219 121.285156 344.128906 121.214844 C 344.0625 121.144531 343.976562 121.109375 343.878906 121.109375 Z M 343.878906 121.109375 " fill-opacity="1" fill-rule="nonzero"/><path fill="#e6e6e6" d="M 202.949219 191.40625 L 152.589844 191.40625 C 152.230469 191.40625 151.890625 191.476562 151.558594 191.613281 C 151.230469 191.75 150.941406 191.941406 150.691406 192.195312 C 150.4375 192.449219 150.246094 192.738281 150.109375 193.066406 C 149.972656 193.398438 149.90625 193.738281 149.90625 194.097656 L 149.90625 273.667969 L 205.636719 273.667969 L 205.636719 194.097656 C 205.636719 193.738281 205.570312 193.394531 205.433594 193.066406 C 205.296875 192.738281 205.101562 192.445312 204.851562 192.195312 C 204.597656 191.941406 204.308594 191.746094 203.976562 191.609375 C 203.648438 191.472656 203.304688 191.40625 202.949219 191.40625 Z M 177.9375 236.617188 C 177.546875 236.617188 177.160156 236.578125 176.78125 236.5 C 176.398438 236.421875 176.027344 236.308594 175.667969 236.160156 C 175.304688 236.007812 174.964844 235.824219 174.640625 235.609375 C 174.316406 235.390625 174.015625 235.144531 173.742188 234.867188 C 173.464844 234.59375 173.21875 234.292969 173 233.96875 C 172.785156 233.644531 172.601562 233.300781 172.449219 232.941406 C 172.300781 232.582031 172.1875 232.210938 172.109375 231.828125 C 172.03125 231.445312 171.992188 231.058594 171.992188 230.671875 L 171.992188 221.492188 C 171.992188 221.101562 172.027344 220.714844 172.105469 220.332031 C 172.179688 219.949219 172.292969 219.578125 172.445312 219.214844 C 172.59375 218.855469 172.777344 218.511719 172.992188 218.1875 C 173.210938 217.863281 173.457031 217.5625 173.734375 217.285156 C 174.007812 217.011719 174.308594 216.761719 174.632812 216.546875 C 174.957031 216.328125 175.300781 216.144531 175.660156 215.996094 C 176.023438 215.847656 176.394531 215.734375 176.777344 215.660156 C 177.160156 215.582031 177.546875 215.542969 177.9375 215.542969 C 178.328125 215.542969 178.714844 215.582031 179.097656 215.660156 C 179.480469 215.734375 179.851562 215.847656 180.214844 215.996094 C 180.574219 216.144531 180.917969 216.328125 181.242188 216.546875 C 181.566406 216.761719 181.867188 217.011719 182.140625 217.285156 C 182.417969 217.5625 182.664062 217.863281 182.882812 218.1875 C 183.097656 218.511719 183.28125 218.855469 183.429688 219.214844 C 183.582031 219.578125 183.695312 219.949219 183.769531 220.332031 C 183.847656 220.714844 183.882812 221.101562 183.882812 221.492188 L 183.882812 230.671875 C 183.882812 231.058594 183.84375 231.445312 183.765625 231.828125 C 183.6875 232.210938 183.574219 232.582031 183.425781 232.941406 C 183.273438 233.300781 183.089844 233.644531 182.875 233.96875 C 182.65625 234.292969 182.410156 234.59375 182.132812 234.867188 C 181.859375 235.144531 181.558594 235.390625 181.234375 235.609375 C 180.910156 235.824219 180.570312 236.007812 180.207031 236.160156 C 179.847656 236.308594 179.476562 236.421875 179.097656 236.5 C 178.714844 236.578125 178.328125 236.617188 177.9375 236.617188 Z M 177.9375 236.617188 " fill-opacity="1" fill-rule="nonzero"/><path fill="#cccccc" d="M 149.730469 271.125 L 149.730469 278.800781 C 149.734375 279 149.769531 279.191406 149.847656 279.375 C 149.921875 279.558594 150.03125 279.722656 150.171875 279.863281 C 150.3125 280.003906 150.476562 280.113281 150.660156 280.1875 C 150.84375 280.265625 151.035156 280.300781 151.234375 280.300781 L 204.308594 280.300781 C 204.507812 280.300781 204.699219 280.261719 204.882812 280.1875 C 205.066406 280.109375 205.230469 280 205.367188 279.859375 C 205.507812 279.71875 205.617188 279.558594 205.695312 279.375 C 205.769531 279.191406 205.808594 279 205.8125 278.800781 L 205.8125 271.125 Z M 149.730469 271.125 " fill-opacity="1" fill-rule="nonzero"/><g clip-path="url(#f3bcb2c26d)"><path fill="#e6e6e6" d="M 286.339844 67.222656 L 71.070312 67.222656 C 70.613281 67.222656 70.160156 67.269531 69.710938 67.359375 C 69.261719 67.449219 68.824219 67.582031 68.402344 67.757812 C 67.980469 67.933594 67.578125 68.148438 67.195312 68.402344 C 66.816406 68.65625 66.464844 68.945312 66.140625 69.269531 C 65.816406 69.59375 65.527344 69.945312 65.273438 70.328125 C 65.019531 70.707031 64.804688 71.109375 64.628906 71.53125 C 64.453125 71.957031 64.320312 72.390625 64.230469 72.839844 C 64.140625 73.289062 64.09375 73.742188 64.09375 74.203125 L 64.09375 219.5 C 64.09375 219.960938 64.140625 220.414062 64.226562 220.863281 C 64.316406 221.3125 64.449219 221.746094 64.625 222.171875 C 64.800781 222.59375 65.015625 222.996094 65.269531 223.378906 C 65.527344 223.757812 65.816406 224.109375 66.140625 224.433594 C 66.460938 224.757812 66.816406 225.046875 67.195312 225.300781 C 67.578125 225.554688 67.976562 225.773438 68.402344 225.945312 C 68.824219 226.121094 69.261719 226.253906 69.710938 226.34375 C 70.160156 226.433594 70.613281 226.480469 71.070312 226.480469 L 286.339844 226.480469 C 286.796875 226.480469 287.25 226.433594 287.699219 226.34375 C 288.148438 226.253906 288.585938 226.121094 289.007812 225.945312 C 289.433594 225.773438 289.832031 225.554688 290.214844 225.300781 C 290.59375 225.046875 290.949219 224.757812 291.269531 224.433594 C 291.59375 224.109375 291.882812 223.757812 292.140625 223.378906 C 292.394531 222.996094 292.609375 222.59375 292.785156 222.171875 C 292.960938 221.746094 293.09375 221.3125 293.183594 220.863281 C 293.269531 220.414062 293.316406 219.960938 293.316406 219.5 L 293.316406 74.203125 C 293.316406 73.742188 293.269531 73.289062 293.179688 72.839844 C 293.089844 72.390625 292.957031 71.957031 292.78125 71.53125 C 292.605469 71.109375 292.390625 70.707031 292.136719 70.328125 C 291.882812 69.945312 291.59375 69.59375 291.269531 69.269531 C 290.945312 68.945312 290.59375 68.65625 290.214844 68.402344 C 289.832031 68.148438 289.429688 67.933594 289.007812 67.757812 C 288.585938 67.582031 288.148438 67.449219 287.699219 67.359375 C 287.25 67.269531 286.796875 67.222656 286.339844 67.222656 Z M 286.339844 67.222656 " fill-opacity="1" fill-rule="nonzero"/></g><path fill="#ffffff" d="M 284.542969 72.261719 L 72.867188 72.261719 C 72.375 72.265625 71.898438 72.359375 71.441406 72.550781 C 70.984375 72.742188 70.578125 73.011719 70.230469 73.363281 C 69.878906 73.710938 69.609375 74.117188 69.421875 74.574219 C 69.230469 75.03125 69.136719 75.507812 69.136719 76.003906 L 69.136719 217.703125 C 69.136719 218.195312 69.234375 218.671875 69.421875 219.128906 C 69.613281 219.585938 69.882812 219.988281 70.230469 220.339844 C 70.582031 220.6875 70.984375 220.957031 71.441406 221.148438 C 71.898438 221.339844 72.375 221.433594 72.867188 221.433594 L 284.542969 221.433594 C 285.039062 221.433594 285.511719 221.339844 285.96875 221.148438 C 286.425781 220.957031 286.828125 220.6875 287.179688 220.339844 C 287.527344 219.988281 287.800781 219.585938 287.988281 219.128906 C 288.179688 218.671875 288.273438 218.195312 288.273438 217.703125 L 288.273438 76.003906 C 288.273438 75.507812 288.179688 75.03125 287.992188 74.574219 C 287.800781 74.117188 287.53125 73.710938 287.183594 73.363281 C 286.832031 73.011719 286.429688 72.742188 285.972656 72.550781 C 285.515625 72.359375 285.039062 72.265625 284.542969 72.261719 Z M 284.542969 72.261719 " fill-opacity="1" fill-rule="nonzero"/><path fill="#4fc3f7" d="M 288.273438 76.003906 L 288.273438 217.703125 C 288.273438 218.195312 288.179688 218.671875 287.988281 219.128906 C 287.800781 219.585938 287.527344 219.988281 287.179688 220.339844 C 286.828125 220.6875 286.425781 220.957031 285.96875 221.148438 C 285.511719 221.339844 285.039062 221.433594 284.542969 221.433594 L 209.902344 221.433594 C 201.574219 213.707031 194.914062 204.746094 189.917969 194.539062 C 189.59375 193.890625 189.28125 193.230469 188.988281 192.5625 C 184.441406 182.691406 181.75 172.339844 180.921875 161.5 C 180.867188 160.84375 180.820312 160.183594 180.789062 159.515625 C 180.6875 157.808594 180.640625 156.078125 180.640625 154.339844 C 180.625 142.675781 182.769531 131.421875 187.070312 120.578125 C 187.328125 119.914062 187.601562 119.253906 187.878906 118.59375 C 190.007812 113.59375 192.558594 108.816406 195.535156 104.269531 C 198.507812 99.722656 201.863281 95.46875 205.59375 91.515625 C 209.320312 87.5625 213.371094 83.96875 217.738281 80.734375 C 222.105469 77.5 226.722656 74.675781 231.589844 72.261719 L 284.542969 72.261719 C 285.039062 72.265625 285.515625 72.359375 285.972656 72.550781 C 286.429688 72.742188 286.832031 73.011719 287.183594 73.363281 C 287.53125 73.710938 287.800781 74.117188 287.992188 74.574219 C 288.179688 75.03125 288.273438 75.507812 288.273438 76.003906 Z M 288.273438 76.003906 " fill-opacity="1" fill-rule="nonzero"/><path fill="#cacaca" d="M 273.902344 91.785156 L 75.839844 91.785156 C 75.625 91.78125 75.445312 91.703125 75.292969 91.550781 C 75.144531 91.394531 75.070312 91.210938 75.070312 91 C 75.070312 90.785156 75.144531 90.601562 75.292969 90.445312 C 75.445312 90.292969 75.625 90.214844 75.839844 90.210938 L 273.902344 90.210938 C 274.117188 90.214844 274.296875 90.292969 274.449219 90.445312 C 274.597656 90.601562 274.671875 90.785156 274.671875 91 C 274.671875 91.210938 274.597656 91.394531 274.449219 91.550781 C 274.296875 91.703125 274.117188 91.78125 273.902344 91.785156 Z M 273.902344 91.785156 " fill-opacity="1" fill-rule="nonzero"/><path fill="#3f3d56" d="M 93.9375 81.46875 C 93.9375 81.777344 93.910156 82.085938 93.847656 82.390625 C 93.789062 82.691406 93.703125 82.988281 93.585938 83.273438 C 93.46875 83.558594 93.328125 83.832031 93.160156 84.089844 C 92.992188 84.347656 92.800781 84.585938 92.585938 84.804688 C 92.371094 85.023438 92.136719 85.21875 91.886719 85.390625 C 91.632812 85.566406 91.367188 85.710938 91.089844 85.828125 C 90.808594 85.945312 90.519531 86.035156 90.222656 86.097656 C 89.925781 86.15625 89.625 86.1875 89.320312 86.1875 C 89.019531 86.1875 88.71875 86.15625 88.421875 86.097656 C 88.125 86.035156 87.835938 85.945312 87.554688 85.828125 C 87.273438 85.710938 87.007812 85.566406 86.757812 85.390625 C 86.503906 85.21875 86.273438 85.023438 86.058594 84.804688 C 85.84375 84.585938 85.652344 84.347656 85.484375 84.089844 C 85.316406 83.832031 85.171875 83.558594 85.058594 83.273438 C 84.941406 82.988281 84.855469 82.691406 84.792969 82.390625 C 84.734375 82.085938 84.707031 81.777344 84.707031 81.46875 C 84.707031 81.15625 84.734375 80.851562 84.792969 80.546875 C 84.855469 80.242188 84.941406 79.949219 85.058594 79.660156 C 85.171875 79.375 85.316406 79.105469 85.484375 78.847656 C 85.652344 78.589844 85.84375 78.351562 86.058594 78.128906 C 86.273438 77.910156 86.503906 77.714844 86.757812 77.542969 C 87.007812 77.371094 87.273438 77.226562 87.554688 77.109375 C 87.835938 76.988281 88.125 76.898438 88.421875 76.839844 C 88.71875 76.777344 89.019531 76.75 89.320312 76.75 C 89.625 76.75 89.925781 76.777344 90.222656 76.839844 C 90.519531 76.898438 90.808594 76.988281 91.089844 77.109375 C 91.367188 77.226562 91.632812 77.371094 91.886719 77.542969 C 92.136719 77.714844 92.371094 77.910156 92.585938 78.128906 C 92.800781 78.351562 92.992188 78.589844 93.160156 78.847656 C 93.328125 79.105469 93.46875 79.375 93.585938 79.660156 C 93.703125 79.949219 93.789062 80.242188 93.847656 80.546875 C 93.910156 80.851562 93.9375 81.15625 93.9375 81.46875 Z M 93.9375 81.46875 " fill-opacity="1" fill-rule="nonzero"/><path fill="#3f3d56" d="M 109.882812 81.46875 C 109.882812 81.777344 109.855469 82.085938 109.796875 82.390625 C 109.738281 82.691406 109.648438 82.988281 109.53125 83.273438 C 109.417969 83.558594 109.273438 83.832031 109.105469 84.089844 C 108.9375 84.347656 108.746094 84.585938 108.53125 84.804688 C 108.316406 85.023438 108.085938 85.21875 107.832031 85.390625 C 107.582031 85.566406 107.316406 85.710938 107.035156 85.828125 C 106.753906 85.945312 106.464844 86.035156 106.167969 86.097656 C 105.871094 86.15625 105.570312 86.1875 105.269531 86.1875 C 104.964844 86.1875 104.664062 86.15625 104.367188 86.097656 C 104.070312 86.035156 103.78125 85.945312 103.5 85.828125 C 103.222656 85.710938 102.957031 85.566406 102.703125 85.390625 C 102.453125 85.21875 102.21875 85.023438 102.003906 84.804688 C 101.789062 84.585938 101.597656 84.347656 101.429688 84.089844 C 101.261719 83.832031 101.121094 83.558594 101.003906 83.273438 C 100.886719 82.988281 100.800781 82.691406 100.742188 82.390625 C 100.683594 82.085938 100.652344 81.777344 100.652344 81.46875 C 100.652344 81.15625 100.683594 80.851562 100.742188 80.546875 C 100.800781 80.242188 100.886719 79.949219 101.003906 79.660156 C 101.121094 79.375 101.261719 79.105469 101.429688 78.847656 C 101.597656 78.589844 101.789062 78.351562 102.003906 78.128906 C 102.21875 77.910156 102.453125 77.714844 102.703125 77.542969 C 102.957031 77.371094 103.222656 77.226562 103.5 77.109375 C 103.78125 76.988281 104.070312 76.898438 104.367188 76.839844 C 104.664062 76.777344 104.964844 76.75 105.269531 76.75 C 105.570312 76.75 105.871094 76.777344 106.167969 76.839844 C 106.464844 76.898438 106.753906 76.988281 107.035156 77.109375 C 107.316406 77.226562 107.582031 77.371094 107.832031 77.542969 C 108.085938 77.714844 108.316406 77.910156 108.53125 78.128906 C 108.746094 78.351562 108.9375 78.589844 109.105469 78.847656 C 109.273438 79.105469 109.417969 79.375 109.53125 79.660156 C 109.648438 79.949219 109.738281 80.242188 109.796875 80.546875 C 109.855469 80.851562 109.882812 81.15625 109.882812 81.46875 Z M 109.882812 81.46875 " fill-opacity="1" fill-rule="nonzero"/><path fill="#3f3d56" d="M 125.832031 81.46875 C 125.832031 81.777344 125.800781 82.085938 125.742188 82.390625 C 125.683594 82.691406 125.59375 82.988281 125.480469 83.273438 C 125.363281 83.558594 125.222656 83.832031 125.050781 84.089844 C 124.882812 84.347656 124.691406 84.585938 124.476562 84.804688 C 124.265625 85.023438 124.03125 85.21875 123.777344 85.390625 C 123.527344 85.566406 123.261719 85.710938 122.980469 85.828125 C 122.699219 85.945312 122.410156 86.035156 122.113281 86.097656 C 121.816406 86.15625 121.515625 86.1875 121.214844 86.1875 C 120.910156 86.1875 120.609375 86.15625 120.3125 86.097656 C 120.015625 86.035156 119.726562 85.945312 119.449219 85.828125 C 119.167969 85.710938 118.902344 85.566406 118.648438 85.390625 C 118.398438 85.21875 118.164062 85.023438 117.949219 84.804688 C 117.734375 84.585938 117.542969 84.347656 117.375 84.089844 C 117.207031 83.832031 117.066406 83.558594 116.949219 83.273438 C 116.832031 82.988281 116.746094 82.691406 116.6875 82.390625 C 116.628906 82.085938 116.597656 81.777344 116.597656 81.46875 C 116.597656 81.15625 116.628906 80.851562 116.6875 80.546875 C 116.746094 80.242188 116.832031 79.949219 116.949219 79.660156 C 117.066406 79.375 117.207031 79.105469 117.375 78.847656 C 117.542969 78.589844 117.734375 78.351562 117.949219 78.128906 C 118.164062 77.910156 118.398438 77.714844 118.648438 77.542969 C 118.902344 77.371094 119.167969 77.226562 119.449219 77.109375 C 119.726562 76.988281 120.015625 76.898438 120.3125 76.839844 C 120.609375 76.777344 120.910156 76.75 121.214844 76.75 C 121.515625 76.75 121.816406 76.777344 122.113281 76.839844 C 122.410156 76.898438 122.699219 76.988281 122.980469 77.109375 C 123.261719 77.226562 123.527344 77.371094 123.777344 77.542969 C 124.03125 77.714844 124.265625 77.910156 124.476562 78.128906 C 124.691406 78.351562 124.882812 78.589844 125.050781 78.847656 C 125.222656 79.105469 125.363281 79.375 125.480469 79.660156 C 125.59375 79.949219 125.683594 80.242188 125.742188 80.546875 C 125.800781 80.851562 125.832031 81.15625 125.832031 81.46875 Z M 125.832031 81.46875 " fill-opacity="1" fill-rule="nonzero"/><path fill="#3f3d56" d="M 264.300781 77.917969 L 252.972656 77.917969 C 252.742188 77.921875 252.542969 78.007812 252.378906 78.175781 C 252.214844 78.34375 252.132812 78.542969 252.132812 78.777344 C 252.132812 79.007812 252.214844 79.210938 252.378906 79.375 C 252.542969 79.542969 252.742188 79.628906 252.972656 79.632812 L 264.300781 79.632812 C 264.535156 79.628906 264.734375 79.542969 264.898438 79.375 C 265.0625 79.210938 265.144531 79.007812 265.144531 78.777344 C 265.144531 78.542969 265.0625 78.34375 264.898438 78.175781 C 264.734375 78.007812 264.535156 77.921875 264.300781 77.917969 Z M 264.300781 77.917969 " fill-opacity="1" fill-rule="nonzero"/><path fill="#3f3d56" d="M 264.300781 81.136719 L 252.972656 81.136719 C 252.742188 81.144531 252.542969 81.226562 252.378906 81.394531 C 252.214844 81.5625 252.132812 81.761719 252.132812 81.996094 C 252.132812 82.230469 252.214844 82.429688 252.378906 82.597656 C 252.542969 82.761719 252.742188 82.847656 252.972656 82.855469 L 264.300781 82.855469 C 264.535156 82.847656 264.734375 82.761719 264.898438 82.597656 C 265.0625 82.429688 265.140625 82.230469 265.140625 81.996094 C 265.140625 81.761719 265.0625 81.5625 264.898438 81.394531 C 264.734375 81.226562 264.535156 81.144531 264.300781 81.136719 Z M 264.300781 81.136719 " fill-opacity="1" fill-rule="nonzero"/><path fill="#3f3d56" d="M 264.300781 84.355469 L 252.972656 84.355469 C 252.742188 84.359375 252.542969 84.445312 252.378906 84.609375 C 252.214844 84.777344 252.132812 84.976562 252.132812 85.210938 C 252.132812 85.445312 252.214844 85.644531 252.378906 85.8125 C 252.542969 85.980469 252.742188 86.066406 252.972656 86.070312 L 264.300781 86.070312 C 264.535156 86.066406 264.734375 85.980469 264.898438 85.8125 C 265.0625 85.644531 265.144531 85.445312 265.144531 85.210938 C 265.144531 84.976562 265.0625 84.777344 264.898438 84.609375 C 264.734375 84.445312 264.535156 84.359375 264.300781 84.355469 Z M 264.300781 84.355469 " fill-opacity="1" fill-rule="nonzero"/><path fill="#4fc3f7" d="M 108.785156 137.8125 L 136.484375 137.8125 C 136.734375 137.8125 136.976562 137.859375 137.207031 137.957031 C 137.441406 138.050781 137.644531 138.1875 137.820312 138.367188 C 138 138.542969 138.136719 138.75 138.230469 138.980469 C 138.328125 139.210938 138.375 139.453125 138.375 139.703125 L 138.375 142.652344 C 138.375 142.90625 138.328125 143.144531 138.230469 143.378906 C 138.136719 143.609375 138 143.816406 137.820312 143.992188 C 137.644531 144.167969 137.441406 144.304688 137.207031 144.402344 C 136.976562 144.5 136.734375 144.546875 136.484375 144.546875 L 108.785156 144.546875 C 108.535156 144.546875 108.292969 144.5 108.0625 144.402344 C 107.832031 144.304688 107.625 144.167969 107.449219 143.992188 C 107.273438 143.816406 107.136719 143.609375 107.039062 143.378906 C 106.941406 143.144531 106.894531 142.90625 106.894531 142.652344 L 106.894531 139.703125 C 106.894531 139.453125 106.941406 139.210938 107.039062 138.980469 C 107.136719 138.75 107.273438 138.542969 107.449219 138.367188 C 107.625 138.1875 107.832031 138.050781 108.0625 137.957031 C 108.292969 137.859375 108.535156 137.8125 108.785156 137.8125 Z M 108.785156 137.8125 " fill-opacity="1" fill-rule="nonzero"/><path fill="#e6e6e6" d="M 92.796875 151.28125 L 152.472656 151.28125 C 152.722656 151.28125 152.964844 151.328125 153.195312 151.421875 C 153.429688 151.519531 153.632812 151.65625 153.808594 151.832031 C 153.988281 152.011719 154.125 152.214844 154.21875 152.449219 C 154.316406 152.679688 154.363281 152.921875 154.363281 153.171875 L 154.363281 156.121094 C 154.363281 156.371094 154.316406 156.613281 154.21875 156.84375 C 154.125 157.078125 153.988281 157.28125 153.808594 157.457031 C 153.632812 157.636719 153.429688 157.773438 153.195312 157.867188 C 152.964844 157.964844 152.722656 158.011719 152.472656 158.011719 L 92.796875 158.011719 C 92.546875 158.011719 92.304688 157.964844 92.074219 157.867188 C 91.84375 157.773438 91.636719 157.636719 91.460938 157.457031 C 91.285156 157.28125 91.148438 157.078125 91.050781 156.84375 C 90.953125 156.613281 90.90625 156.371094 90.90625 156.121094 L 90.90625 153.171875 C 90.90625 152.921875 90.953125 152.679688 91.050781 152.449219 C 91.148438 152.214844 91.285156 152.011719 91.460938 151.832031 C 91.636719 151.65625 91.84375 151.519531 92.074219 151.421875 C 92.304688 151.328125 92.546875 151.28125 92.796875 151.28125 Z M 92.796875 151.28125 " fill-opacity="1" fill-rule="nonzero"/><path fill="#e6e6e6" d="M 92.796875 164.746094 L 152.472656 164.746094 C 152.722656 164.746094 152.964844 164.792969 153.195312 164.890625 C 153.429688 164.984375 153.632812 165.121094 153.808594 165.300781 C 153.988281 165.476562 154.125 165.683594 154.21875 165.914062 C 154.316406 166.144531 154.363281 166.386719 154.363281 166.636719 L 154.363281 169.585938 C 154.363281 169.839844 154.316406 170.078125 154.21875 170.3125 C 154.125 170.542969 153.988281 170.746094 153.808594 170.925781 C 153.632812 171.101562 153.429688 171.238281 153.195312 171.335938 C 152.964844 171.433594 152.722656 171.480469 152.472656 171.480469 L 92.796875 171.480469 C 92.546875 171.480469 92.304688 171.433594 92.074219 171.335938 C 91.84375 171.238281 91.636719 171.101562 91.460938 170.925781 C 91.285156 170.746094 91.148438 170.542969 91.050781 170.3125 C 90.953125 170.078125 90.90625 169.839844 90.90625 169.585938 L 90.90625 166.636719 C 90.90625 166.386719 90.953125 166.144531 91.050781 165.914062 C 91.148438 165.683594 91.285156 165.476562 91.460938 165.300781 C 91.636719 165.121094 91.84375 164.984375 92.074219 164.890625 C 92.304688 164.792969 92.546875 164.746094 92.796875 164.746094 Z M 92.796875 164.746094 " fill-opacity="1" fill-rule="nonzero"/><path fill="#4fc3f7" d="M 96.085938 213.308594 C 96.089844 216.105469 95.605469 218.8125 94.628906 221.433594 L 72.867188 221.433594 C 72.375 221.433594 71.898438 221.339844 71.441406 221.148438 C 70.984375 220.957031 70.582031 220.6875 70.230469 220.339844 C 69.882812 219.988281 69.613281 219.585938 69.421875 219.128906 C 69.234375 218.671875 69.136719 218.195312 69.136719 217.703125 L 69.136719 190.328125 C 70.355469 190.128906 71.582031 190.03125 72.816406 190.03125 C 73.578125 190.03125 74.335938 190.070312 75.09375 190.144531 C 75.855469 190.21875 76.605469 190.332031 77.355469 190.480469 C 78.101562 190.628906 78.839844 190.8125 79.570312 191.035156 C 80.300781 191.253906 81.015625 191.511719 81.71875 191.804688 C 82.425781 192.097656 83.113281 192.421875 83.785156 192.78125 C 84.457031 193.140625 85.109375 193.53125 85.742188 193.953125 C 86.378906 194.378906 86.988281 194.832031 87.578125 195.316406 C 88.167969 195.800781 88.730469 196.3125 89.269531 196.851562 C 89.808594 197.390625 90.320312 197.953125 90.804688 198.542969 C 91.289062 199.132812 91.742188 199.742188 92.164062 200.378906 C 92.589844 201.011719 92.980469 201.664062 93.339844 202.335938 C 93.699219 203.007812 94.023438 203.699219 94.316406 204.402344 C 94.605469 205.105469 94.863281 205.824219 95.085938 206.554688 C 95.304688 207.28125 95.492188 208.019531 95.640625 208.769531 C 95.789062 209.515625 95.898438 210.269531 95.972656 211.027344 C 96.050781 211.789062 96.085938 212.546875 96.085938 213.308594 Z M 96.085938 213.308594 " fill-opacity="1" fill-rule="nonzero"/><path fill="#000000" d="M 288.46875 120.578125 L 288.46875 118.59375 L 255.179688 118.59375 L 255.179688 95.570312 L 253.203125 95.570312 L 253.203125 118.59375 L 215.054688 118.59375 L 215.054688 95.570312 L 213.074219 95.570312 L 213.074219 118.59375 L 187.878906 118.59375 C 187.601562 119.253906 187.328125 119.914062 187.070312 120.578125 L 213.074219 120.578125 L 213.074219 159.515625 L 180.789062 159.515625 C 180.820312 160.183594 180.867188 160.84375 180.921875 161.5 L 213.074219 161.5 L 213.074219 192.5625 L 188.988281 192.5625 C 189.28125 193.230469 189.59375 193.890625 189.917969 194.539062 L 213.074219 194.539062 L 213.074219 220.648438 L 215.054688 220.648438 L 215.054688 194.539062 L 253.203125 194.539062 L 253.203125 220.648438 L 255.179688 220.648438 L 255.179688 194.539062 L 288.46875 194.539062 L 288.46875 192.5625 L 255.179688 192.5625 C 255.179688 191.542969 255.230469 190.53125 255.332031 189.519531 C 255.429688 188.503906 255.578125 187.5 255.777344 186.503906 C 255.976562 185.503906 256.222656 184.519531 256.519531 183.546875 C 256.8125 182.574219 257.15625 181.617188 257.546875 180.675781 C 257.933594 179.734375 258.367188 178.816406 258.847656 177.921875 C 259.328125 177.023438 259.851562 176.152344 260.414062 175.304688 C 260.980469 174.460938 261.585938 173.644531 262.230469 172.859375 C 262.875 172.070312 263.558594 171.320312 264.277344 170.597656 C 264.996094 169.878906 265.75 169.199219 266.535156 168.550781 C 267.320312 167.90625 268.136719 167.300781 268.980469 166.738281 C 269.828125 166.171875 270.699219 165.648438 271.597656 165.167969 C 272.492188 164.691406 273.410156 164.253906 274.351562 163.867188 C 275.289062 163.476562 276.246094 163.132812 277.21875 162.839844 C 278.191406 162.542969 279.179688 162.296875 280.175781 162.097656 C 281.171875 161.898438 282.179688 161.75 283.191406 161.652344 C 284.203125 161.550781 285.21875 161.5 286.234375 161.5 L 288.46875 161.5 L 288.46875 159.515625 L 255.179688 159.515625 L 255.179688 120.578125 Z M 253.203125 192.5625 L 215.054688 192.5625 L 215.054688 161.5 L 253.203125 161.5 Z M 253.203125 159.515625 L 215.054688 159.515625 L 215.054688 158.738281 C 215.054688 157.488281 215.113281 156.242188 215.238281 155 C 215.359375 153.753906 215.542969 152.519531 215.785156 151.296875 C 216.03125 150.070312 216.332031 148.859375 216.695312 147.664062 C 217.058594 146.464844 217.480469 145.292969 217.957031 144.136719 C 218.433594 142.980469 218.96875 141.851562 219.558594 140.75 C 220.148438 139.648438 220.789062 138.578125 221.480469 137.539062 C 222.175781 136.5 222.921875 135.496094 223.710938 134.53125 C 224.503906 133.566406 225.34375 132.640625 226.226562 131.757812 C 227.109375 130.871094 228.035156 130.035156 229 129.242188 C 229.96875 128.449219 230.96875 127.707031 232.007812 127.011719 C 233.046875 126.316406 234.117188 125.675781 235.21875 125.085938 C 236.320312 124.496094 237.449219 123.960938 238.605469 123.484375 C 239.757812 123.007812 240.933594 122.585938 242.128906 122.222656 C 243.324219 121.859375 244.535156 121.558594 245.761719 121.3125 C 246.984375 121.070312 248.21875 120.886719 249.464844 120.761719 C 250.707031 120.640625 251.953125 120.578125 253.203125 120.578125 Z M 253.203125 159.515625 " fill-opacity="0.2" fill-rule="nonzero"/><path fill="#2f2e41" d="M 261.667969 206.734375 C 261.234375 206.753906 260.832031 206.648438 260.464844 206.414062 C 260.09375 206.179688 259.828125 205.863281 259.660156 205.460938 C 259.492188 205.058594 259.453125 204.648438 259.546875 204.222656 C 259.640625 203.796875 259.84375 203.433594 260.164062 203.140625 C 260.21875 202.933594 260.253906 202.78125 260.308594 202.574219 C 260.289062 202.53125 260.269531 202.484375 260.25 202.4375 C 258.34375 197.886719 251.875 197.917969 249.980469 202.476562 C 248.300781 206.523438 246.164062 210.574219 245.636719 214.855469 C 245.402344 216.757812 245.5 218.648438 245.925781 220.519531 C 243.953125 216.214844 242.460938 211.75 241.449219 207.128906 C 240.4375 202.503906 239.925781 197.824219 239.921875 193.089844 C 239.917969 190.710938 240.050781 188.339844 240.316406 185.976562 C 240.535156 184.042969 240.835938 182.121094 241.222656 180.210938 C 242.28125 175.035156 243.929688 170.054688 246.167969 165.269531 C 248.40625 160.484375 251.175781 156.027344 254.46875 151.898438 C 256.066406 151.027344 257.492188 149.9375 258.753906 148.628906 C 260.015625 147.320312 261.050781 145.851562 261.863281 144.226562 C 262.453125 143.050781 262.863281 141.816406 263.097656 140.519531 C 262.734375 140.566406 262.371094 140.597656 262.011719 140.621094 C 261.898438 140.625 261.78125 140.632812 261.667969 140.636719 L 261.625 140.640625 C 261.222656 140.65625 260.84375 140.566406 260.496094 140.359375 C 260.148438 140.15625 259.882812 139.875 259.699219 139.511719 C 259.515625 139.152344 259.449219 138.769531 259.492188 138.367188 C 259.535156 137.964844 259.683594 137.605469 259.9375 137.292969 C 260.09375 137.101562 260.25 136.910156 260.40625 136.71875 C 260.640625 136.425781 260.882812 136.136719 261.121094 135.839844 C 261.144531 135.8125 261.171875 135.78125 261.195312 135.75 C 261.46875 135.414062 261.738281 135.085938 262.011719 134.75 C 261.507812 133.96875 260.859375 133.339844 260.0625 132.867188 C 257.34375 131.273438 253.589844 132.375 251.625 134.835938 C 249.65625 137.296875 249.285156 140.75 249.96875 143.824219 C 250.550781 146.457031 251.828125 148.871094 253.261719 151.164062 C 253.113281 151.355469 252.960938 151.539062 252.8125 151.726562 C 250.109375 155.203125 247.769531 158.910156 245.796875 162.84375 C 246.28125 158.382812 245.726562 154.054688 244.128906 149.863281 C 242.53125 146.007812 239.539062 142.761719 236.902344 139.433594 C 233.734375 135.429688 227.242188 137.175781 226.683594 142.25 C 226.679688 142.296875 226.675781 142.347656 226.667969 142.394531 C 227.0625 142.617188 227.445312 142.851562 227.820312 143.101562 C 228.300781 143.421875 228.648438 143.851562 228.867188 144.390625 C 229.082031 144.929688 229.128906 145.480469 229.003906 146.046875 C 228.875 146.613281 228.601562 147.09375 228.179688 147.492188 C 227.757812 147.886719 227.257812 148.128906 226.683594 148.21875 L 226.628906 148.226562 C 226.769531 149.640625 227.011719 151.035156 227.367188 152.410156 C 227.875 154.328125 228.574219 156.175781 229.464844 157.949219 C 230.355469 159.722656 231.417969 161.382812 232.652344 162.9375 C 233.886719 164.492188 235.265625 165.902344 236.792969 167.171875 C 238.316406 168.441406 239.957031 169.539062 241.707031 170.46875 C 241.9375 170.585938 242.164062 170.707031 242.394531 170.816406 C 240.40625 176.453125 239.175781 182.246094 238.699219 188.203125 C 238.429688 191.707031 238.445312 195.210938 238.746094 198.714844 L 238.730469 198.589844 C 238.351562 196.644531 237.660156 194.820312 236.652344 193.117188 C 235.644531 191.410156 234.378906 189.925781 232.859375 188.65625 C 228.339844 184.945312 221.957031 183.578125 217.085938 180.59375 C 214.738281 179.160156 211.730469 181.015625 212.140625 183.734375 C 212.148438 183.777344 212.15625 183.824219 212.160156 183.867188 C 212.886719 184.160156 213.59375 184.503906 214.277344 184.886719 C 214.671875 185.109375 215.054688 185.34375 215.429688 185.589844 C 215.910156 185.914062 216.261719 186.34375 216.476562 186.878906 C 216.691406 187.417969 216.738281 187.972656 216.613281 188.535156 C 216.488281 189.101562 216.210938 189.585938 215.789062 189.980469 C 215.367188 190.378906 214.867188 190.621094 214.296875 190.707031 L 214.238281 190.71875 C 214.195312 190.722656 214.160156 190.730469 214.121094 190.734375 C 215.371094 193.722656 217.085938 196.410156 219.269531 198.800781 C 220.609375 200.238281 222.078125 201.523438 223.679688 202.660156 C 225.28125 203.796875 226.980469 204.761719 228.777344 205.550781 C 230.578125 206.339844 232.433594 206.9375 234.355469 207.347656 C 236.273438 207.753906 238.21875 207.964844 240.179688 207.980469 L 240.1875 207.980469 C 241.253906 212.625 242.789062 217.109375 244.792969 221.433594 L 261.253906 221.433594 C 261.3125 221.25 261.367188 221.0625 261.421875 220.878906 C 259.890625 220.976562 258.371094 220.886719 256.867188 220.609375 C 258.085938 219.109375 259.308594 217.597656 260.527344 216.097656 C 260.554688 216.070312 260.582031 216.042969 260.605469 216.011719 C 261.226562 215.242188 261.851562 214.480469 262.46875 213.714844 C 262.503906 211.351562 262.234375 209.027344 261.667969 206.734375 Z M 242.816406 169.644531 L 242.824219 169.632812 L 242.816406 169.65625 Z M 239.171875 202.519531 L 239.03125 202.203125 C 239.035156 201.972656 239.035156 201.742188 239.03125 201.503906 C 239.03125 201.441406 239.019531 201.375 239.019531 201.308594 C 239.070312 201.71875 239.117188 202.125 239.175781 202.53125 Z M 239.171875 202.519531 " fill-opacity="1" fill-rule="nonzero"/><path fill="#e6e6e6" d="M 115.089844 168.226562 L 115.089844 146.097656 C 115.089844 145.253906 115.007812 144.421875 114.84375 143.597656 C 114.679688 142.773438 114.4375 141.972656 114.113281 141.195312 C 113.792969 140.417969 113.398438 139.679688 112.929688 138.980469 C 112.464844 138.28125 111.933594 137.636719 111.339844 137.039062 C 110.742188 136.445312 110.097656 135.914062 109.398438 135.449219 C 108.699219 134.980469 107.960938 134.585938 107.183594 134.265625 C 106.40625 133.941406 105.605469 133.699219 104.78125 133.535156 C 103.957031 133.371094 103.125 133.289062 102.285156 133.289062 L 55.414062 133.289062 C 54.574219 133.289062 53.738281 133.371094 52.914062 133.535156 C 52.089844 133.699219 51.289062 133.941406 50.511719 134.265625 C 49.738281 134.585938 49 134.980469 48.300781 135.449219 C 47.601562 135.914062 46.953125 136.445312 46.359375 137.039062 C 45.765625 137.636719 45.234375 138.28125 44.765625 138.980469 C 44.300781 139.679688 43.90625 140.417969 43.585938 141.195312 C 43.261719 141.972656 43.019531 142.773438 42.855469 143.597656 C 42.691406 144.421875 42.609375 145.253906 42.609375 146.097656 L 42.609375 267.496094 C 42.609375 268.335938 42.691406 269.167969 42.855469 269.992188 C 43.019531 270.820312 43.261719 271.621094 43.585938 272.394531 C 43.90625 273.171875 44.300781 273.910156 44.765625 274.609375 C 45.234375 275.308594 45.765625 275.957031 46.359375 276.550781 C 46.953125 277.144531 47.601562 277.675781 48.300781 278.144531 C 49 278.613281 49.738281 279.007812 50.511719 279.328125 C 51.289062 279.648438 52.089844 279.890625 52.914062 280.054688 C 53.738281 280.21875 54.574219 280.300781 55.414062 280.300781 L 102.285156 280.300781 C 103.125 280.300781 103.957031 280.21875 104.78125 280.054688 C 105.605469 279.890625 106.40625 279.648438 107.183594 279.328125 C 107.960938 279.007812 108.699219 278.613281 109.398438 278.144531 C 110.097656 277.675781 110.742188 277.144531 111.339844 276.550781 C 111.933594 275.957031 112.464844 275.308594 112.929688 274.609375 C 113.398438 273.910156 113.792969 273.171875 114.113281 272.398438 C 114.4375 271.621094 114.679688 270.820312 114.84375 269.992188 C 115.007812 269.167969 115.089844 268.335938 115.089844 267.496094 L 115.089844 183.976562 C 115.3125 183.976562 115.503906 183.898438 115.660156 183.738281 C 115.816406 183.582031 115.894531 183.390625 115.894531 183.167969 L 115.894531 169.03125 C 115.894531 168.808594 115.816406 168.621094 115.660156 168.460938 C 115.503906 168.304688 115.3125 168.226562 115.089844 168.226562 Z M 115.089844 168.226562 " fill-opacity="1" fill-rule="nonzero"/><path fill="#ffffff" d="M 112.363281 146.183594 L 112.363281 267.40625 C 112.363281 268.03125 112.304688 268.648438 112.183594 269.261719 C 112.0625 269.871094 111.882812 270.464844 111.644531 271.042969 C 111.410156 271.621094 111.117188 272.167969 110.773438 272.6875 C 110.429688 273.207031 110.039062 273.6875 109.601562 274.132812 C 109.160156 274.574219 108.683594 274.972656 108.167969 275.320312 C 107.652344 275.671875 107.109375 275.96875 106.535156 276.210938 C 105.960938 276.453125 105.367188 276.640625 104.757812 276.765625 C 104.148438 276.894531 103.53125 276.960938 102.90625 276.96875 C 102.871094 276.96875 102.835938 276.972656 102.800781 276.972656 L 55.703125 276.972656 C 55.074219 276.972656 54.453125 276.910156 53.839844 276.789062 C 53.222656 276.664062 52.625 276.484375 52.046875 276.242188 C 51.464844 276.003906 50.914062 275.707031 50.390625 275.359375 C 49.871094 275.011719 49.386719 274.613281 48.941406 274.171875 C 48.5 273.726562 48.101562 273.242188 47.753906 272.722656 C 47.40625 272.199219 47.109375 271.648438 46.871094 271.066406 C 46.628906 270.488281 46.449219 269.890625 46.328125 269.273438 C 46.203125 268.65625 46.144531 268.035156 46.144531 267.40625 L 46.144531 146.183594 C 46.144531 145.558594 46.203125 144.933594 46.328125 144.320312 C 46.449219 143.703125 46.628906 143.105469 46.871094 142.523438 C 47.109375 141.945312 47.40625 141.394531 47.753906 140.871094 C 48.101562 140.351562 48.5 139.867188 48.941406 139.421875 C 49.386719 138.980469 49.871094 138.582031 50.390625 138.234375 C 50.914062 137.882812 51.464844 137.589844 52.046875 137.347656 C 52.625 137.109375 53.222656 136.929688 53.839844 136.804688 C 54.453125 136.683594 55.074219 136.621094 55.703125 136.621094 L 61.417969 136.621094 C 61.277344 136.964844 61.183594 137.324219 61.128906 137.691406 C 61.078125 138.0625 61.070312 138.429688 61.109375 138.800781 C 61.144531 139.171875 61.226562 139.53125 61.355469 139.882812 C 61.480469 140.234375 61.648438 140.5625 61.855469 140.871094 C 62.0625 141.183594 62.304688 141.460938 62.582031 141.710938 C 62.859375 141.960938 63.160156 142.171875 63.492188 142.347656 C 63.820312 142.523438 64.164062 142.65625 64.527344 142.746094 C 64.886719 142.835938 65.253906 142.882812 65.625 142.882812 L 92.480469 142.882812 C 92.851562 142.882812 93.21875 142.835938 93.578125 142.746094 C 93.9375 142.65625 94.285156 142.519531 94.613281 142.34375 C 94.941406 142.171875 95.242188 141.957031 95.519531 141.707031 C 95.792969 141.457031 96.035156 141.179688 96.242188 140.871094 C 96.449219 140.558594 96.617188 140.230469 96.746094 139.878906 C 96.871094 139.53125 96.953125 139.171875 96.992188 138.800781 C 97.03125 138.429688 97.023438 138.058594 96.96875 137.691406 C 96.917969 137.324219 96.820312 136.964844 96.679688 136.621094 L 102.800781 136.621094 C 103.429688 136.621094 104.050781 136.683594 104.667969 136.804688 C 105.285156 136.929688 105.882812 137.109375 106.460938 137.347656 C 107.042969 137.589844 107.59375 137.882812 108.113281 138.234375 C 108.636719 138.582031 109.117188 138.980469 109.5625 139.421875 C 110.007812 139.867188 110.402344 140.351562 110.753906 140.871094 C 111.101562 141.394531 111.394531 141.945312 111.636719 142.523438 C 111.875 143.105469 112.058594 143.703125 112.179688 144.320312 C 112.300781 144.933594 112.363281 145.558594 112.363281 146.183594 Z M 112.363281 146.183594 " fill-opacity="1" fill-rule="nonzero"/><path fill="#f2f2f2" d="M 103.023438 273.230469 C 103.023438 274.484375 102.984375 275.730469 102.90625 276.96875 C 102.871094 276.96875 102.835938 276.972656 102.800781 276.972656 L 55.703125 276.972656 C 55.074219 276.972656 54.453125 276.910156 53.839844 276.789062 C 53.222656 276.664062 52.625 276.484375 52.046875 276.242188 C 51.464844 276.003906 50.914062 275.707031 50.390625 275.359375 C 49.871094 275.011719 49.386719 274.613281 48.941406 274.171875 C 48.5 273.726562 48.101562 273.242188 47.753906 272.722656 C 47.40625 272.199219 47.109375 271.648438 46.871094 271.066406 C 46.628906 270.488281 46.449219 269.890625 46.328125 269.273438 C 46.203125 268.65625 46.144531 268.035156 46.144531 267.40625 L 46.144531 213.386719 C 48.039062 213.480469 49.925781 213.667969 51.804688 213.941406 C 53.683594 214.21875 55.546875 214.582031 57.390625 215.03125 C 59.234375 215.484375 61.054688 216.023438 62.847656 216.648438 C 64.640625 217.273438 66.398438 217.984375 68.125 218.777344 C 69.851562 219.570312 71.535156 220.441406 73.175781 221.394531 C 74.820312 222.347656 76.414062 223.375 77.957031 224.480469 C 79.503906 225.585938 80.992188 226.761719 82.425781 228.007812 C 83.859375 229.253906 85.226562 230.5625 86.535156 231.941406 C 87.84375 233.316406 89.085938 234.753906 90.257812 236.246094 C 91.429688 237.742188 92.527344 239.289062 93.550781 240.886719 C 94.578125 242.488281 95.523438 244.128906 96.390625 245.820312 C 97.261719 247.507812 98.046875 249.234375 98.75 251 C 99.457031 252.761719 100.074219 254.554688 100.609375 256.378906 C 101.144531 258.203125 101.589844 260.046875 101.949219 261.910156 C 102.304688 263.777344 102.574219 265.652344 102.753906 267.542969 C 102.933594 269.433594 103.023438 271.332031 103.023438 273.230469 Z M 103.023438 273.230469 " fill-opacity="1" fill-rule="nonzero"/><path fill="#e6e6e6" d="M 42.867188 180.605469 C 42.722656 180.605469 42.585938 180.578125 42.453125 180.519531 C 42.316406 180.464844 42.199219 180.386719 42.097656 180.285156 C 41.996094 180.183594 41.917969 180.066406 41.863281 179.929688 C 41.804688 179.796875 41.777344 179.660156 41.777344 179.515625 L 41.777344 172.101562 C 41.777344 171.957031 41.804688 171.816406 41.863281 171.683594 C 41.917969 171.550781 41.996094 171.433594 42.097656 171.332031 C 42.199219 171.226562 42.316406 171.148438 42.453125 171.09375 C 42.585938 171.039062 42.722656 171.011719 42.867188 171.011719 C 43.011719 171.011719 43.152344 171.039062 43.285156 171.09375 C 43.417969 171.148438 43.535156 171.226562 43.640625 171.332031 C 43.742188 171.433594 43.820312 171.550781 43.875 171.683594 C 43.929688 171.816406 43.957031 171.957031 43.957031 172.101562 L 43.957031 179.515625 C 43.957031 179.660156 43.929688 179.796875 43.875 179.929688 C 43.820312 180.066406 43.742188 180.183594 43.640625 180.285156 C 43.535156 180.386719 43.417969 180.464844 43.285156 180.519531 C 43.152344 180.578125 43.011719 180.605469 42.867188 180.605469 Z M 42.867188 180.605469 " fill-opacity="1" fill-rule="nonzero"/><path fill="#4fc3f7" d="M 73.46875 174.6875 L 85.035156 174.6875 C 85.285156 174.6875 85.527344 174.734375 85.761719 174.828125 C 85.992188 174.925781 86.195312 175.0625 86.375 175.238281 C 86.550781 175.417969 86.6875 175.621094 86.785156 175.855469 C 86.878906 176.085938 86.929688 176.328125 86.929688 176.578125 L 86.929688 179.527344 C 86.929688 179.777344 86.878906 180.019531 86.785156 180.25 C 86.6875 180.484375 86.550781 180.6875 86.375 180.863281 C 86.195312 181.042969 85.992188 181.179688 85.761719 181.273438 C 85.527344 181.371094 85.285156 181.417969 85.035156 181.417969 L 73.46875 181.417969 C 73.21875 181.417969 72.976562 181.371094 72.746094 181.273438 C 72.515625 181.179688 72.308594 181.042969 72.132812 180.863281 C 71.953125 180.6875 71.816406 180.484375 71.722656 180.25 C 71.625 180.019531 71.578125 179.777344 71.578125 179.527344 L 71.578125 176.578125 C 71.578125 176.328125 71.625 176.085938 71.722656 175.855469 C 71.816406 175.621094 71.953125 175.417969 72.132812 175.238281 C 72.308594 175.0625 72.515625 174.925781 72.746094 174.828125 C 72.976562 174.734375 73.21875 174.6875 73.46875 174.6875 Z M 73.46875 174.6875 " fill-opacity="1" fill-rule="nonzero"/><path fill="#e6e6e6" d="M 57.480469 188.152344 L 101.023438 188.152344 C 101.273438 188.152344 101.515625 188.199219 101.75 188.296875 C 101.980469 188.394531 102.183594 188.53125 102.363281 188.707031 C 102.539062 188.882812 102.675781 189.089844 102.773438 189.320312 C 102.867188 189.550781 102.917969 189.792969 102.917969 190.042969 L 102.917969 192.992188 C 102.917969 193.246094 102.867188 193.484375 102.773438 193.71875 C 102.675781 193.949219 102.539062 194.15625 102.363281 194.332031 C 102.183594 194.507812 101.980469 194.644531 101.75 194.742188 C 101.515625 194.839844 101.273438 194.886719 101.023438 194.886719 L 57.480469 194.886719 C 57.230469 194.886719 56.988281 194.839844 56.757812 194.742188 C 56.527344 194.644531 56.320312 194.507812 56.144531 194.332031 C 55.96875 194.15625 55.832031 193.949219 55.734375 193.71875 C 55.636719 193.484375 55.589844 193.246094 55.589844 192.992188 L 55.589844 190.042969 C 55.589844 189.792969 55.636719 189.550781 55.734375 189.320312 C 55.832031 189.089844 55.96875 188.882812 56.144531 188.707031 C 56.320312 188.53125 56.527344 188.394531 56.757812 188.296875 C 56.988281 188.199219 57.230469 188.152344 57.480469 188.152344 Z M 57.480469 188.152344 " fill-opacity="1" fill-rule="nonzero"/><path fill="#e6e6e6" d="M 57.480469 201.621094 L 101.023438 201.621094 C 101.273438 201.621094 101.515625 201.667969 101.75 201.761719 C 101.980469 201.859375 102.183594 201.996094 102.363281 202.171875 C 102.539062 202.351562 102.675781 202.554688 102.773438 202.789062 C 102.867188 203.019531 102.917969 203.261719 102.917969 203.511719 L 102.917969 206.460938 C 102.917969 206.710938 102.867188 206.953125 102.773438 207.183594 C 102.675781 207.417969 102.539062 207.621094 102.363281 207.796875 C 102.183594 207.976562 101.980469 208.113281 101.75 208.207031 C 101.515625 208.304688 101.273438 208.351562 101.023438 208.351562 L 57.480469 208.351562 C 57.230469 208.351562 56.988281 208.304688 56.757812 208.207031 C 56.527344 208.113281 56.320312 207.976562 56.144531 207.796875 C 55.96875 207.621094 55.832031 207.417969 55.734375 207.183594 C 55.636719 206.953125 55.589844 206.710938 55.589844 206.460938 L 55.589844 203.511719 C 55.589844 203.261719 55.636719 203.019531 55.734375 202.789062 C 55.832031 202.554688 55.96875 202.351562 56.144531 202.171875 C 56.320312 201.996094 56.527344 201.859375 56.757812 201.761719 C 56.988281 201.667969 57.230469 201.621094 57.480469 201.621094 Z M 57.480469 201.621094 " fill-opacity="1" fill-rule="nonzero"/><path fill="#cccccc" d="M 90.546875 270.074219 C 90.34375 270.082031 90.15625 270.03125 89.980469 269.921875 C 89.808594 269.8125 89.683594 269.664062 89.605469 269.476562 C 89.527344 269.289062 89.507812 269.09375 89.550781 268.894531 C 89.59375 268.695312 89.691406 268.523438 89.84375 268.386719 L 89.910156 268.121094 C 89.898438 268.101562 89.890625 268.078125 89.882812 268.058594 C 89.675781 267.574219 89.355469 267.183594 88.914062 266.894531 C 88.476562 266.605469 87.992188 266.460938 87.46875 266.464844 C 86.941406 266.464844 86.460938 266.613281 86.023438 266.90625 C 85.585938 267.199219 85.265625 267.589844 85.0625 268.074219 C 84.277344 269.972656 83.273438 271.875 83.023438 273.882812 C 82.914062 274.777344 82.960938 275.664062 83.160156 276.542969 C 81.289062 272.457031 80.347656 268.164062 80.34375 263.671875 C 80.34375 262.554688 80.402344 261.441406 80.527344 260.332031 C 80.628906 259.425781 80.773438 258.523438 80.953125 257.628906 C 81.960938 252.699219 84.03125 248.269531 87.167969 244.339844 C 88.703125 243.503906 89.859375 242.304688 90.640625 240.738281 C 90.917969 240.1875 91.109375 239.609375 91.21875 239 C 91.046875 239.023438 90.878906 239.035156 90.707031 239.046875 C 90.65625 239.050781 90.601562 239.054688 90.546875 239.054688 L 90.527344 239.058594 C 90.113281 239.074219 89.8125 238.898438 89.625 238.527344 C 89.4375 238.15625 89.472656 237.808594 89.734375 237.488281 C 89.808594 237.398438 89.882812 237.308594 89.953125 237.21875 C 90.066406 237.078125 90.179688 236.941406 90.289062 236.804688 C 90.304688 236.792969 90.316406 236.777344 90.324219 236.761719 C 90.453125 236.605469 90.582031 236.449219 90.707031 236.292969 C 90.472656 235.925781 90.167969 235.632812 89.792969 235.410156 C 88.519531 234.660156 86.757812 235.179688 85.835938 236.332031 C 84.910156 237.488281 84.734375 239.109375 85.058594 240.550781 C 85.375 241.789062 85.890625 242.9375 86.601562 243.996094 C 86.53125 244.085938 86.460938 244.171875 86.390625 244.261719 C 85.125 245.890625 84.027344 247.628906 83.097656 249.476562 C 83.328125 247.382812 83.066406 245.351562 82.316406 243.382812 C 81.566406 241.578125 80.164062 240.054688 78.925781 238.492188 C 78.589844 238.0625 78.164062 237.761719 77.648438 237.589844 C 77.132812 237.417969 76.613281 237.40625 76.085938 237.550781 C 75.5625 237.695312 75.121094 237.972656 74.765625 238.382812 C 74.410156 238.796875 74.199219 239.273438 74.132812 239.8125 C 74.128906 239.835938 74.125 239.859375 74.125 239.882812 C 74.308594 239.984375 74.488281 240.09375 74.664062 240.210938 C 74.890625 240.363281 75.054688 240.566406 75.15625 240.816406 C 75.257812 241.070312 75.277344 241.328125 75.21875 241.59375 C 75.160156 241.859375 75.03125 242.085938 74.832031 242.273438 C 74.632812 242.457031 74.398438 242.570312 74.132812 242.613281 L 74.105469 242.617188 C 74.171875 243.28125 74.285156 243.933594 74.449219 244.582031 C 74.933594 246.402344 75.761719 248.046875 76.929688 249.519531 C 78.101562 250.996094 79.519531 252.171875 81.179688 253.054688 C 81.289062 253.109375 81.394531 253.167969 81.503906 253.21875 C 80.570312 255.863281 79.992188 258.582031 79.769531 261.378906 C 79.644531 263.023438 79.652344 264.664062 79.792969 266.308594 L 79.78125 266.25 C 79.417969 264.371094 78.5 262.816406 77.027344 261.589844 C 74.910156 259.847656 71.914062 259.207031 69.625 257.808594 C 69.378906 257.648438 69.105469 257.566406 68.8125 257.566406 C 68.515625 257.566406 68.246094 257.644531 67.996094 257.804688 C 67.746094 257.960938 67.558594 258.171875 67.433594 258.441406 C 67.3125 258.707031 67.269531 258.988281 67.304688 259.28125 L 67.316406 259.339844 C 67.65625 259.480469 67.988281 259.640625 68.308594 259.820312 C 68.492188 259.925781 68.671875 260.035156 68.847656 260.152344 C 69.074219 260.300781 69.238281 260.503906 69.339844 260.757812 C 69.441406 261.007812 69.464844 261.269531 69.40625 261.535156 C 69.34375 261.800781 69.21875 262.023438 69.019531 262.210938 C 68.820312 262.398438 68.585938 262.511719 68.316406 262.554688 L 68.289062 262.558594 C 68.269531 262.558594 68.253906 262.5625 68.234375 262.566406 C 68.820312 263.96875 69.628906 265.230469 70.652344 266.351562 C 71.921875 267.714844 73.410156 268.769531 75.113281 269.515625 C 76.820312 270.265625 78.601562 270.644531 80.464844 270.65625 L 80.46875 270.65625 C 80.96875 272.835938 81.6875 274.941406 82.628906 276.972656 L 90.355469 276.972656 C 90.382812 276.886719 90.40625 276.796875 90.429688 276.710938 C 89.714844 276.757812 89 276.714844 88.292969 276.582031 C 88.867188 275.878906 89.441406 275.171875 90.011719 274.46875 C 90.027344 274.453125 90.039062 274.441406 90.050781 274.425781 C 90.339844 274.066406 90.632812 273.710938 90.925781 273.347656 C 90.941406 272.242188 90.8125 271.148438 90.546875 270.074219 Z M 81.703125 252.667969 L 81.707031 252.664062 L 81.703125 252.671875 Z M 79.992188 268.09375 L 79.925781 267.945312 C 79.925781 267.839844 79.925781 267.730469 79.925781 267.621094 C 79.925781 267.589844 79.917969 267.558594 79.917969 267.527344 C 79.945312 267.71875 79.964844 267.910156 79.992188 268.101562 Z M 79.992188 268.09375 " fill-opacity="1" fill-rule="nonzero"/><path fill="#e6e6e6" d="M 42.652344 166.214844 C 42.507812 166.214844 42.367188 166.1875 42.234375 166.128906 C 42.101562 166.074219 41.980469 165.996094 41.878906 165.894531 C 41.777344 165.792969 41.699219 165.675781 41.644531 165.539062 C 41.589844 165.40625 41.5625 165.269531 41.558594 165.125 L 41.558594 157.710938 C 41.558594 157.566406 41.589844 157.425781 41.644531 157.292969 C 41.699219 157.160156 41.777344 157.042969 41.878906 156.9375 C 41.980469 156.835938 42.101562 156.757812 42.234375 156.703125 C 42.367188 156.648438 42.507812 156.621094 42.652344 156.621094 C 42.796875 156.621094 42.933594 156.648438 43.066406 156.703125 C 43.199219 156.757812 43.320312 156.835938 43.421875 156.9375 C 43.523438 157.042969 43.601562 157.160156 43.65625 157.292969 C 43.710938 157.425781 43.742188 157.566406 43.742188 157.710938 L 43.742188 165.125 C 43.738281 165.269531 43.710938 165.40625 43.65625 165.539062 C 43.601562 165.675781 43.523438 165.792969 43.421875 165.894531 C 43.320312 165.996094 43.199219 166.074219 43.066406 166.128906 C 42.933594 166.1875 42.792969 166.214844 42.652344 166.214844 Z M 42.652344 166.214844 " fill-opacity="1" fill-rule="nonzero"/><path fill="#ffffff" d="M 71.644531 137.867188 C 71.644531 137.722656 71.671875 137.585938 71.726562 137.453125 C 71.78125 137.316406 71.859375 137.199219 71.960938 137.097656 C 72.066406 136.996094 72.183594 136.917969 72.316406 136.863281 C 72.449219 136.804688 72.589844 136.777344 72.734375 136.777344 L 80.144531 136.777344 C 80.289062 136.777344 80.429688 136.804688 80.5625 136.859375 C 80.695312 136.917969 80.8125 136.996094 80.914062 137.097656 C 81.019531 137.199219 81.097656 137.316406 81.152344 137.449219 C 81.207031 137.585938 81.234375 137.722656 81.234375 137.867188 C 81.234375 138.011719 81.207031 138.152344 81.152344 138.285156 C 81.097656 138.417969 81.019531 138.535156 80.914062 138.640625 C 80.8125 138.742188 80.695312 138.820312 80.5625 138.875 C 80.429688 138.929688 80.289062 138.957031 80.144531 138.957031 L 72.734375 138.957031 C 72.589844 138.957031 72.449219 138.929688 72.316406 138.875 C 72.183594 138.820312 72.066406 138.742188 71.960938 138.640625 C 71.859375 138.535156 71.78125 138.417969 71.726562 138.285156 C 71.671875 138.152344 71.644531 138.011719 71.644531 137.867188 Z M 71.644531 137.867188 " fill-opacity="1" fill-rule="nonzero"/><path fill="#e6e6e6" d="M 42.867188 193.25 C 42.722656 193.25 42.585938 193.222656 42.453125 193.167969 C 42.316406 193.113281 42.199219 193.035156 42.097656 192.929688 C 41.996094 192.828125 41.917969 192.710938 41.863281 192.578125 C 41.804688 192.445312 41.777344 192.304688 41.777344 192.160156 L 41.777344 184.746094 C 41.777344 184.601562 41.804688 184.464844 41.863281 184.332031 C 41.917969 184.195312 41.996094 184.078125 42.097656 183.976562 C 42.199219 183.875 42.316406 183.796875 42.453125 183.742188 C 42.585938 183.683594 42.722656 183.65625 42.867188 183.65625 C 43.011719 183.65625 43.152344 183.683594 43.285156 183.742188 C 43.417969 183.796875 43.535156 183.875 43.640625 183.976562 C 43.742188 184.078125 43.820312 184.195312 43.875 184.332031 C 43.929688 184.464844 43.957031 184.601562 43.957031 184.746094 L 43.957031 192.160156 C 43.957031 192.304688 43.929688 192.445312 43.875 192.578125 C 43.820312 192.710938 43.742188 192.828125 43.640625 192.929688 C 43.535156 193.035156 43.417969 193.113281 43.285156 193.167969 C 43.152344 193.222656 43.011719 193.25 42.867188 193.25 Z M 42.867188 193.25 " fill-opacity="1" fill-rule="nonzero"/><path fill="#ffffff" d="M 85.375 137.867188 C 85.375 138.011719 85.347656 138.152344 85.292969 138.285156 C 85.238281 138.417969 85.160156 138.539062 85.058594 138.640625 C 84.953125 138.742188 84.835938 138.820312 84.703125 138.875 C 84.570312 138.929688 84.429688 138.960938 84.285156 138.960938 C 84.140625 138.960938 84.003906 138.929688 83.871094 138.875 C 83.734375 138.820312 83.617188 138.742188 83.515625 138.640625 C 83.414062 138.539062 83.335938 138.417969 83.28125 138.285156 C 83.222656 138.152344 83.195312 138.011719 83.195312 137.867188 C 83.195312 137.722656 83.222656 137.585938 83.28125 137.453125 C 83.335938 137.316406 83.414062 137.199219 83.515625 137.097656 C 83.617188 136.996094 83.734375 136.917969 83.871094 136.863281 C 84.003906 136.804688 84.140625 136.777344 84.285156 136.777344 C 84.429688 136.777344 84.570312 136.804688 84.703125 136.863281 C 84.835938 136.917969 84.953125 136.996094 85.058594 137.097656 C 85.160156 137.199219 85.238281 137.316406 85.292969 137.453125 C 85.347656 137.585938 85.375 137.722656 85.375 137.867188 Z M 85.375 137.867188 " fill-opacity="1" fill-rule="nonzero"/><path fill="#cacaca" d="M 374.480469 280.300781 L 0.519531 280.433594 C 0.375 280.433594 0.253906 280.382812 0.152344 280.28125 C 0.0507812 280.179688 0 280.058594 0 279.914062 C 0 279.769531 0.0507812 279.648438 0.152344 279.546875 C 0.253906 279.445312 0.375 279.394531 0.519531 279.394531 L 374.480469 279.261719 C 374.625 279.261719 374.746094 279.3125 374.847656 279.414062 C 374.949219 279.515625 375 279.636719 375 279.78125 C 375 279.925781 374.949219 280.046875 374.847656 280.148438 C 374.746094 280.25 374.625 280.300781 374.480469 280.300781 Z M 374.480469 280.300781 " fill-opacity="1" fill-rule="nonzero"/><path fill="#2f2e41" d="M 159.90625 165.824219 L 157.9375 166.246094 C 157.925781 165.421875 157.824219 164.605469 157.632812 163.804688 C 157.453125 164.792969 157.082031 165.707031 156.527344 166.546875 L 145.242188 168.957031 L 134.414062 157.523438 C 134.394531 151.808594 137.570312 147.464844 143.261719 147.464844 C 143.605469 147.464844 143.957031 147.480469 144.320312 147.511719 C 145.078125 147.386719 145.847656 147.332031 146.617188 147.351562 C 147.390625 147.371094 148.152344 147.464844 148.90625 147.632812 C 149.660156 147.800781 150.390625 148.035156 151.101562 148.34375 C 151.808594 148.652344 152.480469 149.023438 153.117188 149.460938 C 153.753906 149.898438 154.34375 150.394531 154.882812 150.941406 C 155.425781 151.492188 155.910156 152.089844 156.335938 152.734375 C 156.761719 153.378906 157.125 154.058594 157.421875 154.769531 C 157.714844 155.484375 157.941406 156.21875 158.097656 156.976562 C 162.128906 160.945312 160.667969 163.28125 159.90625 165.824219 Z M 159.90625 165.824219 " fill-opacity="1" fill-rule="nonzero"/><path fill="#ffb6b6" d="M 165.453125 299.53125 L 169.542969 299.53125 L 171.492188 283.742188 L 165.453125 283.742188 Z M 165.453125 299.53125 " fill-opacity="1" fill-rule="nonzero"/><g clip-path="url(#c67ca7d160)"><path fill="#2f2e41" d="M 164.4375 297.511719 L 170.90625 297.125 L 170.90625 299.898438 L 177.058594 304.144531 C 177.367188 304.359375 177.585938 304.648438 177.710938 305.007812 C 177.832031 305.363281 177.839844 305.722656 177.726562 306.085938 C 177.613281 306.449219 177.402344 306.742188 177.097656 306.964844 C 176.792969 307.191406 176.453125 307.300781 176.074219 307.300781 L 168.371094 307.300781 L 167.042969 304.558594 L 166.527344 307.300781 L 163.621094 307.300781 Z M 164.4375 297.511719 " fill-opacity="1" fill-rule="nonzero"/></g><path fill="#ffb6b6" d="M 117.511719 295.074219 L 121.070312 297.09375 L 130.550781 284.324219 L 125.300781 281.34375 Z M 117.511719 295.074219 " fill-opacity="1" fill-rule="nonzero"/><g clip-path="url(#62f0ea85b8)"><path fill="#2f2e41" d="M 117.625 292.816406 L 123.441406 295.675781 L 122.074219 298.085938 L 125.324219 304.816406 C 125.492188 305.160156 125.539062 305.515625 125.46875 305.886719 C 125.398438 306.261719 125.226562 306.574219 124.949219 306.835938 C 124.675781 307.09375 124.347656 307.246094 123.972656 307.289062 C 123.59375 307.335938 123.242188 307.265625 122.914062 307.078125 L 116.214844 303.277344 L 116.414062 300.234375 L 114.609375 302.363281 L 112.082031 300.929688 Z M 117.625 292.816406 " fill-opacity="1" fill-rule="nonzero"/></g><path fill="#ffb6b6" d="M 180.578125 168.589844 C 180.316406 168.628906 180.0625 168.695312 179.8125 168.789062 C 179.566406 168.882812 179.332031 169 179.109375 169.148438 C 178.886719 169.292969 178.683594 169.460938 178.5 169.648438 C 178.316406 169.839844 178.152344 170.046875 178.015625 170.273438 C 177.875 170.5 177.761719 170.734375 177.675781 170.984375 C 177.585938 171.238281 177.527344 171.492188 177.496094 171.757812 C 177.46875 172.019531 177.464844 172.28125 177.492188 172.546875 C 177.519531 172.808594 177.574219 173.066406 177.65625 173.320312 L 171.394531 178.742188 L 173.761719 183.351562 L 182.496094 175.570312 C 182.910156 175.402344 183.28125 175.164062 183.605469 174.863281 C 183.933594 174.558594 184.195312 174.207031 184.390625 173.804688 C 184.589844 173.40625 184.707031 172.984375 184.75 172.539062 C 184.792969 172.09375 184.753906 171.660156 184.636719 171.226562 C 184.519531 170.796875 184.328125 170.402344 184.066406 170.042969 C 183.800781 169.683594 183.484375 169.382812 183.109375 169.136719 C 182.734375 168.894531 182.328125 168.726562 181.894531 168.632812 C 181.457031 168.539062 181.019531 168.523438 180.578125 168.589844 Z M 180.578125 168.589844 " fill-opacity="1" fill-rule="nonzero"/><path fill="#2f2e41" d="M 174.273438 187.234375 C 172.183594 190.398438 167.503906 193.453125 160.554688 196.164062 C 159.742188 196.488281 158.945312 196.460938 158.15625 196.085938 C 155.535156 194.890625 153.855469 190.453125 153.695312 190.023438 L 148.617188 183.171875 C 148.527344 183.070312 146.152344 180.375 146.425781 177.726562 C 146.488281 177.164062 146.664062 176.640625 146.957031 176.15625 C 147.246094 175.671875 147.625 175.269531 148.09375 174.953125 C 151.9375 172.101562 160.550781 182 161.671875 183.316406 L 167.292969 179.890625 L 171.390625 178.0625 L 174.695312 174.035156 L 179.355469 178.796875 L 175.164062 185.464844 C 174.941406 186.089844 174.644531 186.679688 174.273438 187.234375 Z M 174.273438 187.234375 " fill-opacity="1" fill-rule="nonzero"/><path fill="#2f2e41" d="M 159.667969 199.375 C 159.667969 199.375 171.699219 218.542969 169.519531 220.726562 C 167.339844 222.90625 163.949219 223.476562 163.949219 223.476562 L 156.441406 213.746094 Z M 159.667969 199.375 " fill-opacity="1" fill-rule="nonzero"/><path fill="#2f2e41" d="M 149.03125 173.191406 L 154.699219 177.027344 C 155.355469 177.472656 155.96875 177.964844 156.542969 178.507812 C 157.121094 179.050781 157.648438 179.636719 158.125 180.261719 C 158.605469 180.890625 159.03125 181.554688 159.40625 182.25 C 159.777344 182.949219 160.09375 183.671875 160.347656 184.417969 C 160.601562 185.167969 160.796875 185.929688 160.929688 186.710938 C 161.058594 187.488281 161.128906 188.273438 161.132812 189.066406 C 161.136719 189.855469 161.078125 190.640625 160.953125 191.421875 C 160.832031 192.203125 160.648438 192.96875 160.398438 193.71875 L 158.804688 198.574219 Z M 149.03125 173.191406 " fill-opacity="1" fill-rule="nonzero"/><path fill="#2f2e41" d="M 139 225.523438 L 138.242188 228.164062 L 135.65625 260.015625 L 122.730469 284.109375 L 128.898438 288.515625 L 146.527344 265.597656 L 153.496094 242.839844 L 164.445312 293.21875 L 172.667969 292.628906 L 166.957031 222.785156 L 156.117188 203.125 Z M 139 225.523438 " fill-opacity="1" fill-rule="nonzero"/><path fill="#4fc3f7" d="M 148.066406 174.15625 L 155.957031 180.609375 C 157.734375 182.058594 158.921875 183.890625 159.527344 186.105469 C 159.792969 187.089844 159.921875 188.09375 159.902344 189.113281 L 159.667969 203.125 L 166.90625 222.46875 C 166.90625 222.46875 147.285156 229.882812 144.667969 223.339844 C 142.054688 216.800781 148.066406 174.15625 148.066406 174.15625 Z M 148.066406 174.15625 " fill-opacity="1" fill-rule="nonzero"/><path fill="#2f2e41" d="M 150.425781 226.738281 C 140.625 226.738281 138.238281 226.8125 138.082031 226.78125 L 137.925781 226.746094 L 137.925781 220.851562 L 140.308594 210.257812 C 140.03125 206.96875 139.378906 202.632812 139.4375 198.921875 C 139.652344 185.5 138.992188 172.390625 138.992188 172.390625 L 144.179688 167.601562 L 146.535156 169.136719 L 150.90625 173.507812 C 155.988281 186.015625 160.019531 197.789062 160.046875 198.546875 L 160.363281 211.566406 L 159.058594 216.800781 C 153.140625 220.976562 158.546875 226.738281 150.425781 226.738281 Z M 150.425781 226.738281 " fill-opacity="1" fill-rule="nonzero"/><path fill="#000000" d="M 141.191406 184.082031 L 140 191.519531 L 148.066406 194.847656 Z M 141.191406 184.082031 " fill-opacity="0.2" fill-rule="nonzero"/><path fill="#ffb6b6" d="M 157.214844 158.308594 C 157.214844 158.824219 157.164062 159.339844 157.0625 159.847656 C 156.960938 160.355469 156.8125 160.851562 156.613281 161.328125 C 156.414062 161.808594 156.171875 162.265625 155.882812 162.695312 C 155.59375 163.125 155.265625 163.527344 154.902344 163.890625 C 154.535156 164.257812 154.136719 164.585938 153.703125 164.875 C 153.273438 165.164062 152.816406 165.40625 152.339844 165.605469 C 151.859375 165.804688 151.367188 165.953125 150.855469 166.054688 C 150.347656 166.15625 149.835938 166.207031 149.316406 166.207031 C 148.796875 166.207031 148.285156 166.15625 147.777344 166.054688 C 147.265625 165.953125 146.773438 165.804688 146.292969 165.605469 C 145.816406 165.40625 145.359375 165.164062 144.929688 164.875 C 144.496094 164.585938 144.097656 164.257812 143.730469 163.890625 C 143.367188 163.527344 143.039062 163.125 142.75 162.695312 C 142.460938 162.265625 142.21875 161.808594 142.019531 161.328125 C 141.820312 160.851562 141.671875 160.355469 141.570312 159.847656 C 141.46875 159.339844 141.417969 158.824219 141.417969 158.308594 C 141.417969 157.789062 141.46875 157.273438 141.570312 156.765625 C 141.671875 156.257812 141.820312 155.761719 142.019531 155.285156 C 142.21875 154.804688 142.460938 154.347656 142.75 153.917969 C 143.039062 153.488281 143.367188 153.089844 143.730469 152.722656 C 144.097656 152.355469 144.496094 152.027344 144.929688 151.738281 C 145.359375 151.449219 145.816406 151.207031 146.292969 151.007812 C 146.773438 150.808594 147.265625 150.660156 147.777344 150.558594 C 148.285156 150.457031 148.796875 150.40625 149.316406 150.40625 C 149.835938 150.40625 150.347656 150.457031 150.855469 150.558594 C 151.367188 150.660156 151.859375 150.808594 152.339844 151.007812 C 152.816406 151.207031 153.273438 151.449219 153.703125 151.738281 C 154.136719 152.027344 154.535156 152.355469 154.902344 152.722656 C 155.265625 153.089844 155.59375 153.488281 155.882812 153.917969 C 156.171875 154.347656 156.414062 154.804688 156.613281 155.285156 C 156.8125 155.761719 156.960938 156.257812 157.0625 156.765625 C 157.164062 157.273438 157.214844 157.789062 157.214844 158.308594 Z M 157.214844 158.308594 " fill-opacity="1" fill-rule="nonzero"/><path fill="#000000" d="M 136.082031 198.386719 C 136.605469 198.988281 137.171875 199.546875 137.789062 200.058594 C 138.402344 200.570312 139.054688 201.027344 139.742188 201.429688 C 140.429688 201.832031 141.148438 202.175781 141.894531 202.460938 C 142.640625 202.746094 143.40625 202.964844 144.1875 203.125 C 144.972656 203.28125 145.761719 203.375 146.558594 203.402344 C 147.355469 203.429688 148.152344 203.390625 148.945312 203.289062 C 149.734375 203.183594 150.511719 203.015625 151.277344 202.785156 C 152.042969 202.554688 152.78125 202.261719 153.496094 201.90625 L 155.214844 201.054688 Z M 136.082031 198.386719 " fill-opacity="0.2" fill-rule="nonzero"/><path fill="#ffb6b6" d="M 163.5625 196.566406 C 163.386719 196.371094 163.191406 196.191406 162.976562 196.039062 C 162.761719 195.882812 162.535156 195.753906 162.289062 195.648438 C 162.046875 195.542969 161.796875 195.464844 161.535156 195.417969 C 161.273438 195.367188 161.011719 195.347656 160.746094 195.355469 C 160.484375 195.363281 160.222656 195.398438 159.964844 195.464844 C 159.707031 195.527344 159.460938 195.621094 159.226562 195.742188 C 158.988281 195.859375 158.769531 196.003906 158.5625 196.171875 C 158.359375 196.339844 158.171875 196.527344 158.007812 196.734375 L 150.035156 194.496094 L 147.492188 199.011719 L 158.796875 202.015625 C 159.167969 202.265625 159.566406 202.445312 160 202.550781 C 160.433594 202.65625 160.871094 202.679688 161.3125 202.625 C 161.757812 202.566406 162.175781 202.433594 162.570312 202.226562 C 162.960938 202.015625 163.304688 201.742188 163.601562 201.410156 C 163.894531 201.074219 164.117188 200.695312 164.273438 200.277344 C 164.429688 199.859375 164.503906 199.425781 164.5 198.980469 C 164.5 198.535156 164.414062 198.105469 164.253906 197.6875 C 164.09375 197.273438 163.863281 196.898438 163.5625 196.566406 Z M 163.5625 196.566406 " fill-opacity="1" fill-rule="nonzero"/><path fill="#2f2e41" d="M 144.535156 201.578125 C 140.746094 201.578125 135.617188 199.355469 129.527344 195.046875 C 128.808594 194.550781 128.390625 193.871094 128.269531 193.003906 C 127.820312 190.160156 130.597656 186.3125 130.871094 185.941406 L 133.789062 177.925781 C 133.820312 177.796875 134.761719 174.328125 137.121094 173.09375 C 137.625 172.835938 138.160156 172.695312 138.722656 172.671875 C 139.289062 172.648438 139.832031 172.742188 140.355469 172.957031 C 144.851562 174.59375 141.339844 187.242188 140.859375 188.902344 L 146.816406 191.707031 L 150.597656 194.117188 L 155.78125 194.660156 L 154.371094 201.171875 L 146.503906 201.347656 C 145.859375 201.507812 145.203125 201.582031 144.535156 201.578125 Z M 144.535156 201.578125 " fill-opacity="1" fill-rule="nonzero"/><path fill="#2f2e41" d="M 158.785156 153.109375 C 158.152344 153.933594 155.976562 154.660156 153.390625 155.246094 C 153.394531 155.191406 153.394531 155.140625 153.394531 155.085938 C 153.378906 154.261719 153.277344 153.445312 153.085938 152.644531 C 152.90625 153.632812 152.539062 154.546875 151.980469 155.386719 C 151.9375 155.449219 151.898438 155.511719 151.851562 155.574219 C 149.632812 156.011719 147.285156 156.351562 145.445312 156.578125 C 146.710938 161.132812 151.558594 164.871094 151.035156 167.640625 L 136.832031 170.539062 C 136.917969 169.382812 136.828125 168.238281 136.558594 167.109375 C 136.28125 168.625 135.59375 169.929688 134.5 171.015625 L 133.292969 171.265625 L 132.933594 169.492188 C 129.816406 162.003906 134.160156 154.339844 141.277344 150.378906 C 141.910156 149.425781 142.703125 148.632812 143.652344 147.996094 C 144.601562 147.359375 145.636719 146.925781 146.757812 146.699219 L 148.53125 146.335938 C 149.089844 146.222656 149.652344 146.160156 150.222656 146.160156 C 150.792969 146.15625 151.359375 146.207031 151.921875 146.316406 C 152.480469 146.425781 153.023438 146.585938 153.554688 146.800781 C 154.082031 147.019531 154.585938 147.28125 155.0625 147.597656 C 155.535156 147.914062 155.976562 148.269531 156.382812 148.671875 C 156.789062 149.074219 157.152344 149.511719 157.472656 149.984375 C 157.792969 150.457031 158.0625 150.957031 158.28125 151.480469 C 158.503906 152.007812 158.671875 152.550781 158.785156 153.109375 Z M 158.785156 153.109375 " fill-opacity="1" fill-rule="nonzero"/><g clip-path="url(#bd976864b9)"><path fill="#f2f2f2" d="M 192.714844 296.316406 L 192.925781 291.589844 C 195.148438 290.402344 197.519531 289.800781 200.039062 289.789062 C 196.621094 292.582031 197.050781 297.96875 194.734375 301.726562 C 193.992188 302.910156 193.03125 303.871094 191.851562 304.613281 C 190.671875 305.359375 189.390625 305.808594 188.003906 305.96875 L 185.144531 307.71875 C 184.949219 306.625 184.875 305.523438 184.917969 304.414062 C 184.957031 303.300781 185.121094 302.207031 185.398438 301.132812 C 185.679688 300.058594 186.070312 299.023438 186.574219 298.035156 C 187.078125 297.042969 187.683594 296.117188 188.386719 295.257812 C 189.1875 294.296875 190.097656 293.453125 191.117188 292.722656 C 191.800781 294.527344 192.714844 296.316406 192.714844 296.316406 Z M 192.714844 296.316406 " fill-opacity="1" fill-rule="nonzero"/></g><g clip-path="url(#d4e5ffe85f)"><path fill="#cacaca" d="M 199.648438 307.828125 L 100.078125 307.828125 C 99.933594 307.828125 99.8125 307.777344 99.710938 307.675781 C 99.613281 307.574219 99.5625 307.453125 99.5625 307.308594 C 99.5625 307.167969 99.613281 307.046875 99.710938 306.945312 C 99.8125 306.84375 99.933594 306.792969 100.078125 306.789062 L 199.648438 306.789062 C 199.792969 306.789062 199.914062 306.839844 200.015625 306.941406 C 200.117188 307.042969 200.171875 307.164062 200.171875 307.308594 C 200.171875 307.453125 200.117188 307.578125 200.015625 307.679688 C 199.914062 307.78125 199.792969 307.832031 199.648438 307.828125 Z M 199.648438 307.828125 " fill-opacity="1" fill-rule="nonzero"/></g></svg>