<svg xmlns="http://www.w3.org/2000/svg" xmlns:xlink="http://www.w3.org/1999/xlink" width="500" zoomAndPan="magnify" viewBox="0 0 375 374.999991" height="500" preserveAspectRatio="xMidYMid meet" version="1.0"><defs><filter x="0%" y="0%" width="100%" height="100%" id="0eb7d94ed6"><feColorMatrix values="0 0 0 0 1 0 0 0 0 1 0 0 0 0 1 0 0 0 1 0" color-interpolation-filters="sRGB"/></filter><clipPath id="c5853120ff"><path d="M 95 348 L 96.675781 348 L 96.675781 349.949219 L 95 349.949219 Z M 95 348 " clip-rule="nonzero"/></clipPath><clipPath id="63d53ca7b0"><path d="M 96.523438 348.824219 C 95.851562 349.800781 95.324219 349.648438 95.175781 349.425781 C 95.023438 349.199219 95.101562 348.601562 95.324219 348.449219 C 95.550781 348.300781 96.300781 348.523438 96.300781 348.523438 " clip-rule="nonzero"/></clipPath><mask id="e474ef66aa"><g filter="url(#0eb7d94ed6)"><rect x="-37.5" width="450" fill="#000000" y="-37.499999" height="449.999989" fill-opacity="0.1765"/></g></mask><clipPath id="815cd08536"><path d="M 4 25.078125 L 362 25.078125 L 362 357 L 4 357 Z M 4 25.078125 " clip-rule="nonzero"/></clipPath><clipPath id="fe22dfeca5"><path d="M 292.710938 52.300781 C 258.429688 30.710938 249.246094 29.726562 208.964844 25.261719 C 116.617188 26.359375 41.761719 79.703125 12.785156 167.402344 C 2.871094 197.402344 0.234375 230.953125 11.871094 260.332031 C 27.164062 298.933594 65.175781 325.09375 105.351562 335.628906 C 145.523438 346.203125 189.757812 360.726562 230.953125 355.714844 C 263.078125 351.800781 295.164062 328.3125 319.203125 306.652344 C 335.152344 292.273438 345.105469 272.332031 351.765625 251.917969 C 375.03125 180.867188 355.972656 92.179688 292.710938 52.300781 Z M 292.710938 52.300781 " clip-rule="nonzero"/></clipPath><clipPath id="4e05adcbac"><rect x="0" width="367" y="0" height="367"/></clipPath><clipPath id="6eee17e06d"><path d="M 118 28.46875 L 266 28.46875 L 266 296 L 118 296 Z M 118 28.46875 " clip-rule="nonzero"/></clipPath><clipPath id="aaa116181b"><path d="M 309 226 L 349.632812 226 L 349.632812 296.96875 L 309 296.96875 Z M 309 226 " clip-rule="nonzero"/></clipPath><clipPath id="06b9113c70"><path d="M 25.632812 226 L 66 226 L 66 296.96875 L 25.632812 296.96875 Z M 25.632812 226 " clip-rule="nonzero"/></clipPath><clipPath id="c1a93dbe91"><path d="M 219 281 L 239 281 L 239 296.96875 L 219 296.96875 Z M 219 281 " clip-rule="nonzero"/></clipPath><clipPath id="3ac2ffba4e"><path d="M 25.632812 295 L 349.632812 295 L 349.632812 296.96875 L 25.632812 296.96875 Z M 25.632812 295 " clip-rule="nonzero"/></clipPath></defs><g clip-path="url(#c5853120ff)"><g clip-path="url(#63d53ca7b0)"><path fill="#e1f4fe" d="M 92.175781 345.449219 L 99.675781 345.449219 L 99.675781 352.949219 L 92.175781 352.949219 Z M 92.175781 345.449219 " fill-opacity="1" fill-rule="nonzero"/></g></g><g mask="url(#e474ef66aa)"><g transform="matrix(1, 0, 0, 1, 4, 4)"><g clip-path="url(#4e05adcbac)"><g clip-path="url(#815cd08536)"><g clip-path="url(#fe22dfeca5)"><path fill="#4fc3f7" d="M 0.566406 0.566406 L 366.433594 0.566406 L 366.433594 366.433594 L 0.566406 366.433594 Z M 0.566406 0.566406 " fill-opacity="1" fill-rule="nonzero"/></g></g></g></g></g><g clip-path="url(#6eee17e06d)"><path fill="#3f3d56" d="M 144.675781 28.46875 L 238.730469 28.46875 C 239.597656 28.46875 240.460938 28.511719 241.324219 28.597656 C 242.1875 28.679688 243.046875 28.808594 243.898438 28.976562 C 244.746094 29.144531 245.585938 29.355469 246.417969 29.605469 C 247.25 29.859375 248.0625 30.148438 248.867188 30.480469 C 249.667969 30.8125 250.449219 31.183594 251.214844 31.589844 C 251.980469 32 252.722656 32.445312 253.445312 32.925781 C 254.164062 33.40625 254.863281 33.921875 255.53125 34.472656 C 256.203125 35.019531 256.84375 35.601562 257.457031 36.214844 C 258.070312 36.824219 258.652344 37.46875 259.203125 38.136719 C 259.753906 38.804688 260.269531 39.5 260.753906 40.21875 C 261.234375 40.941406 261.679688 41.683594 262.089844 42.445312 C 262.496094 43.210938 262.867188 43.992188 263.199219 44.792969 C 263.53125 45.59375 263.824219 46.40625 264.074219 47.234375 C 264.328125 48.0625 264.539062 48.902344 264.707031 49.753906 C 264.875 50.601562 265.003906 51.457031 265.089844 52.320312 C 265.171875 53.179688 265.214844 54.046875 265.214844 54.910156 L 265.214844 269.476562 C 265.214844 270.34375 265.171875 271.207031 265.089844 272.070312 C 265.003906 272.929688 264.875 273.785156 264.707031 274.636719 C 264.539062 275.484375 264.328125 276.324219 264.074219 277.152344 C 263.824219 277.980469 263.53125 278.796875 263.199219 279.597656 C 262.867188 280.398438 262.496094 281.179688 262.089844 281.941406 C 261.679688 282.707031 261.234375 283.449219 260.753906 284.167969 C 260.269531 284.886719 259.753906 285.582031 259.203125 286.253906 C 258.652344 286.921875 258.070312 287.5625 257.457031 288.175781 C 256.84375 288.789062 256.203125 289.367188 255.53125 289.917969 C 254.863281 290.46875 254.164062 290.984375 253.445312 291.464844 C 252.722656 291.945312 251.980469 292.390625 251.214844 292.796875 C 250.449219 293.207031 249.667969 293.574219 248.867188 293.90625 C 248.0625 294.238281 247.25 294.53125 246.417969 294.78125 C 245.585938 295.03125 244.746094 295.242188 243.898438 295.410156 C 243.046875 295.582031 242.1875 295.707031 241.324219 295.792969 C 240.460938 295.878906 239.597656 295.921875 238.730469 295.921875 L 144.675781 295.921875 C 143.808594 295.921875 142.941406 295.878906 142.078125 295.792969 C 141.214844 295.707031 140.359375 295.582031 139.507812 295.410156 C 138.65625 295.242188 137.816406 295.03125 136.988281 294.78125 C 136.15625 294.53125 135.339844 294.238281 134.539062 293.90625 C 133.738281 293.574219 132.953125 293.207031 132.191406 292.796875 C 131.425781 292.390625 130.679688 291.945312 129.960938 291.464844 C 129.238281 290.984375 128.542969 290.46875 127.871094 289.917969 C 127.203125 289.367188 126.558594 288.789062 125.945312 288.175781 C 125.332031 287.5625 124.75 286.921875 124.199219 286.253906 C 123.652344 285.582031 123.132812 284.886719 122.652344 284.167969 C 122.171875 283.449219 121.726562 282.707031 121.316406 281.941406 C 120.90625 281.179688 120.535156 280.398438 120.203125 279.597656 C 119.871094 278.796875 119.582031 277.980469 119.328125 277.152344 C 119.078125 276.324219 118.867188 275.484375 118.699219 274.636719 C 118.527344 273.785156 118.402344 272.929688 118.316406 272.070312 C 118.230469 271.207031 118.1875 270.34375 118.1875 269.476562 L 118.1875 54.910156 C 118.1875 54.046875 118.230469 53.179688 118.316406 52.320312 C 118.402344 51.457031 118.527344 50.601562 118.699219 49.753906 C 118.867188 48.902344 119.078125 48.0625 119.328125 47.234375 C 119.582031 46.40625 119.871094 45.59375 120.203125 44.792969 C 120.535156 43.992188 120.90625 43.210938 121.316406 42.445312 C 121.726562 41.683594 122.171875 40.941406 122.652344 40.21875 C 123.132812 39.5 123.652344 38.804688 124.199219 38.136719 C 124.75 37.46875 125.332031 36.824219 125.945312 36.214844 C 126.558594 35.601562 127.203125 35.019531 127.871094 34.472656 C 128.542969 33.921875 129.238281 33.40625 129.960938 32.925781 C 130.679688 32.445312 131.425781 32 132.191406 31.589844 C 132.953125 31.183594 133.738281 30.8125 134.539062 30.480469 C 135.339844 30.148438 136.15625 29.859375 136.988281 29.605469 C 137.816406 29.355469 138.65625 29.144531 139.507812 28.976562 C 140.359375 28.808594 141.214844 28.679688 142.078125 28.597656 C 142.941406 28.511719 143.808594 28.46875 144.675781 28.46875 Z M 144.675781 28.46875 " fill-opacity="1" fill-rule="nonzero"/></g><path fill="#ffffff" d="M 262.734375 54.914062 L 262.734375 269.476562 C 262.734375 270.261719 262.695312 271.046875 262.617188 271.828125 C 262.539062 272.605469 262.421875 273.382812 262.269531 274.152344 C 262.117188 274.921875 261.925781 275.679688 261.695312 276.433594 C 261.464844 277.183594 261.203125 277.921875 260.902344 278.644531 C 260.597656 279.371094 260.261719 280.078125 259.890625 280.769531 C 259.523438 281.460938 259.117188 282.132812 258.679688 282.785156 C 258.246094 283.4375 257.777344 284.070312 257.277344 284.675781 C 256.777344 285.28125 256.25 285.863281 255.695312 286.417969 C 255.140625 286.972656 254.558594 287.5 253.949219 287.996094 C 253.34375 288.492188 252.714844 288.960938 252.058594 289.398438 C 251.40625 289.832031 250.734375 290.238281 250.039062 290.605469 C 249.347656 290.976562 248.636719 291.3125 247.910156 291.613281 C 247.183594 291.914062 246.445312 292.179688 245.695312 292.40625 C 244.941406 292.636719 244.179688 292.824219 243.410156 292.980469 C 242.640625 293.132812 241.863281 293.25 241.082031 293.328125 C 240.296875 293.40625 239.515625 293.445312 238.730469 293.445312 L 144.675781 293.445312 C 143.890625 293.445312 143.105469 293.40625 142.324219 293.328125 C 141.542969 293.25 140.765625 293.132812 139.996094 292.980469 C 139.222656 292.824219 138.460938 292.636719 137.710938 292.40625 C 136.957031 292.179688 136.21875 291.914062 135.492188 291.613281 C 134.769531 291.3125 134.058594 290.976562 133.363281 290.605469 C 132.671875 290.238281 132 289.832031 131.34375 289.398438 C 130.691406 288.960938 130.0625 288.492188 129.453125 287.996094 C 128.847656 287.5 128.265625 286.972656 127.710938 286.417969 C 127.152344 285.863281 126.625 285.28125 126.128906 284.675781 C 125.628906 284.070312 125.160156 283.4375 124.722656 282.785156 C 124.285156 282.132812 123.882812 281.460938 123.511719 280.769531 C 123.140625 280.078125 122.804688 279.371094 122.503906 278.644531 C 122.203125 277.921875 121.9375 277.183594 121.710938 276.433594 C 121.480469 275.679688 121.289062 274.921875 121.136719 274.152344 C 120.980469 273.382812 120.867188 272.605469 120.789062 271.828125 C 120.710938 271.046875 120.671875 270.261719 120.667969 269.476562 L 120.667969 54.914062 C 120.671875 54.128906 120.710938 53.347656 120.789062 52.566406 C 120.867188 51.785156 120.980469 51.007812 121.136719 50.238281 C 121.289062 49.46875 121.480469 48.710938 121.710938 47.960938 C 121.9375 47.207031 122.203125 46.472656 122.503906 45.746094 C 122.804688 45.019531 123.140625 44.3125 123.511719 43.621094 C 123.882812 42.929688 124.285156 42.257812 124.722656 41.605469 C 125.160156 40.953125 125.628906 40.324219 126.128906 39.714844 C 126.625 39.109375 127.152344 38.527344 127.710938 37.972656 C 128.265625 37.417969 128.847656 36.894531 129.453125 36.394531 C 130.0625 35.898438 130.691406 35.429688 131.34375 34.992188 C 132 34.558594 132.671875 34.15625 133.363281 33.785156 C 134.058594 33.414062 134.765625 33.078125 135.492188 32.777344 C 136.21875 32.476562 136.957031 32.214844 137.710938 31.984375 C 138.460938 31.757812 139.222656 31.566406 139.996094 31.410156 C 140.765625 31.257812 141.542969 31.140625 142.324219 31.0625 C 143.105469 30.988281 143.890625 30.949219 144.675781 30.945312 L 156.976562 30.945312 L 156.976562 35.1875 C 156.976562 35.664062 157.023438 36.132812 157.113281 36.601562 C 157.207031 37.066406 157.34375 37.519531 157.527344 37.957031 C 157.710938 38.398438 157.933594 38.816406 158.199219 39.210938 C 158.460938 39.605469 158.761719 39.972656 159.097656 40.308594 C 159.4375 40.644531 159.800781 40.945312 160.199219 41.207031 C 160.59375 41.472656 161.011719 41.695312 161.453125 41.875 C 161.890625 42.058594 162.34375 42.195312 162.8125 42.289062 C 163.28125 42.382812 163.75 42.429688 164.226562 42.429688 L 219.175781 42.429688 C 219.652344 42.429688 220.125 42.382812 220.59375 42.289062 C 221.058594 42.195312 221.511719 42.058594 221.953125 41.875 C 222.394531 41.695312 222.8125 41.472656 223.207031 41.207031 C 223.601562 40.945312 223.96875 40.644531 224.304688 40.308594 C 224.640625 39.972656 224.941406 39.605469 225.207031 39.210938 C 225.472656 38.816406 225.695312 38.398438 225.878906 37.957031 C 226.058594 37.519531 226.199219 37.066406 226.289062 36.601562 C 226.382812 36.132812 226.429688 35.664062 226.429688 35.1875 L 226.429688 30.945312 L 238.730469 30.945312 C 239.515625 30.949219 240.296875 30.988281 241.082031 31.0625 C 241.863281 31.140625 242.640625 31.257812 243.410156 31.410156 C 244.179688 31.566406 244.941406 31.757812 245.695312 31.984375 C 246.445312 32.214844 247.183594 32.476562 247.910156 32.777344 C 248.636719 33.078125 249.347656 33.414062 250.039062 33.785156 C 250.734375 34.15625 251.40625 34.558594 252.058594 34.996094 C 252.714844 35.429688 253.34375 35.898438 253.949219 36.394531 C 254.558594 36.894531 255.140625 37.417969 255.695312 37.972656 C 256.25 38.527344 256.777344 39.109375 257.277344 39.714844 C 257.777344 40.324219 258.246094 40.953125 258.679688 41.605469 C 259.117188 42.257812 259.523438 42.929688 259.894531 43.621094 C 260.261719 44.3125 260.597656 45.019531 260.902344 45.746094 C 261.203125 46.472656 261.464844 47.207031 261.695312 47.960938 C 261.925781 48.710938 262.117188 49.46875 262.269531 50.238281 C 262.421875 51.007812 262.539062 51.785156 262.617188 52.566406 C 262.695312 53.347656 262.734375 54.128906 262.734375 54.914062 Z M 262.734375 54.914062 " fill-opacity="1" fill-rule="nonzero"/><path fill="#3f3d56" d="M 117.511719 82.726562 C 117.273438 82.722656 117.042969 82.679688 116.820312 82.585938 C 116.601562 82.496094 116.40625 82.367188 116.238281 82.195312 C 116.066406 82.027344 115.9375 81.832031 115.847656 81.613281 C 115.753906 81.390625 115.707031 81.164062 115.707031 80.921875 L 115.707031 77.320312 C 115.707031 77.082031 115.753906 76.851562 115.84375 76.632812 C 115.9375 76.410156 116.066406 76.21875 116.238281 76.046875 C 116.40625 75.878906 116.601562 75.75 116.820312 75.65625 C 117.042969 75.566406 117.273438 75.519531 117.511719 75.519531 C 117.75 75.519531 117.980469 75.566406 118.203125 75.65625 C 118.421875 75.75 118.617188 75.878906 118.789062 76.046875 C 118.957031 76.21875 119.085938 76.410156 119.179688 76.632812 C 119.269531 76.851562 119.316406 77.082031 119.316406 77.320312 L 119.316406 80.921875 C 119.316406 81.164062 119.269531 81.390625 119.179688 81.613281 C 119.085938 81.832031 118.957031 82.027344 118.789062 82.195312 C 118.617188 82.367188 118.421875 82.496094 118.203125 82.585938 C 117.980469 82.679688 117.75 82.722656 117.511719 82.726562 Z M 117.511719 82.726562 " fill-opacity="1" fill-rule="nonzero"/><path fill="#3f3d56" d="M 117.511719 101.195312 C 117.273438 101.195312 117.042969 101.148438 116.820312 101.058594 C 116.601562 100.964844 116.40625 100.835938 116.238281 100.667969 C 116.066406 100.496094 115.9375 100.304688 115.847656 100.082031 C 115.753906 99.863281 115.707031 99.632812 115.707031 99.394531 L 115.707031 89.480469 C 115.707031 89.238281 115.753906 89.011719 115.84375 88.789062 C 115.9375 88.570312 116.066406 88.375 116.238281 88.203125 C 116.40625 88.035156 116.601562 87.90625 116.820312 87.816406 C 117.042969 87.722656 117.273438 87.675781 117.511719 87.675781 C 117.75 87.675781 117.980469 87.722656 118.203125 87.816406 C 118.421875 87.90625 118.617188 88.035156 118.789062 88.203125 C 118.957031 88.375 119.085938 88.570312 119.179688 88.789062 C 119.269531 89.011719 119.316406 89.238281 119.316406 89.480469 L 119.316406 99.394531 C 119.316406 99.632812 119.269531 99.863281 119.179688 100.082031 C 119.085938 100.304688 118.957031 100.496094 118.789062 100.667969 C 118.617188 100.835938 118.421875 100.964844 118.203125 101.058594 C 117.980469 101.148438 117.75 101.195312 117.511719 101.195312 Z M 117.511719 101.195312 " fill-opacity="1" fill-rule="nonzero"/><path fill="#3f3d56" d="M 117.511719 116.042969 C 117.273438 116.042969 117.042969 115.996094 116.820312 115.90625 C 116.601562 115.8125 116.40625 115.683594 116.238281 115.515625 C 116.066406 115.347656 115.9375 115.152344 115.847656 114.929688 C 115.753906 114.710938 115.707031 114.480469 115.707031 114.242188 L 115.707031 104.328125 C 115.707031 104.089844 115.753906 103.859375 115.84375 103.636719 C 115.9375 103.417969 116.066406 103.222656 116.238281 103.054688 C 116.40625 102.886719 116.601562 102.753906 116.820312 102.664062 C 117.042969 102.570312 117.273438 102.527344 117.511719 102.527344 C 117.75 102.527344 117.980469 102.570312 118.203125 102.664062 C 118.421875 102.753906 118.617188 102.886719 118.789062 103.054688 C 118.957031 103.222656 119.085938 103.417969 119.179688 103.636719 C 119.269531 103.859375 119.316406 104.089844 119.316406 104.328125 L 119.316406 114.242188 C 119.316406 114.480469 119.269531 114.710938 119.179688 114.929688 C 119.085938 115.152344 118.957031 115.347656 118.789062 115.515625 C 118.617188 115.683594 118.421875 115.8125 118.203125 115.90625 C 117.980469 115.996094 117.75 116.042969 117.511719 116.042969 Z M 117.511719 116.042969 " fill-opacity="1" fill-rule="nonzero"/><path fill="#3f3d56" d="M 265.441406 107.9375 C 265.203125 107.9375 264.972656 107.894531 264.75 107.800781 C 264.53125 107.710938 264.335938 107.578125 264.167969 107.410156 C 263.996094 107.242188 263.867188 107.046875 263.773438 106.828125 C 263.683594 106.605469 263.636719 106.375 263.636719 106.136719 L 263.636719 81.945312 C 263.636719 81.707031 263.683594 81.476562 263.773438 81.253906 C 263.867188 81.035156 263.996094 80.839844 264.164062 80.671875 C 264.335938 80.5 264.53125 80.371094 264.75 80.28125 C 264.972656 80.1875 265.203125 80.144531 265.441406 80.144531 C 265.679688 80.144531 265.910156 80.1875 266.132812 80.28125 C 266.351562 80.371094 266.546875 80.5 266.71875 80.671875 C 266.886719 80.839844 267.015625 81.035156 267.109375 81.253906 C 267.199219 81.476562 267.246094 81.707031 267.246094 81.945312 L 267.246094 106.136719 C 267.246094 106.375 267.199219 106.605469 267.105469 106.828125 C 267.015625 107.046875 266.886719 107.242188 266.714844 107.410156 C 266.546875 107.578125 266.351562 107.710938 266.132812 107.800781 C 265.910156 107.894531 265.679688 107.9375 265.441406 107.9375 Z M 265.441406 107.9375 " fill-opacity="1" fill-rule="nonzero"/><path fill="#ffffff" d="M 195.578125 36.730469 L 181.597656 36.730469 C 181.445312 36.730469 181.304688 36.699219 181.164062 36.644531 C 181.027344 36.585938 180.90625 36.503906 180.800781 36.398438 C 180.691406 36.292969 180.613281 36.171875 180.554688 36.035156 C 180.496094 35.894531 180.46875 35.753906 180.46875 35.605469 C 180.46875 35.453125 180.496094 35.3125 180.554688 35.171875 C 180.613281 35.035156 180.691406 34.914062 180.800781 34.808594 C 180.90625 34.703125 181.027344 34.621094 181.164062 34.5625 C 181.304688 34.507812 181.445312 34.476562 181.597656 34.476562 L 195.578125 34.476562 C 195.726562 34.476562 195.871094 34.507812 196.007812 34.5625 C 196.148438 34.621094 196.269531 34.703125 196.375 34.808594 C 196.480469 34.914062 196.5625 35.035156 196.617188 35.171875 C 196.675781 35.3125 196.703125 35.453125 196.703125 35.605469 C 196.703125 35.753906 196.675781 35.894531 196.617188 36.035156 C 196.5625 36.171875 196.480469 36.292969 196.375 36.398438 C 196.269531 36.503906 196.148438 36.585938 196.007812 36.644531 C 195.871094 36.699219 195.726562 36.730469 195.578125 36.730469 Z M 195.578125 36.730469 " fill-opacity="1" fill-rule="nonzero"/><path fill="#ffffff" d="M 203.695312 35.605469 C 203.695312 35.851562 203.605469 36.066406 203.429688 36.242188 C 203.253906 36.417969 203.042969 36.503906 202.792969 36.503906 C 202.542969 36.503906 202.332031 36.417969 202.15625 36.242188 C 201.980469 36.066406 201.890625 35.851562 201.890625 35.605469 C 201.890625 35.355469 201.980469 35.144531 202.15625 34.964844 C 202.332031 34.789062 202.542969 34.703125 202.792969 34.703125 C 203.042969 34.703125 203.253906 34.789062 203.429688 34.964844 C 203.605469 35.144531 203.695312 35.355469 203.695312 35.605469 Z M 203.695312 35.605469 " fill-opacity="1" fill-rule="nonzero"/><g clip-path="url(#aaa116181b)"><path fill="#f2f2f2" d="M 311.171875 284.671875 C 311.507812 284.683594 311.820312 284.597656 312.101562 284.414062 C 312.386719 284.234375 312.589844 283.984375 312.71875 283.671875 C 312.847656 283.359375 312.871094 283.039062 312.796875 282.710938 C 312.722656 282.382812 312.558594 282.105469 312.308594 281.878906 C 312.269531 281.71875 312.238281 281.605469 312.195312 281.445312 C 312.347656 281.042969 312.558594 280.671875 312.824219 280.332031 C 313.085938 279.996094 313.394531 279.703125 313.746094 279.457031 C 314.097656 279.210938 314.480469 279.019531 314.890625 278.886719 C 315.296875 278.753906 315.71875 278.683594 316.148438 278.675781 C 316.578125 278.664062 317 278.71875 317.414062 278.839844 C 317.824219 278.957031 318.214844 279.132812 318.574219 279.363281 C 318.933594 279.597656 319.253906 279.878906 319.53125 280.207031 C 319.808594 280.535156 320.03125 280.898438 320.199219 281.292969 C 322.148438 285.726562 324.65625 290.308594 323.476562 295.222656 C 331.414062 278.011719 328.457031 256.722656 316.347656 242.183594 C 313.023438 240.394531 310.308594 237.1875 309.574219 233.441406 C 311.21875 233.980469 313.246094 232.632812 312 230.921875 C 311.460938 230.269531 310.914062 229.621094 310.375 228.96875 C 316.53125 222.296875 324.039062 232.617188 317.28125 241.609375 C 319.550781 244.398438 321.511719 247.390625 323.152344 250.589844 C 322.742188 247.140625 323.144531 243.789062 324.351562 240.53125 C 325.5625 237.539062 327.859375 235.003906 329.875 232.40625 C 332.332031 229.242188 337.460938 230.644531 337.832031 234.625 C 335.546875 235.402344 335.28125 238.710938 337.90625 239.136719 C 337.289062 246.558594 332.503906 253.421875 325.851562 256.734375 C 328.414062 263.707031 329.425781 270.890625 328.882812 278.296875 C 329.980469 269.738281 339.152344 267.574219 345.546875 264.117188 C 345.960938 263.84375 346.417969 263.707031 346.914062 263.707031 C 347.410156 263.707031 347.867188 263.84375 348.28125 264.113281 C 348.699219 264.382812 349.003906 264.742188 349.207031 265.199219 C 349.40625 265.652344 349.46875 266.121094 349.386719 266.609375 C 348.5 266.980469 347.660156 267.433594 346.867188 267.96875 C 346.484375 268.230469 346.214844 268.578125 346.054688 269.007812 C 345.894531 269.441406 345.871094 269.878906 345.988281 270.324219 C 346.109375 270.769531 346.34375 271.140625 346.699219 271.4375 C 347.050781 271.734375 347.457031 271.902344 347.917969 271.941406 C 344.757812 279.972656 336.433594 285.425781 327.835938 285.476562 C 327.042969 289.078125 325.882812 292.5625 324.363281 295.921875 L 311.601562 296.042969 C 311.554688 295.902344 311.511719 295.757812 311.46875 295.617188 C 312.65625 295.679688 313.832031 295.597656 314.996094 295.375 C 311.835938 291.707031 309.402344 289.847656 311.171875 284.671875 Z M 311.171875 284.671875 " fill-opacity="1" fill-rule="nonzero"/></g><g clip-path="url(#06b9113c70)"><path fill="#f2f2f2" d="M 64.132812 284.671875 C 63.796875 284.683594 63.484375 284.597656 63.199219 284.414062 C 62.917969 284.234375 62.710938 283.984375 62.585938 283.671875 C 62.457031 283.359375 62.433594 283.039062 62.507812 282.710938 C 62.582031 282.382812 62.742188 282.105469 62.992188 281.878906 C 63.035156 281.71875 63.066406 281.605469 63.109375 281.445312 C 62.953125 281.042969 62.746094 280.671875 62.480469 280.332031 C 62.214844 279.996094 61.910156 279.703125 61.554688 279.457031 C 61.203125 279.210938 60.824219 279.019531 60.414062 278.886719 C 60.007812 278.753906 59.585938 278.683594 59.15625 278.675781 C 58.726562 278.664062 58.304688 278.71875 57.890625 278.839844 C 57.476562 278.957031 57.089844 279.132812 56.730469 279.363281 C 56.367188 279.597656 56.050781 279.878906 55.773438 280.207031 C 55.496094 280.535156 55.273438 280.898438 55.105469 281.292969 C 53.15625 285.726562 50.648438 290.308594 51.828125 295.222656 C 43.890625 278.011719 46.847656 256.722656 58.957031 242.183594 C 62.28125 240.394531 64.996094 237.1875 65.726562 233.441406 C 64.085938 233.980469 62.058594 232.632812 63.304688 230.921875 C 63.84375 230.269531 64.390625 229.621094 64.929688 228.96875 C 58.773438 222.296875 51.265625 232.617188 58.023438 241.609375 C 55.753906 244.398438 53.792969 247.390625 52.152344 250.589844 C 52.558594 247.140625 52.160156 243.789062 50.953125 240.53125 C 49.742188 237.539062 47.445312 235.003906 45.425781 232.40625 C 42.972656 229.242188 37.84375 230.644531 37.472656 234.625 C 39.757812 235.402344 40.023438 238.710938 37.398438 239.136719 C 38.011719 246.558594 42.800781 253.421875 49.453125 256.734375 C 46.890625 263.707031 45.878906 270.890625 46.421875 278.296875 C 45.320312 269.738281 36.148438 267.574219 29.757812 264.117188 C 29.34375 263.84375 28.886719 263.707031 28.390625 263.707031 C 27.894531 263.707031 27.4375 263.84375 27.023438 264.113281 C 26.605469 264.382812 26.296875 264.742188 26.097656 265.199219 C 25.898438 265.652344 25.835938 266.121094 25.917969 266.609375 C 26.804688 266.980469 27.644531 267.433594 28.4375 267.96875 C 28.820312 268.230469 29.089844 268.578125 29.25 269.007812 C 29.410156 269.441406 29.433594 269.878906 29.3125 270.324219 C 29.195312 270.769531 28.960938 271.140625 28.605469 271.4375 C 28.253906 271.734375 27.84375 271.902344 27.386719 271.941406 C 30.546875 279.972656 38.867188 285.425781 47.46875 285.476562 C 48.261719 289.078125 49.421875 292.5625 50.941406 295.921875 L 63.703125 296.042969 C 63.75 295.902344 63.792969 295.757812 63.835938 295.617188 C 62.648438 295.679688 61.472656 295.597656 60.308594 295.375 C 63.46875 291.707031 65.902344 289.847656 64.132812 284.671875 Z M 64.132812 284.671875 " fill-opacity="1" fill-rule="nonzero"/></g><path fill="#e6e6e6" d="M 151.601562 41.558594 L 139.425781 41.558594 C 139.125 41.558594 138.835938 41.503906 138.5625 41.386719 C 138.285156 41.273438 138.042969 41.109375 137.828125 40.898438 C 137.617188 40.6875 137.457031 40.445312 137.339844 40.167969 C 137.226562 39.894531 137.167969 39.605469 137.167969 39.308594 C 137.167969 39.007812 137.226562 38.722656 137.339844 38.445312 C 137.457031 38.171875 137.617188 37.925781 137.828125 37.714844 C 138.042969 37.503906 138.285156 37.34375 138.5625 37.226562 C 138.835938 37.113281 139.125 37.058594 139.425781 37.058594 L 151.601562 37.058594 C 151.902344 37.058594 152.1875 37.113281 152.464844 37.226562 C 152.742188 37.34375 152.984375 37.503906 153.195312 37.714844 C 153.40625 37.925781 153.570312 38.171875 153.683594 38.445312 C 153.800781 38.722656 153.855469 39.007812 153.855469 39.308594 C 153.855469 39.605469 153.800781 39.894531 153.683594 40.167969 C 153.570312 40.445312 153.40625 40.6875 153.195312 40.898438 C 152.984375 41.109375 152.742188 41.273438 152.464844 41.386719 C 152.1875 41.503906 151.902344 41.558594 151.601562 41.558594 Z M 151.601562 41.558594 " fill-opacity="1" fill-rule="nonzero"/><path fill="#e6e6e6" d="M 233.457031 39.308594 C 233.457031 39.578125 233.40625 39.835938 233.304688 40.082031 C 233.203125 40.332031 233.054688 40.550781 232.863281 40.742188 C 232.675781 40.929688 232.453125 41.078125 232.207031 41.179688 C 231.957031 41.28125 231.699219 41.332031 231.429688 41.332031 C 231.160156 41.332031 230.902344 41.28125 230.652344 41.179688 C 230.402344 41.078125 230.183594 40.929688 229.996094 40.742188 C 229.804688 40.550781 229.65625 40.332031 229.554688 40.082031 C 229.453125 39.835938 229.398438 39.578125 229.398438 39.308594 C 229.398438 39.039062 229.453125 38.78125 229.554688 38.53125 C 229.65625 38.285156 229.804688 38.066406 229.996094 37.875 C 230.183594 37.683594 230.402344 37.539062 230.652344 37.4375 C 230.902344 37.332031 231.160156 37.28125 231.429688 37.28125 C 231.699219 37.28125 231.957031 37.332031 232.207031 37.4375 C 232.453125 37.539062 232.675781 37.683594 232.863281 37.875 C 233.054688 38.066406 233.203125 38.285156 233.304688 38.53125 C 233.40625 38.78125 233.457031 39.039062 233.457031 39.308594 Z M 233.457031 39.308594 " fill-opacity="1" fill-rule="nonzero"/><path fill="#e6e6e6" d="M 239.773438 39.308594 C 239.773438 39.578125 239.722656 39.835938 239.617188 40.082031 C 239.515625 40.332031 239.367188 40.550781 239.179688 40.742188 C 238.988281 40.929688 238.769531 41.078125 238.519531 41.179688 C 238.269531 41.28125 238.011719 41.332031 237.742188 41.332031 C 237.472656 41.332031 237.214844 41.28125 236.964844 41.179688 C 236.71875 41.078125 236.5 40.929688 236.308594 40.742188 C 236.117188 40.550781 235.972656 40.332031 235.867188 40.082031 C 235.765625 39.835938 235.714844 39.578125 235.714844 39.308594 C 235.714844 39.039062 235.765625 38.78125 235.867188 38.53125 C 235.972656 38.285156 236.117188 38.066406 236.308594 37.875 C 236.5 37.683594 236.71875 37.539062 236.964844 37.4375 C 237.214844 37.332031 237.472656 37.28125 237.742188 37.28125 C 238.011719 37.28125 238.269531 37.332031 238.519531 37.4375 C 238.769531 37.539062 238.988281 37.683594 239.179688 37.875 C 239.367188 38.066406 239.515625 38.285156 239.617188 38.53125 C 239.722656 38.78125 239.773438 39.039062 239.773438 39.308594 Z M 239.773438 39.308594 " fill-opacity="1" fill-rule="nonzero"/><path fill="#e6e6e6" d="M 246.085938 39.308594 C 246.085938 39.578125 246.035156 39.835938 245.933594 40.082031 C 245.828125 40.332031 245.683594 40.550781 245.492188 40.742188 C 245.300781 40.929688 245.082031 41.078125 244.835938 41.179688 C 244.585938 41.28125 244.328125 41.332031 244.058594 41.332031 C 243.789062 41.332031 243.53125 41.28125 243.28125 41.179688 C 243.03125 41.078125 242.8125 40.929688 242.621094 40.742188 C 242.433594 40.550781 242.285156 40.332031 242.183594 40.082031 C 242.078125 39.835938 242.027344 39.578125 242.027344 39.308594 C 242.027344 39.039062 242.078125 38.78125 242.183594 38.53125 C 242.285156 38.285156 242.433594 38.066406 242.621094 37.875 C 242.8125 37.683594 243.03125 37.539062 243.28125 37.4375 C 243.53125 37.332031 243.789062 37.28125 244.058594 37.28125 C 244.328125 37.28125 244.585938 37.332031 244.835938 37.4375 C 245.082031 37.539062 245.300781 37.683594 245.492188 37.875 C 245.683594 38.066406 245.828125 38.285156 245.933594 38.53125 C 246.035156 38.78125 246.085938 39.039062 246.085938 39.308594 Z M 246.085938 39.308594 " fill-opacity="1" fill-rule="nonzero"/><path fill="#f2f2f2" d="M 230.011719 73.023438 L 153.476562 73.023438 C 153.109375 73.027344 152.746094 73.0625 152.382812 73.132812 C 152.023438 73.207031 151.675781 73.3125 151.335938 73.453125 C 150.996094 73.59375 150.675781 73.765625 150.371094 73.96875 C 150.066406 74.171875 149.78125 74.402344 149.523438 74.664062 C 149.261719 74.921875 149.03125 75.203125 148.828125 75.507812 C 148.625 75.8125 148.449219 76.132812 148.308594 76.472656 C 148.167969 76.8125 148.0625 77.160156 147.992188 77.519531 C 147.917969 77.878906 147.882812 78.242188 147.882812 78.609375 L 147.882812 128.277344 C 147.882812 128.640625 147.917969 129.003906 147.992188 129.363281 C 148.0625 129.722656 148.167969 130.074219 148.308594 130.410156 C 148.449219 130.75 148.625 131.070312 148.828125 131.375 C 149.03125 131.679688 149.261719 131.960938 149.523438 132.222656 C 149.78125 132.480469 150.066406 132.710938 150.371094 132.914062 C 150.675781 133.121094 150.996094 133.292969 151.335938 133.433594 C 151.675781 133.570312 152.023438 133.679688 152.382812 133.75 C 152.746094 133.820312 153.109375 133.859375 153.476562 133.859375 L 230.011719 133.859375 C 230.378906 133.859375 230.742188 133.824219 231.101562 133.75 C 231.460938 133.679688 231.808594 133.574219 232.148438 133.433594 C 232.488281 133.292969 232.8125 133.121094 233.117188 132.917969 C 233.421875 132.710938 233.703125 132.480469 233.964844 132.222656 C 234.222656 131.964844 234.453125 131.679688 234.660156 131.375 C 234.863281 131.070312 235.035156 130.75 235.175781 130.410156 C 235.316406 130.074219 235.421875 129.722656 235.496094 129.363281 C 235.566406 129.003906 235.601562 128.640625 235.601562 128.277344 L 235.601562 78.609375 C 235.601562 78.242188 235.566406 77.878906 235.496094 77.519531 C 235.421875 77.160156 235.316406 76.8125 235.175781 76.472656 C 235.035156 76.132812 234.863281 75.8125 234.660156 75.507812 C 234.453125 75.203125 234.222656 74.921875 233.964844 74.660156 C 233.703125 74.402344 233.421875 74.171875 233.117188 73.96875 C 232.8125 73.761719 232.488281 73.589844 232.148438 73.453125 C 231.808594 73.3125 231.460938 73.203125 231.101562 73.132812 C 230.742188 73.0625 230.378906 73.023438 230.011719 73.023438 Z M 230.011719 73.023438 " fill-opacity="1" fill-rule="nonzero"/><path fill="#3f3d56" d="M 206.050781 94.226562 C 199.128906 106.449219 191.507812 118.21875 183.191406 129.535156 L 171.191406 129.535156 C 179.050781 119.976562 186.917969 110.414062 194.792969 100.851562 C 197.050781 98.101562 199.5 95.214844 202.890625 94.097656 Z M 206.050781 94.226562 " fill-opacity="1" fill-rule="nonzero"/><path fill="#4fc3f7" d="M 190.097656 92.269531 C 188.847656 93.574219 187.648438 94.925781 186.519531 96.335938 C 184.03125 99.324219 181.582031 102.339844 179.121094 105.34375 C 177.589844 107.214844 176.058594 109.085938 174.542969 110.957031 C 174.0625 110.648438 173.605469 110.304688 173.175781 109.925781 C 172.578125 109.40625 172.035156 108.835938 171.546875 108.210938 C 171.058594 107.585938 170.636719 106.917969 170.277344 106.214844 C 169.917969 105.507812 169.632812 104.773438 169.417969 104.011719 C 169.203125 103.25 169.0625 102.472656 168.996094 101.683594 C 168.933594 100.894531 168.945312 100.105469 169.035156 99.320312 C 169.125 98.53125 169.289062 97.761719 169.527344 97.007812 C 169.765625 96.25 170.074219 95.527344 170.453125 94.832031 C 170.835938 94.136719 171.277344 93.484375 171.785156 92.875 C 172.292969 92.265625 172.851562 91.710938 173.46875 91.210938 C 174.082031 90.710938 174.738281 90.273438 175.441406 89.902344 C 176.140625 89.527344 176.867188 89.226562 177.628906 88.996094 C 178.386719 88.761719 179.160156 88.605469 179.949219 88.523438 C 180.738281 88.445312 181.527344 88.4375 182.316406 88.511719 C 183.105469 88.582031 183.882812 88.730469 184.644531 88.953125 C 185.40625 89.171875 186.136719 89.46875 186.84375 89.832031 C 187.546875 90.195312 188.210938 90.625 188.828125 91.117188 C 189.28125 91.46875 189.707031 91.855469 190.097656 92.269531 Z M 190.097656 92.269531 " fill-opacity="1" fill-rule="nonzero"/><path fill="#3f3d56" d="M 235.601562 90.851562 L 235.601562 92.664062 L 234.789062 92.367188 L 223.367188 88.199219 C 219.644531 86.84375 215.933594 85.292969 212.09375 84.316406 C 210.421875 83.839844 208.714844 83.613281 206.976562 83.632812 C 205.238281 83.65625 203.539062 83.929688 201.882812 84.449219 C 198.894531 85.550781 196.242188 87.195312 193.925781 89.378906 C 192.910156 90.316406 191.925781 91.273438 190.976562 92.269531 C 190.664062 92.597656 190.355469 92.925781 190.046875 93.253906 C 189.125 94.253906 188.238281 95.277344 187.394531 96.335938 C 184.910156 99.324219 182.457031 102.339844 180 105.34375 C 178.464844 107.21875 176.933594 109.085938 175.417969 110.953125 C 170.355469 117.136719 165.324219 123.332031 160.324219 129.535156 C 159.648438 129.527344 158.984375 129.445312 158.328125 129.285156 C 163.429688 122.957031 168.554688 116.648438 173.703125 110.355469 C 173.820312 110.210938 173.9375 110.066406 174.054688 109.921875 C 174.660156 109.171875 175.277344 108.414062 175.890625 107.664062 C 178.457031 104.523438 181.023438 101.390625 183.59375 98.257812 C 185.460938 95.980469 187.3125 93.691406 189.324219 91.53125 C 189.445312 91.390625 189.574219 91.253906 189.703125 91.117188 C 189.898438 90.910156 190.09375 90.707031 190.289062 90.496094 C 194.660156 85.988281 200.113281 82.003906 206.644531 81.894531 C 210.488281 81.835938 214.199219 83.050781 217.769531 84.335938 C 221.617188 85.726562 225.449219 87.140625 229.292969 88.546875 Z M 235.601562 90.851562 " fill-opacity="1" fill-rule="nonzero"/><path fill="#f2f2f2" d="M 237.402344 243.519531 L 146.003906 243.519531 C 145.636719 243.519531 145.273438 243.480469 144.910156 243.410156 C 144.550781 243.339844 144.203125 243.234375 143.863281 243.09375 C 143.523438 242.953125 143.203125 242.78125 142.898438 242.574219 C 142.59375 242.371094 142.308594 242.140625 142.050781 241.882812 C 141.789062 241.621094 141.558594 241.339844 141.355469 241.035156 C 141.152344 240.730469 140.980469 240.410156 140.835938 240.070312 C 140.695312 239.734375 140.589844 239.382812 140.519531 239.023438 C 140.445312 238.664062 140.410156 238.300781 140.410156 237.9375 L 140.410156 225.636719 C 140.410156 225.273438 140.445312 224.910156 140.519531 224.550781 C 140.589844 224.191406 140.695312 223.839844 140.835938 223.503906 C 140.980469 223.164062 141.152344 222.84375 141.355469 222.539062 C 141.558594 222.234375 141.789062 221.953125 142.050781 221.691406 C 142.308594 221.433594 142.59375 221.203125 142.898438 221 C 143.203125 220.792969 143.523438 220.621094 143.863281 220.480469 C 144.203125 220.34375 144.550781 220.234375 144.910156 220.164062 C 145.273438 220.09375 145.636719 220.054688 146.003906 220.054688 L 237.402344 220.054688 C 237.769531 220.054688 238.132812 220.09375 238.492188 220.164062 C 238.851562 220.234375 239.203125 220.34375 239.542969 220.480469 C 239.878906 220.621094 240.203125 220.792969 240.507812 221 C 240.8125 221.203125 241.09375 221.433594 241.355469 221.691406 C 241.613281 221.953125 241.847656 222.234375 242.050781 222.539062 C 242.253906 222.84375 242.425781 223.164062 242.566406 223.503906 C 242.707031 223.839844 242.8125 224.191406 242.886719 224.550781 C 242.957031 224.910156 242.992188 225.273438 242.996094 225.636719 L 242.996094 237.9375 C 242.992188 238.300781 242.957031 238.664062 242.886719 239.023438 C 242.8125 239.382812 242.707031 239.734375 242.566406 240.070312 C 242.425781 240.410156 242.253906 240.730469 242.050781 241.035156 C 241.847656 241.339844 241.613281 241.621094 241.355469 241.882812 C 241.09375 242.140625 240.8125 242.371094 240.507812 242.574219 C 240.203125 242.78125 239.878906 242.953125 239.542969 243.09375 C 239.203125 243.234375 238.851562 243.339844 238.492188 243.410156 C 238.132812 243.480469 237.769531 243.519531 237.402344 243.519531 Z M 237.402344 243.519531 " fill-opacity="1" fill-rule="nonzero"/><path fill="#f2f2f2" d="M 237.402344 180.484375 L 146.003906 180.484375 C 145.636719 180.484375 145.273438 180.445312 144.910156 180.375 C 144.550781 180.304688 144.203125 180.195312 143.863281 180.054688 C 143.523438 179.917969 143.203125 179.742188 142.898438 179.539062 C 142.59375 179.335938 142.308594 179.105469 142.050781 178.847656 C 141.789062 178.585938 141.558594 178.304688 141.355469 178 C 141.152344 177.695312 140.980469 177.375 140.835938 177.035156 C 140.695312 176.699219 140.589844 176.347656 140.519531 175.988281 C 140.445312 175.628906 140.410156 175.265625 140.410156 174.902344 L 140.410156 162.601562 C 140.410156 162.234375 140.445312 161.875 140.519531 161.515625 C 140.589844 161.15625 140.695312 160.804688 140.835938 160.46875 C 140.980469 160.128906 141.152344 159.808594 141.355469 159.503906 C 141.558594 159.199219 141.789062 158.917969 142.050781 158.65625 C 142.308594 158.398438 142.59375 158.167969 142.898438 157.960938 C 143.203125 157.757812 143.523438 157.585938 143.863281 157.445312 C 144.203125 157.304688 144.550781 157.199219 144.910156 157.128906 C 145.273438 157.054688 145.636719 157.019531 146.003906 157.019531 L 237.402344 157.019531 C 237.769531 157.019531 238.132812 157.054688 238.492188 157.128906 C 238.851562 157.199219 239.203125 157.304688 239.542969 157.445312 C 239.878906 157.585938 240.203125 157.757812 240.507812 157.960938 C 240.8125 158.167969 241.09375 158.398438 241.355469 158.65625 C 241.613281 158.917969 241.847656 159.199219 242.050781 159.503906 C 242.253906 159.808594 242.425781 160.128906 242.566406 160.46875 C 242.707031 160.804688 242.8125 161.15625 242.886719 161.515625 C 242.957031 161.875 242.992188 162.234375 242.996094 162.601562 L 242.996094 174.902344 C 242.992188 175.265625 242.957031 175.628906 242.886719 175.988281 C 242.8125 176.347656 242.707031 176.699219 242.566406 177.035156 C 242.425781 177.375 242.253906 177.695312 242.050781 178 C 241.847656 178.304688 241.613281 178.585938 241.355469 178.847656 C 241.09375 179.105469 240.8125 179.335938 240.507812 179.539062 C 240.203125 179.742188 239.878906 179.917969 239.542969 180.054688 C 239.203125 180.195312 238.851562 180.304688 238.492188 180.375 C 238.132812 180.445312 237.769531 180.484375 237.402344 180.484375 Z M 237.402344 180.484375 " fill-opacity="1" fill-rule="nonzero"/><path fill="#f2f2f2" d="M 237.402344 212 L 146.003906 212 C 145.636719 212 145.273438 211.964844 144.910156 211.894531 C 144.550781 211.820312 144.203125 211.714844 143.863281 211.574219 C 143.523438 211.433594 143.203125 211.261719 142.898438 211.058594 C 142.59375 210.855469 142.308594 210.625 142.050781 210.363281 C 141.789062 210.105469 141.558594 209.824219 141.355469 209.519531 C 141.152344 209.214844 140.980469 208.890625 140.835938 208.554688 C 140.695312 208.214844 140.589844 207.867188 140.519531 207.507812 C 140.445312 207.148438 140.410156 206.785156 140.410156 206.417969 L 140.410156 194.121094 C 140.410156 193.753906 140.445312 193.390625 140.519531 193.03125 C 140.589844 192.671875 140.695312 192.324219 140.835938 191.984375 C 140.980469 191.648438 141.152344 191.324219 141.355469 191.019531 C 141.558594 190.714844 141.789062 190.433594 142.050781 190.175781 C 142.308594 189.914062 142.59375 189.683594 142.898438 189.480469 C 143.203125 189.277344 143.523438 189.105469 143.863281 188.964844 C 144.203125 188.824219 144.550781 188.71875 144.910156 188.644531 C 145.273438 188.574219 145.636719 188.539062 146.003906 188.539062 L 237.402344 188.539062 C 237.769531 188.539062 238.132812 188.574219 238.492188 188.644531 C 238.851562 188.71875 239.203125 188.824219 239.542969 188.964844 C 239.878906 189.105469 240.203125 189.277344 240.507812 189.480469 C 240.8125 189.683594 241.09375 189.914062 241.355469 190.175781 C 241.613281 190.433594 241.847656 190.714844 242.050781 191.019531 C 242.253906 191.324219 242.425781 191.648438 242.566406 191.984375 C 242.707031 192.324219 242.8125 192.671875 242.886719 193.03125 C 242.957031 193.390625 242.992188 193.753906 242.996094 194.121094 L 242.996094 206.417969 C 242.992188 206.785156 242.957031 207.148438 242.886719 207.507812 C 242.8125 207.867188 242.707031 208.214844 242.566406 208.554688 C 242.425781 208.890625 242.253906 209.214844 242.050781 209.519531 C 241.847656 209.824219 241.613281 210.105469 241.355469 210.363281 C 241.09375 210.625 240.8125 210.855469 240.507812 211.058594 C 240.203125 211.261719 239.878906 211.433594 239.542969 211.574219 C 239.203125 211.714844 238.851562 211.820312 238.492188 211.894531 C 238.132812 211.964844 237.769531 212 237.402344 212 Z M 237.402344 212 " fill-opacity="1" fill-rule="nonzero"/><path fill="#ffffff" d="M 202.808594 229.683594 L 175.875 229.683594 C 175.714844 229.683594 175.5625 229.652344 175.414062 229.589844 C 175.269531 229.53125 175.136719 229.441406 175.023438 229.332031 C 174.910156 229.21875 174.824219 229.085938 174.761719 228.941406 C 174.703125 228.792969 174.671875 228.640625 174.671875 228.480469 C 174.671875 228.320312 174.703125 228.167969 174.761719 228.019531 C 174.824219 227.871094 174.910156 227.742188 175.023438 227.628906 C 175.136719 227.515625 175.269531 227.429688 175.414062 227.367188 C 175.5625 227.308594 175.714844 227.277344 175.875 227.277344 L 202.808594 227.277344 C 202.964844 227.277344 203.121094 227.308594 203.269531 227.367188 C 203.414062 227.429688 203.546875 227.515625 203.660156 227.628906 C 203.773438 227.742188 203.859375 227.871094 203.917969 228.019531 C 203.980469 228.167969 204.011719 228.320312 204.011719 228.480469 C 204.011719 228.640625 203.980469 228.792969 203.917969 228.941406 C 203.859375 229.085938 203.773438 229.21875 203.660156 229.332031 C 203.546875 229.441406 203.414062 229.53125 203.269531 229.589844 C 203.121094 229.652344 202.964844 229.683594 202.808594 229.683594 Z M 202.808594 229.683594 " fill-opacity="1" fill-rule="nonzero"/><path fill="#ffffff" d="M 228.707031 236.296875 L 175.574219 236.296875 C 175.414062 236.296875 175.261719 236.265625 175.113281 236.207031 C 174.964844 236.144531 174.835938 236.058594 174.722656 235.945312 C 174.609375 235.832031 174.523438 235.703125 174.460938 235.554688 C 174.402344 235.40625 174.371094 235.253906 174.371094 235.09375 C 174.371094 234.933594 174.402344 234.78125 174.460938 234.632812 C 174.523438 234.488281 174.609375 234.355469 174.722656 234.246094 C 174.835938 234.132812 174.964844 234.042969 175.113281 233.984375 C 175.261719 233.921875 175.414062 233.890625 175.574219 233.890625 L 228.707031 233.890625 C 228.867188 233.890625 229.019531 233.921875 229.167969 233.984375 C 229.316406 234.042969 229.445312 234.132812 229.558594 234.246094 C 229.671875 234.355469 229.757812 234.488281 229.820312 234.632812 C 229.882812 234.78125 229.914062 234.933594 229.914062 235.09375 C 229.914062 235.253906 229.882812 235.40625 229.820312 235.554688 C 229.757812 235.703125 229.671875 235.832031 229.558594 235.945312 C 229.445312 236.058594 229.316406 236.144531 229.167969 236.207031 C 229.019531 236.265625 228.867188 236.296875 228.707031 236.296875 Z M 228.707031 236.296875 " fill-opacity="1" fill-rule="nonzero"/><path fill="#ffffff" d="M 169.644531 231.789062 C 169.644531 232.316406 169.59375 232.839844 169.492188 233.359375 C 169.386719 233.878906 169.234375 234.382812 169.03125 234.871094 C 168.828125 235.363281 168.578125 235.828125 168.285156 236.265625 C 167.992188 236.707031 167.65625 237.113281 167.28125 237.488281 C 166.90625 237.863281 166.496094 238.199219 166.058594 238.492188 C 165.617188 238.785156 165.148438 239.035156 164.660156 239.238281 C 164.171875 239.441406 163.664062 239.59375 163.144531 239.695312 C 162.625 239.800781 162.101562 239.851562 161.570312 239.851562 C 161.039062 239.851562 160.515625 239.800781 159.992188 239.695312 C 159.472656 239.59375 158.96875 239.441406 158.476562 239.238281 C 157.988281 239.035156 157.523438 238.785156 157.082031 238.492188 C 156.640625 238.199219 156.234375 237.863281 155.859375 237.488281 C 155.484375 237.113281 155.148438 236.707031 154.855469 236.265625 C 154.558594 235.828125 154.308594 235.363281 154.105469 234.871094 C 153.902344 234.382812 153.75 233.878906 153.648438 233.359375 C 153.542969 232.839844 153.492188 232.316406 153.492188 231.789062 C 153.492188 231.257812 153.542969 230.734375 153.648438 230.214844 C 153.75 229.695312 153.902344 229.191406 154.105469 228.703125 C 154.308594 228.210938 154.558594 227.746094 154.855469 227.308594 C 155.148438 226.867188 155.484375 226.460938 155.859375 226.085938 C 156.234375 225.710938 156.640625 225.375 157.082031 225.082031 C 157.523438 224.789062 157.988281 224.539062 158.476562 224.335938 C 158.96875 224.136719 159.472656 223.980469 159.992188 223.878906 C 160.515625 223.773438 161.039062 223.722656 161.570312 223.722656 C 162.101562 223.722656 162.625 223.773438 163.144531 223.878906 C 163.664062 223.980469 164.171875 224.136719 164.660156 224.335938 C 165.148438 224.539062 165.617188 224.789062 166.058594 225.082031 C 166.496094 225.375 166.90625 225.710938 167.28125 226.085938 C 167.65625 226.460938 167.992188 226.867188 168.285156 227.308594 C 168.578125 227.746094 168.828125 228.210938 169.03125 228.703125 C 169.234375 229.191406 169.386719 229.695312 169.492188 230.214844 C 169.59375 230.734375 169.644531 231.257812 169.644531 231.789062 Z M 169.644531 231.789062 " fill-opacity="1" fill-rule="nonzero"/><path fill="#ffb6b6" d="M 159.769531 242.679688 C 159.359375 242.488281 158.925781 242.378906 158.46875 242.355469 C 158.015625 242.332031 157.574219 242.394531 157.144531 242.546875 C 156.714844 242.695312 156.328125 242.917969 155.988281 243.21875 C 155.644531 243.519531 155.371094 243.871094 155.167969 244.277344 C 155.085938 244.441406 155.023438 244.617188 154.96875 244.792969 L 142.808594 245.519531 L 141.003906 251.808594 L 157.558594 249.015625 C 157.933594 249.097656 158.3125 249.113281 158.695312 249.066406 C 159.078125 249.019531 159.441406 248.910156 159.789062 248.742188 C 160.132812 248.578125 160.445312 248.359375 160.71875 248.089844 C 160.992188 247.820312 161.214844 247.511719 161.386719 247.167969 C 161.582031 246.773438 161.691406 246.351562 161.71875 245.914062 C 161.746094 245.472656 161.6875 245.042969 161.542969 244.625 C 161.398438 244.210938 161.179688 243.835938 160.886719 243.503906 C 160.59375 243.175781 160.25 242.910156 159.851562 242.71875 C 159.824219 242.707031 159.796875 242.691406 159.769531 242.679688 Z M 159.769531 242.679688 " fill-opacity="1" fill-rule="nonzero"/><path fill="#4fc3f7" d="M 132.921875 211.648438 C 132.519531 211.484375 132.109375 211.363281 131.679688 211.289062 C 131.253906 211.214844 130.824219 211.1875 130.390625 211.203125 C 129.960938 211.222656 129.535156 211.285156 129.113281 211.394531 C 128.695312 211.503906 128.292969 211.65625 127.90625 211.851562 C 127.519531 212.046875 127.160156 212.28125 126.824219 212.554688 C 126.488281 212.828125 126.1875 213.132812 125.917969 213.472656 C 125.648438 213.8125 125.417969 214.175781 125.226562 214.5625 C 125.035156 214.949219 124.886719 215.355469 124.785156 215.773438 L 121.441406 229.253906 L 122.070312 252.839844 C 122.070312 252.839844 139.523438 256.183594 142.453125 254.035156 C 145.382812 251.886719 145.109375 250.285156 145.382812 251.886719 C 145.660156 253.488281 146.917969 254.15625 146.933594 253.519531 C 146.953125 252.886719 147.09375 252.992188 147.824219 252.800781 C 148.554688 252.609375 151.777344 251.425781 151.777344 251.425781 L 151.921875 244.699219 C 151.921875 244.699219 146.59375 242.683594 145.300781 243.285156 C 144.007812 243.886719 145.574219 244.886719 144.007812 243.886719 C 142.441406 242.886719 142.269531 239.738281 142 242.578125 C 141.734375 245.417969 140.949219 245.945312 139.773438 244.683594 C 138.597656 243.421875 133.152344 244.226562 133.152344 244.226562 L 136.617188 218.007812 C 136.703125 217.347656 136.683594 216.691406 136.550781 216.039062 C 136.421875 215.390625 136.1875 214.773438 135.855469 214.199219 C 135.519531 213.625 135.101562 213.117188 134.601562 212.679688 C 134.097656 212.246094 133.539062 211.898438 132.921875 211.648438 Z M 132.921875 211.648438 " fill-opacity="1" fill-rule="nonzero"/><path fill="#ffb6b6" d="M 250.46875 281.59375 L 250.652344 276.625 L 231.550781 273.554688 L 231.28125 280.886719 Z M 250.46875 281.59375 " fill-opacity="1" fill-rule="nonzero"/><path fill="#2f2e41" d="M 247 283.085938 L 246.820312 275.136719 L 250.226562 275.261719 L 255.722656 267.910156 C 256 267.539062 256.363281 267.285156 256.808594 267.148438 C 257.253906 267.011719 257.695312 267.023438 258.136719 267.175781 C 258.574219 267.332031 258.925781 267.601562 259.1875 267.984375 C 259.449219 268.371094 259.574219 268.792969 259.554688 269.257812 L 259.207031 278.707031 L 255.777344 280.210938 L 259.121094 280.96875 L 258.992188 284.53125 Z M 247 283.085938 " fill-opacity="1" fill-rule="nonzero"/><path fill="#2f2e41" d="M 142.96875 292.980469 L 203.46875 285.957031 C 203.46875 285.957031 229.59375 287.464844 235.722656 283.484375 L 242.1875 282.667969 L 242.535156 273.191406 C 242.535156 273.191406 238.582031 273.21875 236.3125 272.160156 C 234.039062 271.105469 235.617188 269.8125 233.453125 271.082031 C 231.285156 272.355469 231.511719 272.507812 229.839844 271.921875 C 228.164062 271.339844 151.339844 268.203125 151.339844 268.203125 Z M 142.96875 292.980469 " fill-opacity="1" fill-rule="nonzero"/><path fill="#ffb6b6" d="M 222.691406 288.867188 L 226.207031 285.351562 L 214.296875 270.132812 L 209.105469 275.320312 Z M 222.691406 288.867188 " fill-opacity="1" fill-rule="nonzero"/><g clip-path="url(#c1a93dbe91)"><path fill="#2f2e41" d="M 219.128906 287.609375 L 224.414062 281.65625 L 226.824219 284.0625 L 235.863281 282.40625 C 236.320312 282.320312 236.757812 282.378906 237.179688 282.582031 C 237.597656 282.789062 237.914062 283.09375 238.132812 283.507812 C 238.347656 283.917969 238.421875 284.355469 238.351562 284.8125 C 238.28125 285.273438 238.082031 285.667969 237.753906 285.996094 L 231.0625 292.683594 L 227.523438 291.460938 L 229.457031 294.289062 L 226.933594 296.808594 Z M 219.128906 287.609375 " fill-opacity="1" fill-rule="nonzero"/></g><path fill="#2f2e41" d="M 119.097656 259.902344 L 119.699219 273.859375 C 120.410156 290.292969 138.535156 300.238281 152.589844 291.65625 C 152.847656 291.5 153.109375 291.335938 153.371094 291.167969 C 153.371094 291.167969 158.699219 289.738281 158.535156 287.476562 C 158.375 285.214844 159.675781 284.113281 160.828125 284.730469 C 161.980469 285.347656 177.0625 263.976562 177.0625 263.976562 C 177.0625 263.976562 208.398438 279.582031 215.3125 283.253906 L 222.605469 281.273438 C 222.605469 281.273438 225.351562 282.566406 224.363281 280.695312 C 223.375 278.820312 223.195312 279.71875 222.890625 277.679688 C 222.589844 275.640625 221.8125 273.109375 221.339844 273.214844 C 220.867188 273.324219 182.574219 246.5625 182.574219 246.5625 C 182.574219 246.5625 176.335938 240.261719 168.59375 244.421875 C 168.433594 245.035156 168.570312 245.054688 168.570312 245.054688 L 143.007812 265.851562 L 139.394531 259.003906 Z M 119.097656 259.902344 " fill-opacity="1" fill-rule="nonzero"/><path fill="#4fc3f7" d="M 136.28125 208.617188 L 125.320312 203.488281 L 122.039062 209.191406 C 122.039062 209.191406 113.226562 221.746094 113.097656 230.804688 C 112.96875 239.863281 114.535156 242.554688 114.535156 242.554688 C 114.535156 242.554688 110.734375 245.390625 112.632812 247.125 C 114.535156 248.859375 118.742188 249.609375 115.511719 250.359375 C 112.28125 251.109375 113.097656 258.71875 116.707031 260.070312 C 120.3125 261.421875 139.691406 261.410156 139.691406 261.410156 C 139.515625 260.808594 139.5 260.203125 139.652344 259.597656 C 139.808594 258.988281 140.101562 258.464844 140.542969 258.015625 C 142.046875 256.515625 143.398438 257.59375 142.046875 255.253906 C 140.691406 252.910156 138.4375 254.261719 140.242188 251.109375 C 142.046875 247.960938 142.046875 247.015625 142.046875 247.015625 C 142.046875 247.015625 145.722656 240.03125 140.183594 232.449219 C 139.847656 231.988281 140.128906 231.96875 140.128906 231.96875 L 135.65625 217.003906 Z M 136.28125 208.617188 " fill-opacity="1" fill-rule="nonzero"/><path fill="#2f2e41" d="M 118.617188 187.054688 C 118.710938 189.363281 117.25 192.640625 116.53125 194.613281 C 115.765625 196.726562 119.09375 199.527344 121.226562 200.140625 C 121.339844 199.386719 121.683594 198.757812 122.257812 198.253906 C 122.101562 198.957031 122.089844 199.664062 122.21875 200.371094 L 140.234375 204.46875 C 143.476562 200.71875 146.734375 195.332031 146.023438 188.835938 C 146.109375 188.21875 146.101562 187.601562 146.007812 186.988281 C 145.910156 186.371094 145.726562 185.785156 145.453125 185.222656 C 145.183594 184.664062 144.835938 184.152344 144.414062 183.695312 C 143.992188 183.238281 143.511719 182.847656 142.976562 182.53125 L 133.867188 177.160156 C 129.992188 176.28125 125.113281 175.75 122.316406 178.140625 C 121.691406 178.695312 121.136719 179.316406 120.648438 179.996094 C 120.164062 180.675781 119.761719 181.402344 119.441406 182.175781 C 119.121094 182.945312 118.894531 183.742188 118.753906 184.566406 C 118.613281 185.390625 118.570312 186.21875 118.617188 187.054688 Z M 118.617188 187.054688 " fill-opacity="1" fill-rule="nonzero"/><path fill="#ffb6b6" d="M 145.09375 192.132812 C 145.09375 192.8125 145.027344 193.484375 144.894531 194.152344 C 144.761719 194.820312 144.566406 195.464844 144.304688 196.09375 C 144.046875 196.722656 143.726562 197.320312 143.347656 197.886719 C 142.96875 198.449219 142.539062 198.972656 142.058594 199.453125 C 141.574219 199.933594 141.050781 200.363281 140.484375 200.742188 C 139.917969 201.121094 139.320312 201.4375 138.691406 201.699219 C 138.0625 201.960938 137.414062 202.15625 136.746094 202.289062 C 136.078125 202.421875 135.402344 202.488281 134.722656 202.488281 C 134.042969 202.488281 133.367188 202.421875 132.699219 202.289062 C 132.03125 202.15625 131.382812 201.960938 130.753906 201.699219 C 130.125 201.4375 129.527344 201.121094 128.960938 200.742188 C 128.394531 200.363281 127.867188 199.933594 127.386719 199.453125 C 126.90625 198.972656 126.476562 198.449219 126.097656 197.886719 C 125.71875 197.320312 125.398438 196.722656 125.136719 196.09375 C 124.878906 195.464844 124.679688 194.820312 124.546875 194.152344 C 124.414062 193.484375 124.347656 192.8125 124.347656 192.132812 C 124.347656 191.453125 124.414062 190.777344 124.546875 190.109375 C 124.679688 189.445312 124.878906 188.796875 125.136719 188.167969 C 125.398438 187.539062 125.71875 186.945312 126.097656 186.378906 C 126.476562 185.8125 126.90625 185.289062 127.386719 184.808594 C 127.867188 184.328125 128.394531 183.898438 128.960938 183.519531 C 129.527344 183.144531 130.125 182.824219 130.753906 182.5625 C 131.382812 182.304688 132.03125 182.105469 132.699219 181.976562 C 133.367188 181.84375 134.042969 181.777344 134.722656 181.777344 C 135.402344 181.777344 136.078125 181.84375 136.746094 181.976562 C 137.414062 182.105469 138.0625 182.304688 138.691406 182.5625 C 139.320312 182.824219 139.917969 183.144531 140.484375 183.519531 C 141.050781 183.898438 141.574219 184.328125 142.058594 184.808594 C 142.539062 185.289062 142.96875 185.8125 143.347656 186.378906 C 143.726562 186.945312 144.046875 187.539062 144.304688 188.167969 C 144.566406 188.796875 144.761719 189.445312 144.894531 190.109375 C 145.027344 190.777344 145.09375 191.453125 145.09375 192.132812 Z M 145.09375 192.132812 " fill-opacity="1" fill-rule="nonzero"/><path fill="#2f2e41" d="M 122.570312 186.597656 L 122.070312 188.792969 L 130.820312 190.78125 C 130.835938 189.84375 131.195312 189.0625 131.898438 188.4375 C 131.703125 189.308594 131.726562 190.179688 131.960938 191.042969 C 136.679688 193.6875 140.933594 194.621094 144.746094 193.949219 C 145.003906 194.007812 145.265625 194.015625 145.527344 193.96875 C 145.789062 193.925781 146.03125 193.832031 146.253906 193.691406 C 146.480469 193.550781 146.667969 193.371094 146.820312 193.15625 C 146.972656 192.941406 147.082031 192.703125 147.140625 192.445312 C 148.671875 185.714844 144.652344 178.835938 137.945312 177.167969 C 137.128906 176.960938 136.300781 176.839844 135.460938 176.804688 C 134.625 176.765625 133.789062 176.808594 132.957031 176.9375 C 132.125 177.066406 131.316406 177.273438 130.527344 177.5625 C 129.738281 177.851562 128.988281 178.214844 128.269531 178.65625 C 127.554688 179.09375 126.890625 179.601562 126.273438 180.171875 C 125.660156 180.746094 125.109375 181.371094 124.617188 182.054688 C 124.128906 182.734375 123.710938 183.457031 123.367188 184.222656 C 123.023438 184.988281 122.757812 185.78125 122.570312 186.597656 Z M 122.570312 186.597656 " fill-opacity="1" fill-rule="nonzero"/><path fill="#2f2e41" d="M 127.6875 172.117188 C 128.839844 171.867188 130.0625 171.925781 131.105469 171.144531 L 130.421875 172.714844 C 131.367188 172.453125 132.332031 172.375 133.3125 172.472656 C 134.289062 172.570312 135.21875 172.839844 136.097656 173.28125 C 136.628906 173.519531 137.058594 173.882812 137.382812 174.367188 C 137.746094 174.980469 137.800781 175.621094 137.550781 176.289062 C 137.3125 176.855469 136.90625 177.242188 136.324219 177.449219 C 135.835938 177.597656 135.335938 177.648438 134.824219 177.609375 C 132.695312 177.558594 130.566406 177.507812 128.4375 177.457031 C 127.609375 177.511719 126.824219 177.359375 126.078125 177 C 125.679688 176.757812 125.382812 176.421875 125.183594 175.996094 C 124.984375 175.574219 124.917969 175.132812 124.984375 174.667969 C 125.1875 173.242188 126.53125 172.367188 127.6875 172.117188 Z M 127.6875 172.117188 " fill-opacity="1" fill-rule="nonzero"/><path fill="#cccccc" d="M 183.957031 253.277344 C 183.929688 253.25 183.902344 253.222656 183.871094 253.203125 C 183.792969 253.109375 183.699219 253.039062 183.59375 252.984375 L 182.832031 252.578125 L 177.792969 246.992188 C 177.492188 246.835938 177.175781 246.804688 176.847656 246.902344 L 176.835938 246.90625 L 174.675781 247.574219 L 172.820312 248.148438 L 170.226562 248.949219 L 152.5625 254.410156 L 140.953125 258 C 140.792969 258.050781 140.652344 258.128906 140.527344 258.234375 C 140.398438 258.339844 140.296875 258.464844 140.222656 258.609375 C 140.144531 258.753906 140.097656 258.90625 140.082031 259.070312 C 140.066406 259.234375 140.078125 259.394531 140.125 259.554688 C 140.183594 259.726562 140.269531 259.886719 140.390625 260.023438 L 140.761719 260.433594 L 141.535156 261.296875 L 143.332031 265.011719 L 143.828125 265.566406 C 143.992188 265.746094 144.191406 265.867188 144.421875 265.933594 C 144.65625 266 144.890625 265.996094 145.121094 265.925781 L 183.375 255.308594 C 183.574219 255.242188 183.75 255.132812 183.898438 254.980469 C 184.046875 254.828125 184.148438 254.652344 184.207031 254.449219 C 184.265625 254.246094 184.273438 254.039062 184.226562 253.832031 C 184.183594 253.625 184.09375 253.441406 183.957031 253.277344 Z M 183.957031 253.277344 " fill-opacity="1" fill-rule="nonzero"/><path fill="#cccccc" d="M 181.683594 198.03125 L 180.945312 198.152344 C 180.734375 198.183594 180.5625 198.289062 180.4375 198.464844 L 180.113281 198.917969 L 177.167969 206.269531 C 177.042969 206.441406 177 206.636719 177.035156 206.847656 L 177.378906 208.941406 L 176.078125 246.316406 C 176.109375 246.515625 176.207031 246.679688 176.367188 246.804688 L 182.082031 254.4375 L 182.21875 254.542969 L 182.503906 254.765625 C 182.65625 254.882812 182.828125 254.9375 183.023438 254.929688 L 183.507812 254.910156 C 183.742188 254.898438 183.933594 254.800781 184.078125 254.617188 C 184.226562 254.4375 184.28125 254.230469 184.242188 254 L 182.582031 198.671875 C 182.546875 198.457031 182.441406 198.289062 182.269531 198.164062 C 182.09375 198.039062 181.902344 197.996094 181.6875 198.03125 Z M 181.683594 198.03125 " fill-opacity="1" fill-rule="nonzero"/><path fill="#4fc3f7" d="M 180.445312 200.933594 L 177.835938 208.863281 L 176.828125 240.542969 L 180.886719 244.144531 Z M 180.445312 200.933594 " fill-opacity="1" fill-rule="nonzero"/><path fill="#ffb6b6" d="M 160.277344 249.253906 C 159.867188 249.0625 159.433594 248.953125 158.980469 248.929688 C 158.523438 248.90625 158.082031 248.972656 157.652344 249.121094 C 157.222656 249.269531 156.835938 249.492188 156.496094 249.792969 C 156.152344 250.09375 155.882812 250.445312 155.675781 250.851562 C 155.597656 251.019531 155.53125 251.191406 155.480469 251.367188 L 143.316406 252.09375 L 141.511719 258.382812 L 158.066406 255.59375 C 158.445312 255.671875 158.824219 255.6875 159.203125 255.640625 C 159.585938 255.59375 159.949219 255.484375 160.296875 255.320312 C 160.644531 255.152344 160.953125 254.933594 161.226562 254.664062 C 161.5 254.394531 161.722656 254.085938 161.894531 253.742188 C 162.089844 253.347656 162.199219 252.929688 162.226562 252.488281 C 162.253906 252.046875 162.195312 251.617188 162.050781 251.199219 C 161.90625 250.785156 161.6875 250.410156 161.394531 250.078125 C 161.105469 249.75 160.757812 249.488281 160.363281 249.292969 C 160.332031 249.28125 160.304688 249.265625 160.277344 249.253906 Z M 160.277344 249.253906 " fill-opacity="1" fill-rule="nonzero"/><path fill="#4fc3f7" d="M 133.429688 218.222656 C 133.03125 218.058594 132.617188 217.941406 132.191406 217.867188 C 131.761719 217.789062 131.332031 217.761719 130.902344 217.78125 C 130.46875 217.796875 130.042969 217.859375 129.625 217.96875 C 129.203125 218.078125 128.800781 218.230469 128.417969 218.425781 C 128.03125 218.621094 127.667969 218.855469 127.332031 219.128906 C 127 219.402344 126.695312 219.710938 126.425781 220.046875 C 126.15625 220.386719 125.925781 220.75 125.734375 221.136719 C 125.542969 221.523438 125.398438 221.929688 125.292969 222.347656 L 121.949219 235.832031 L 122.578125 259.417969 C 122.578125 259.417969 140.03125 262.761719 142.960938 260.609375 C 145.894531 258.460938 145.617188 256.863281 145.894531 258.460938 C 146.167969 260.0625 147.425781 260.734375 147.441406 260.097656 C 147.460938 259.460938 147.601562 259.570312 148.332031 259.375 C 149.0625 259.183594 152.285156 258 152.285156 258 L 152.429688 251.273438 C 152.429688 251.273438 147.101562 249.257812 145.808594 249.859375 C 144.515625 250.460938 146.085938 251.460938 144.515625 250.460938 C 142.949219 249.464844 142.777344 246.3125 142.511719 249.152344 C 142.242188 251.992188 141.457031 252.519531 140.28125 251.257812 C 139.105469 249.996094 133.660156 250.800781 133.660156 250.800781 L 137.125 224.582031 C 137.214844 223.921875 137.191406 223.269531 137.0625 222.617188 C 136.929688 221.964844 136.699219 221.351562 136.363281 220.773438 C 136.03125 220.199219 135.609375 219.691406 135.109375 219.257812 C 134.605469 218.820312 134.046875 218.476562 133.429688 218.222656 Z M 133.429688 218.222656 " fill-opacity="1" fill-rule="nonzero"/><g clip-path="url(#3ac2ffba4e)"><path fill="#cccccc" d="M 25.796875 296.433594 C 25.796875 296.582031 25.851562 296.707031 25.957031 296.8125 C 26.058594 296.917969 26.1875 296.96875 26.335938 296.96875 L 348.933594 296.96875 C 349.082031 296.96875 349.207031 296.917969 349.3125 296.8125 C 349.417969 296.707031 349.46875 296.582031 349.46875 296.433594 C 349.46875 296.285156 349.417969 296.160156 349.3125 296.054688 C 349.207031 295.949219 349.082031 295.898438 348.933594 295.898438 L 26.335938 295.898438 C 26.1875 295.898438 26.058594 295.949219 25.957031 296.054688 C 25.851562 296.160156 25.796875 296.285156 25.796875 296.433594 Z M 25.796875 296.433594 " fill-opacity="1" fill-rule="nonzero"/></g><path fill="#e6e6e6" d="M 310.464844 180.484375 L 219.066406 180.484375 C 218.699219 180.484375 218.335938 180.445312 217.976562 180.375 C 217.613281 180.304688 217.265625 180.195312 216.925781 180.054688 C 216.585938 179.917969 216.265625 179.742188 215.960938 179.539062 C 215.65625 179.335938 215.371094 179.105469 215.113281 178.847656 C 214.851562 178.585938 214.621094 178.304688 214.417969 178 C 214.214844 177.695312 214.042969 177.375 213.902344 177.035156 C 213.761719 176.699219 213.652344 176.347656 213.582031 175.988281 C 213.507812 175.628906 213.472656 175.265625 213.472656 174.902344 L 213.472656 162.601562 C 213.472656 162.234375 213.507812 161.875 213.582031 161.515625 C 213.652344 161.15625 213.757812 160.804688 213.902344 160.46875 C 214.042969 160.128906 214.214844 159.808594 214.417969 159.503906 C 214.621094 159.199219 214.851562 158.917969 215.113281 158.65625 C 215.371094 158.398438 215.65625 158.167969 215.960938 157.960938 C 216.265625 157.757812 216.585938 157.585938 216.925781 157.445312 C 217.265625 157.304688 217.613281 157.199219 217.976562 157.128906 C 218.335938 157.054688 218.699219 157.019531 219.066406 157.019531 L 310.464844 157.019531 C 310.832031 157.019531 311.195312 157.054688 311.554688 157.128906 C 311.914062 157.199219 312.265625 157.304688 312.605469 157.445312 C 312.941406 157.585938 313.265625 157.757812 313.570312 157.960938 C 313.875 158.167969 314.15625 158.398438 314.417969 158.65625 C 314.675781 158.917969 314.910156 159.199219 315.113281 159.503906 C 315.316406 159.808594 315.488281 160.128906 315.628906 160.46875 C 315.769531 160.804688 315.875 161.15625 315.949219 161.515625 C 316.019531 161.875 316.054688 162.234375 316.058594 162.601562 L 316.058594 174.902344 C 316.054688 175.265625 316.019531 175.628906 315.949219 175.988281 C 315.875 176.347656 315.769531 176.699219 315.628906 177.035156 C 315.488281 177.375 315.316406 177.695312 315.113281 178 C 314.910156 178.304688 314.675781 178.585938 314.417969 178.847656 C 314.15625 179.105469 313.875 179.335938 313.570312 179.539062 C 313.265625 179.742188 312.941406 179.917969 312.605469 180.054688 C 312.265625 180.195312 311.914062 180.304688 311.554688 180.375 C 311.195312 180.445312 310.832031 180.484375 310.464844 180.484375 Z M 310.464844 180.484375 " fill-opacity="1" fill-rule="nonzero"/><path fill="#ffffff" d="M 275.871094 166.648438 L 248.9375 166.648438 C 248.78125 166.648438 248.625 166.617188 248.476562 166.554688 C 248.332031 166.496094 248.199219 166.40625 248.085938 166.292969 C 247.972656 166.183594 247.886719 166.050781 247.824219 165.90625 C 247.765625 165.757812 247.734375 165.605469 247.734375 165.445312 C 247.734375 165.285156 247.765625 165.132812 247.824219 164.984375 C 247.886719 164.835938 247.972656 164.707031 248.085938 164.59375 C 248.199219 164.480469 248.332031 164.394531 248.476562 164.332031 C 248.625 164.273438 248.78125 164.242188 248.9375 164.242188 L 275.871094 164.242188 C 276.027344 164.242188 276.183594 164.273438 276.332031 164.332031 C 276.476562 164.394531 276.609375 164.480469 276.722656 164.59375 C 276.835938 164.707031 276.921875 164.835938 276.980469 164.984375 C 277.042969 165.132812 277.074219 165.285156 277.074219 165.445312 C 277.074219 165.605469 277.042969 165.757812 276.980469 165.90625 C 276.921875 166.050781 276.835938 166.183594 276.722656 166.292969 C 276.609375 166.40625 276.476562 166.496094 276.332031 166.554688 C 276.183594 166.617188 276.027344 166.648438 275.871094 166.648438 Z M 275.871094 166.648438 " fill-opacity="1" fill-rule="nonzero"/><path fill="#ffffff" d="M 301.769531 173.261719 L 248.636719 173.261719 C 248.476562 173.261719 248.324219 173.230469 248.175781 173.171875 C 248.027344 173.109375 247.898438 173.023438 247.785156 172.910156 C 247.671875 172.796875 247.585938 172.667969 247.523438 172.519531 C 247.464844 172.371094 247.433594 172.21875 247.433594 172.058594 C 247.433594 171.898438 247.464844 171.746094 247.523438 171.597656 C 247.585938 171.453125 247.671875 171.320312 247.785156 171.207031 C 247.898438 171.097656 248.027344 171.007812 248.175781 170.949219 C 248.324219 170.886719 248.476562 170.855469 248.636719 170.855469 L 301.769531 170.855469 C 301.929688 170.855469 302.082031 170.886719 302.230469 170.949219 C 302.378906 171.007812 302.507812 171.097656 302.621094 171.207031 C 302.734375 171.320312 302.824219 171.453125 302.882812 171.597656 C 302.945312 171.746094 302.976562 171.898438 302.976562 172.058594 C 302.976562 172.21875 302.945312 172.371094 302.882812 172.519531 C 302.824219 172.667969 302.734375 172.796875 302.621094 172.910156 C 302.507812 173.023438 302.378906 173.109375 302.230469 173.171875 C 302.082031 173.230469 301.929688 173.261719 301.769531 173.261719 Z M 301.769531 173.261719 " fill-opacity="1" fill-rule="nonzero"/><path fill="#ffffff" d="M 242.710938 168.75 C 242.710938 169.28125 242.65625 169.804688 242.554688 170.324219 C 242.449219 170.84375 242.296875 171.347656 242.09375 171.835938 C 241.890625 172.328125 241.640625 172.792969 241.347656 173.230469 C 241.054688 173.671875 240.71875 174.078125 240.34375 174.453125 C 239.96875 174.828125 239.558594 175.160156 239.121094 175.457031 C 238.679688 175.75 238.210938 176 237.722656 176.203125 C 237.234375 176.402344 236.726562 176.558594 236.207031 176.660156 C 235.6875 176.761719 235.164062 176.816406 234.632812 176.816406 C 234.101562 176.816406 233.578125 176.761719 233.054688 176.660156 C 232.535156 176.558594 232.03125 176.402344 231.542969 176.203125 C 231.050781 176 230.585938 175.75 230.144531 175.457031 C 229.703125 175.160156 229.296875 174.828125 228.921875 174.453125 C 228.546875 174.078125 228.210938 173.671875 227.917969 173.230469 C 227.621094 172.792969 227.371094 172.328125 227.167969 171.835938 C 226.96875 171.347656 226.8125 170.84375 226.710938 170.324219 C 226.605469 169.804688 226.554688 169.28125 226.554688 168.75 C 226.554688 168.222656 226.605469 167.699219 226.710938 167.179688 C 226.8125 166.660156 226.96875 166.15625 227.167969 165.664062 C 227.371094 165.175781 227.621094 164.710938 227.917969 164.273438 C 228.210938 163.832031 228.546875 163.425781 228.921875 163.050781 C 229.296875 162.675781 229.703125 162.339844 230.144531 162.046875 C 230.585938 161.753906 231.050781 161.503906 231.542969 161.300781 C 232.03125 161.097656 232.535156 160.945312 233.054688 160.84375 C 233.578125 160.738281 234.101562 160.6875 234.632812 160.6875 C 235.164062 160.6875 235.6875 160.738281 236.207031 160.84375 C 236.726562 160.945312 237.234375 161.097656 237.722656 161.300781 C 238.210938 161.503906 238.679688 161.753906 239.121094 162.046875 C 239.558594 162.339844 239.96875 162.675781 240.34375 163.050781 C 240.71875 163.425781 241.054688 163.832031 241.347656 164.273438 C 241.640625 164.710938 241.890625 165.175781 242.09375 165.664062 C 242.296875 166.15625 242.449219 166.660156 242.554688 167.179688 C 242.65625 167.699219 242.710938 168.222656 242.710938 168.75 Z M 242.710938 168.75 " fill-opacity="1" fill-rule="nonzero"/><path fill="#e6e6e6" d="M 281.148438 212 L 189.75 212 C 189.382812 212 189.019531 211.964844 188.660156 211.894531 C 188.300781 211.820312 187.949219 211.714844 187.609375 211.574219 C 187.273438 211.433594 186.949219 211.261719 186.644531 211.058594 C 186.339844 210.855469 186.058594 210.625 185.796875 210.363281 C 185.539062 210.105469 185.304688 209.824219 185.101562 209.519531 C 184.898438 209.214844 184.726562 208.890625 184.585938 208.554688 C 184.445312 208.214844 184.339844 207.867188 184.265625 207.507812 C 184.195312 207.148438 184.160156 206.785156 184.15625 206.417969 L 184.15625 194.121094 C 184.160156 193.753906 184.195312 193.390625 184.265625 193.03125 C 184.339844 192.671875 184.445312 192.324219 184.585938 191.984375 C 184.726562 191.648438 184.898438 191.324219 185.101562 191.019531 C 185.304688 190.714844 185.539062 190.433594 185.796875 190.175781 C 186.058594 189.914062 186.339844 189.683594 186.644531 189.480469 C 186.949219 189.277344 187.273438 189.105469 187.609375 188.964844 C 187.949219 188.824219 188.300781 188.71875 188.660156 188.644531 C 189.019531 188.574219 189.382812 188.539062 189.75 188.539062 L 281.148438 188.539062 C 281.515625 188.539062 281.878906 188.574219 282.238281 188.644531 C 282.601562 188.71875 282.949219 188.824219 283.289062 188.964844 C 283.628906 189.105469 283.949219 189.277344 284.253906 189.480469 C 284.558594 189.683594 284.84375 189.914062 285.101562 190.175781 C 285.363281 190.433594 285.59375 190.714844 285.796875 191.019531 C 286 191.324219 286.171875 191.648438 286.3125 191.984375 C 286.453125 192.324219 286.5625 192.671875 286.632812 193.03125 C 286.707031 193.390625 286.742188 193.753906 286.742188 194.121094 L 286.742188 206.417969 C 286.742188 206.785156 286.707031 207.148438 286.632812 207.507812 C 286.5625 207.867188 286.453125 208.214844 286.3125 208.554688 C 286.171875 208.890625 286 209.214844 285.796875 209.519531 C 285.59375 209.824219 285.363281 210.105469 285.101562 210.363281 C 284.84375 210.625 284.558594 210.855469 284.253906 211.058594 C 283.949219 211.261719 283.628906 211.433594 283.289062 211.574219 C 282.949219 211.714844 282.601562 211.820312 282.238281 211.894531 C 281.878906 211.964844 281.515625 212 281.148438 212 Z M 281.148438 212 " fill-opacity="1" fill-rule="nonzero"/><path fill="#ffffff" d="M 246.554688 198.164062 L 219.625 198.164062 C 219.464844 198.164062 219.308594 198.132812 219.164062 198.074219 C 219.015625 198.011719 218.886719 197.925781 218.773438 197.8125 C 218.660156 197.699219 218.570312 197.570312 218.511719 197.421875 C 218.449219 197.273438 218.417969 197.121094 218.417969 196.960938 C 218.417969 196.800781 218.449219 196.648438 218.511719 196.5 C 218.570312 196.355469 218.660156 196.222656 218.773438 196.113281 C 218.886719 196 219.015625 195.910156 219.164062 195.851562 C 219.308594 195.789062 219.464844 195.757812 219.625 195.757812 L 246.554688 195.757812 C 246.714844 195.757812 246.867188 195.789062 247.015625 195.851562 C 247.164062 195.910156 247.292969 196 247.40625 196.113281 C 247.519531 196.222656 247.605469 196.355469 247.667969 196.5 C 247.726562 196.648438 247.757812 196.800781 247.757812 196.960938 C 247.757812 197.121094 247.726562 197.273438 247.667969 197.421875 C 247.605469 197.570312 247.519531 197.699219 247.40625 197.8125 C 247.292969 197.925781 247.164062 198.011719 247.015625 198.074219 C 246.867188 198.132812 246.714844 198.164062 246.554688 198.164062 Z M 246.554688 198.164062 " fill-opacity="1" fill-rule="nonzero"/><path fill="#ffffff" d="M 272.457031 204.78125 L 219.324219 204.78125 C 219.164062 204.78125 219.007812 204.75 218.863281 204.6875 C 218.714844 204.628906 218.582031 204.539062 218.472656 204.425781 C 218.359375 204.316406 218.269531 204.183594 218.210938 204.035156 C 218.148438 203.890625 218.117188 203.738281 218.117188 203.578125 C 218.117188 203.417969 218.148438 203.265625 218.210938 203.117188 C 218.269531 202.96875 218.359375 202.839844 218.472656 202.726562 C 218.582031 202.613281 218.714844 202.527344 218.863281 202.464844 C 219.007812 202.40625 219.164062 202.375 219.324219 202.375 L 272.457031 202.375 C 272.613281 202.375 272.769531 202.40625 272.917969 202.464844 C 273.0625 202.527344 273.195312 202.613281 273.308594 202.726562 C 273.421875 202.839844 273.507812 202.96875 273.566406 203.117188 C 273.628906 203.265625 273.660156 203.417969 273.660156 203.578125 C 273.660156 203.738281 273.628906 203.890625 273.566406 204.035156 C 273.507812 204.183594 273.421875 204.316406 273.308594 204.425781 C 273.195312 204.539062 273.0625 204.628906 272.917969 204.6875 C 272.769531 204.75 272.613281 204.78125 272.457031 204.78125 Z M 272.457031 204.78125 " fill-opacity="1" fill-rule="nonzero"/><path fill="#ffffff" d="M 213.394531 200.269531 C 213.394531 200.800781 213.34375 201.324219 213.238281 201.84375 C 213.136719 202.363281 212.980469 202.867188 212.777344 203.355469 C 212.574219 203.84375 212.328125 204.308594 212.03125 204.75 C 211.738281 205.191406 211.402344 205.597656 211.027344 205.972656 C 210.652344 206.34375 210.246094 206.679688 209.804688 206.972656 C 209.363281 207.269531 208.898438 207.515625 208.40625 207.71875 C 207.917969 207.921875 207.414062 208.074219 206.890625 208.179688 C 206.371094 208.28125 205.847656 208.332031 205.316406 208.332031 C 204.785156 208.332031 204.261719 208.28125 203.742188 208.179688 C 203.222656 208.074219 202.714844 207.921875 202.226562 207.71875 C 201.734375 207.515625 201.269531 207.269531 200.828125 206.972656 C 200.386719 206.679688 199.980469 206.34375 199.605469 205.972656 C 199.230469 205.597656 198.894531 205.191406 198.601562 204.75 C 198.304688 204.308594 198.058594 203.84375 197.855469 203.355469 C 197.652344 202.867188 197.5 202.363281 197.394531 201.84375 C 197.292969 201.324219 197.238281 200.800781 197.238281 200.269531 C 197.238281 199.738281 197.292969 199.214844 197.394531 198.695312 C 197.5 198.175781 197.652344 197.671875 197.855469 197.183594 C 198.058594 196.695312 198.304688 196.230469 198.601562 195.789062 C 198.894531 195.347656 199.230469 194.941406 199.605469 194.566406 C 199.980469 194.191406 200.386719 193.859375 200.828125 193.566406 C 201.269531 193.269531 201.734375 193.023438 202.226562 192.820312 C 202.714844 192.617188 203.222656 192.464844 203.742188 192.359375 C 204.261719 192.257812 204.785156 192.207031 205.316406 192.207031 C 205.847656 192.207031 206.371094 192.257812 206.890625 192.359375 C 207.414062 192.464844 207.917969 192.617188 208.40625 192.820312 C 208.898438 193.023438 209.363281 193.269531 209.804688 193.566406 C 210.246094 193.859375 210.652344 194.191406 211.027344 194.566406 C 211.402344 194.941406 211.738281 195.347656 212.03125 195.789062 C 212.328125 196.230469 212.574219 196.695312 212.777344 197.183594 C 212.980469 197.671875 213.136719 198.175781 213.238281 198.695312 C 213.34375 199.214844 213.394531 199.738281 213.394531 200.269531 Z M 213.394531 200.269531 " fill-opacity="1" fill-rule="nonzero"/></svg>